<svg width="120" height="120" viewBox="0 0 120 120" fill="none" xmlns="http://www.w3.org/2000/svg">
<path d="M81.616 38.057C81.616 44.8243 78.5704 50.8739 73.8001 54.8804C72.6666 55.8272 71.6613 56.9136 70.8136 58.0996C68.8818 60.7805 67.7287 63.9798 67.571 67.3484L67.1176 74.903C67.0683 75.8598 66.8416 76.7667 66.4671 77.5939C66.0827 78.4112 65.5603 79.1487 64.9196 79.7666C63.6383 81.0025 61.9135 81.7499 60.0113 81.7499C57.1628 81.7499 54.6988 80.0556 53.5653 77.5939C53.1908 76.7767 52.9542 75.8598 52.9148 74.903L52.4713 67.4182C52.3136 64.0296 51.1801 60.7905 49.2483 58.0996C48.4204 56.9435 47.4446 55.887 46.3309 54.9601C41.4718 50.9237 38.377 44.7944 38.4164 37.9275C38.4854 25.898 48.4795 16.0212 60.3759 16.2206C72.1344 16.4099 81.616 26.1172 81.616 38.057Z" fill="#F9FAFA"/>
<path fill-rule="evenodd" clip-rule="evenodd" d="M59.5033 11.0507C59.5033 11.3307 59.7218 11.5508 59.9999 11.5508C60.268 11.5508 60.4964 11.3307 60.4964 11.0507V8.0001C60.4964 7.72004 60.2779 7.5 59.9999 7.5C59.7218 7.5 59.5033 7.72004 59.5033 8.0001V11.0507ZM60.3639 16.9704C60.1905 16.9675 60.0176 16.9668 59.8451 16.9683C48.6028 17.0668 39.2325 26.4875 39.1669 37.9318C39.1299 44.3691 41.9431 50.1334 46.3981 54.0314C46.5341 54.1504 46.6716 54.2677 46.8106 54.3832C47.9743 55.3517 48.9941 56.4557 49.8586 57.6629L49.8624 57.6682H53.8998C51.1385 56.5012 48.779 54.568 47.0863 52.1346C45.3087 49.5793 44.2664 46.4724 44.2664 43.1219C44.2664 35.8411 49.1885 29.7103 55.8823 27.8908C57.1997 27.5327 58.5858 27.3416 60.0165 27.3416C68.7164 27.3416 75.7665 34.4081 75.7665 43.1219C75.7665 49.6629 71.794 55.2757 66.1331 57.6682H70.2005L70.2048 57.6623C71.0889 56.4254 72.1369 55.293 73.3184 54.3059C77.9252 50.4367 80.8665 44.5946 80.8665 38.057C80.8665 26.5195 71.7056 17.1531 60.3639 16.9704ZM60.0118 80.9999C57.8123 80.9999 55.8648 79.8686 54.7212 78.1336H65.3068C65.0434 78.532 64.7396 78.8987 64.3995 79.2268C63.2526 80.333 61.7124 80.9999 60.0118 80.9999ZM60.3885 15.4706C48.0673 15.2645 37.7382 25.4841 37.6669 37.9232C37.6261 45.0229 40.8269 51.3625 45.8519 55.5368C46.9155 56.422 47.8478 57.4313 48.639 58.5362L48.6396 58.5369C50.4864 61.1095 51.5715 64.2087 51.7225 67.453L52.1662 74.9407C52.2107 75.998 52.4722 77.0078 52.884 77.9064L52.8846 77.9076C54.1348 80.6229 56.8572 82.4999 60.0118 82.4999C62.1156 82.4999 64.0251 81.6719 65.4408 80.3064C66.1495 79.6228 66.7245 78.8098 67.1462 77.9131L67.1485 77.9082L67.1508 77.9033C67.5632 76.9924 67.8124 75.9948 67.8669 74.9447L67.8671 74.9416L68.3202 67.3933L68.3206 67.3835C68.4713 64.1641 69.5734 61.1043 71.4226 58.538L71.4243 58.5356C72.235 57.4014 73.1968 56.3619 74.2814 55.456L74.2829 55.4547C79.2168 51.3108 82.3665 45.0537 82.3665 38.057C82.3665 25.7151 72.5634 15.667 60.3885 15.4706ZM60.0165 28.8416C58.3407 28.8416 56.7325 29.1315 55.2389 29.664C49.7193 31.632 45.7664 36.9136 45.7664 43.1219C45.7664 45.7639 46.4823 48.238 47.73 50.3603C50.0415 54.2921 54.1786 57.0166 58.9723 57.3645L52.9845 38.915H67.0483L61.0606 57.3645C68.442 56.8288 74.2665 50.6582 74.2665 43.1219C74.2665 35.2337 67.8851 28.8416 60.0165 28.8416ZM59.2665 53.4118L59.2665 40.415H55.0484L59.2665 53.4118ZM60.7665 40.415V53.4118L64.9845 40.415H60.7665ZM69.6532 13.2411C69.5936 13.2411 69.544 13.2311 69.4844 13.2111C69.2262 13.1211 69.0971 12.831 69.1864 12.571L70.2094 9.70041C70.2987 9.44036 70.5867 9.31033 70.845 9.40035C71.1032 9.49037 71.2323 9.78042 71.1429 10.0405L70.12 12.911C70.0505 13.1211 69.8618 13.2411 69.6532 13.2411ZM77.856 18.0221C77.9553 18.0921 78.0645 18.1321 78.1738 18.1321C78.3128 18.1321 78.4618 18.0621 78.5511 17.9521L80.4778 15.6016C80.6466 15.3916 80.6168 15.0815 80.4082 14.9015C80.1997 14.7315 79.8918 14.7615 79.7131 14.9715L77.7865 17.322C77.6176 17.532 77.6474 17.8421 77.856 18.0221ZM84.5497 25.6234C84.3808 25.6234 84.212 25.5334 84.1226 25.3733C83.9836 25.1333 84.063 24.8332 84.3014 24.6832L86.9033 23.1329C87.1417 22.9929 87.4396 23.0729 87.5886 23.3129C87.7276 23.553 87.6482 23.853 87.4098 24.0031L84.8079 25.5534C84.7185 25.6034 84.639 25.6234 84.5497 25.6234ZM87.539 34.4452C87.5887 34.6853 87.7973 34.8553 88.0257 34.8553C88.0555 34.8553 88.0853 34.8553 88.125 34.8453L91.0944 34.2752C91.3625 34.2152 91.5413 33.9551 91.4916 33.6851C91.4321 33.415 91.1738 33.235 90.9057 33.285L87.9363 33.8551C87.6682 33.9151 87.4894 34.1752 87.539 34.4452ZM50.3371 13.2411C50.1385 13.2411 49.9399 13.1111 49.8704 12.911L48.8475 10.0405C48.7581 9.78042 48.8872 9.49037 49.1454 9.40035C49.4036 9.31033 49.6916 9.44036 49.781 9.70041L50.8039 12.571C50.8933 12.831 50.7642 13.1211 50.506 13.2111C50.4464 13.2311 50.3967 13.2411 50.3371 13.2411ZM41.4288 17.9519C41.5281 18.072 41.6771 18.132 41.8161 18.132C41.9253 18.132 42.0445 18.092 42.124 18.022C42.3425 17.8519 42.3723 17.5319 42.1935 17.3218L40.2668 14.9714C40.098 14.7513 39.7802 14.7213 39.5717 14.9014C39.3532 15.0714 39.3234 15.3915 39.5022 15.6015L41.4288 17.9519ZM35.4401 25.6234C35.3507 25.6234 35.2712 25.6034 35.1918 25.5534L32.5898 24.0031C32.3515 23.863 32.272 23.553 32.4111 23.3129C32.5501 23.0729 32.858 22.9929 33.0963 23.1329L35.6983 24.6832C35.9366 24.8232 36.0161 25.1333 35.877 25.3733C35.7777 25.5434 35.6089 25.6234 35.4401 25.6234ZM31.8749 34.8453C31.9047 34.8553 31.9345 34.8553 31.9643 34.8553C32.2027 34.8553 32.4112 34.6953 32.4609 34.4452C32.5105 34.1652 32.3318 33.9051 32.0636 33.8551L29.0942 33.285C28.8162 33.235 28.5579 33.415 28.5083 33.6851C28.4586 33.9651 28.6374 34.2252 28.9055 34.2752L31.8749 34.8453Z" fill="#5E636E"/>
<path fill-rule="evenodd" clip-rule="evenodd" d="M85.4109 80.0897C85.4109 80.4153 85.6819 80.6793 86.0163 80.6793C86.3506 80.6793 86.6217 80.4153 86.6217 80.0897C86.6217 79.764 86.3506 79.5 86.0163 79.5C85.6819 79.5 85.4109 79.764 85.4109 80.0897ZM82.4205 80.0897C82.4205 80.4153 82.6916 80.6793 83.0259 80.6793C83.3603 80.6793 83.6313 80.4153 83.6313 80.0897C83.6313 79.764 83.3603 79.5 83.0259 79.5C82.6916 79.5 82.4205 79.764 82.4205 80.0897ZM79.4421 80.0897C79.4421 80.4153 79.7131 80.6793 80.0475 80.6793C80.3818 80.6793 80.6529 80.4153 80.6529 80.0897C80.6529 79.764 80.3818 79.5 80.0475 79.5C79.7131 79.5 79.4421 79.764 79.4421 80.0897ZM39.9373 80.8247C40.272 80.8247 40.5433 80.5618 40.5433 80.2373C40.5433 79.9129 40.272 79.6499 39.9373 79.6499C39.6026 79.6499 39.3313 79.9129 39.3313 80.2373C39.3313 80.5618 39.6026 80.8247 39.9373 80.8247ZM43.5373 83.139C43.5373 83.4634 43.266 83.7264 42.9313 83.7264C42.5966 83.7264 42.3253 83.4634 42.3253 83.139C42.3253 82.8146 42.5966 82.5516 42.9313 82.5516C43.266 82.5516 43.5373 82.8146 43.5373 83.139ZM45.9253 86.6164C46.26 86.6164 46.5313 86.3534 46.5313 86.029C46.5313 85.7046 46.26 85.4416 45.9253 85.4416C45.5906 85.4416 45.3193 85.7046 45.3193 86.029C45.3193 86.3534 45.5906 86.6164 45.9253 86.6164ZM48.907 104.003C49.2417 104.003 49.513 103.74 49.513 103.416C49.513 103.091 49.2417 102.828 48.907 102.828C48.5723 102.828 48.301 103.091 48.301 103.416C48.301 103.74 48.5723 104.003 48.907 104.003ZM52.5065 106.318C52.5065 106.642 52.2352 106.905 51.9005 106.905C51.5658 106.905 51.2945 106.642 51.2945 106.318C51.2945 105.993 51.5658 105.73 51.9005 105.73C52.2352 105.73 52.5065 105.993 52.5065 106.318ZM55.5005 112.109C55.5005 112.434 55.2292 112.697 54.8945 112.697C54.5598 112.697 54.2885 112.434 54.2885 112.109C54.2885 111.785 54.5598 111.522 54.8945 111.522C55.2292 111.522 55.5005 111.785 55.5005 112.109ZM55.5005 115.011C55.5005 115.335 55.2292 115.598 54.8945 115.598C54.5598 115.598 54.2885 115.335 54.2885 115.011C54.2885 114.687 54.5598 114.424 54.8945 114.424C55.2292 114.424 55.5005 114.687 55.5005 115.011ZM54.8945 118.5C55.2292 118.5 55.5005 118.237 55.5005 117.913C55.5005 117.588 55.2292 117.325 54.8945 117.325C54.5598 117.325 54.2885 117.588 54.2885 117.913C54.2885 118.237 54.5598 118.5 54.8945 118.5ZM51.9005 109.807C52.2352 109.807 52.5065 109.544 52.5065 109.219C52.5065 108.895 52.2352 108.632 51.9005 108.632C51.5658 108.632 51.2945 108.895 51.2945 109.219C51.2945 109.544 51.5658 109.807 51.9005 109.807ZM52.5065 112.109C52.5065 112.434 52.2352 112.697 51.9005 112.697C51.5658 112.697 51.2945 112.434 51.2945 112.109C51.2945 111.785 51.5658 111.522 51.9005 111.522C52.2352 111.522 52.5065 111.785 52.5065 112.109ZM51.9005 115.598C52.2352 115.598 52.5065 115.335 52.5065 115.011C52.5065 114.687 52.2352 114.424 51.9005 114.424C51.5658 114.424 51.2945 114.687 51.2945 115.011C51.2945 115.335 51.5658 115.598 51.9005 115.598ZM52.5065 117.913C52.5065 118.237 52.2352 118.5 51.9005 118.5C51.5658 118.5 51.2945 118.237 51.2945 117.913C51.2945 117.588 51.5658 117.325 51.9005 117.325C52.2352 117.325 52.5065 117.588 52.5065 117.913ZM49.513 106.318C49.513 106.642 49.2417 106.905 48.907 106.905C48.5723 106.905 48.301 106.642 48.301 106.318C48.301 105.993 48.5723 105.73 48.907 105.73C49.2417 105.73 49.513 105.993 49.513 106.318ZM48.907 109.807C49.2417 109.807 49.513 109.544 49.513 109.219C49.513 108.895 49.2417 108.632 48.907 108.632C48.5723 108.632 48.301 108.895 48.301 109.219C48.301 109.544 48.5723 109.807 48.907 109.807ZM49.513 112.109C49.513 112.434 49.2417 112.697 48.907 112.697C48.5723 112.697 48.301 112.434 48.301 112.109C48.301 111.785 48.5723 111.522 48.907 111.522C49.2417 111.522 49.513 111.785 49.513 112.109ZM48.907 115.598C49.2417 115.598 49.513 115.335 49.513 115.011C49.513 114.687 49.2417 114.424 48.907 114.424C48.5723 114.424 48.301 114.687 48.301 115.011C48.301 115.335 48.5723 115.598 48.907 115.598ZM49.513 117.913C49.513 118.237 49.2417 118.5 48.907 118.5C48.5723 118.5 48.301 118.237 48.301 117.913C48.301 117.588 48.5723 117.325 48.907 117.325C49.2417 117.325 49.513 117.588 49.513 117.913ZM46.5313 88.9307C46.5313 89.2551 46.26 89.5181 45.9253 89.5181C45.5906 89.5181 45.3193 89.2551 45.3193 88.9307C45.3193 88.6063 45.5906 88.3433 45.9253 88.3433C46.26 88.3433 46.5313 88.6063 46.5313 88.9307ZM45.9253 92.4199C46.26 92.4199 46.5313 92.157 46.5313 91.8325C46.5313 91.5081 46.26 91.2452 45.9253 91.2452C45.5906 91.2452 45.3193 91.5081 45.3193 91.8325C45.3193 92.157 45.5906 92.4199 45.9253 92.4199ZM46.5313 94.7223C46.5313 95.0468 46.26 95.3097 45.9253 95.3097C45.5906 95.3097 45.3193 95.0468 45.3193 94.7223C45.3193 94.3979 45.5906 94.1349 45.9253 94.1349C46.26 94.1349 46.5313 94.3979 46.5313 94.7223ZM45.9253 98.2114C46.26 98.2114 46.5313 97.9484 46.5313 97.624C46.5313 97.2996 46.26 97.0366 45.9253 97.0366C45.5906 97.0366 45.3193 97.2996 45.3193 97.624C45.3193 97.9484 45.5906 98.2114 45.9253 98.2114ZM46.5313 103.416C46.5313 103.74 46.26 104.003 45.9253 104.003C45.5906 104.003 45.3193 103.74 45.3193 103.416C45.3193 103.091 45.5906 102.828 45.9253 102.828C46.26 102.828 46.5313 103.091 46.5313 103.416ZM45.9253 106.905C46.26 106.905 46.5313 106.642 46.5313 106.318C46.5313 105.993 46.26 105.73 45.9253 105.73C45.5906 105.73 45.3193 105.993 45.3193 106.318C45.3193 106.642 45.5906 106.905 45.9253 106.905ZM46.5313 109.219C46.5313 109.544 46.26 109.807 45.9253 109.807C45.5906 109.807 45.3193 109.544 45.3193 109.219C45.3193 108.895 45.5906 108.632 45.9253 108.632C46.26 108.632 46.5313 108.895 46.5313 109.219ZM45.9253 112.697C46.26 112.697 46.5313 112.434 46.5313 112.109C46.5313 111.785 46.26 111.522 45.9253 111.522C45.5906 111.522 45.3193 111.785 45.3193 112.109C45.3193 112.434 45.5906 112.697 45.9253 112.697ZM46.5313 115.011C46.5313 115.335 46.26 115.598 45.9253 115.598C45.5906 115.598 45.3193 115.335 45.3193 115.011C45.3193 114.687 45.5906 114.424 45.9253 114.424C46.26 114.424 46.5313 114.687 46.5313 115.011ZM45.9253 118.5C46.26 118.5 46.5313 118.237 46.5313 117.913C46.5313 117.588 46.26 117.325 45.9253 117.325C45.5906 117.325 45.3193 117.588 45.3193 117.913C45.3193 118.237 45.5906 118.5 45.9253 118.5ZM42.9313 86.6164C43.266 86.6164 43.5373 86.3534 43.5373 86.029C43.5373 85.7046 43.266 85.4416 42.9313 85.4416C42.5966 85.4416 42.3253 85.7046 42.3253 86.029C42.3253 86.3534 42.5966 86.6164 42.9313 86.6164ZM43.5373 88.9307C43.5373 89.2551 43.266 89.5181 42.9313 89.5181C42.5966 89.5181 42.3253 89.2551 42.3253 88.9307C42.3253 88.6063 42.5966 88.3433 42.9313 88.3433C43.266 88.3433 43.5373 88.6063 43.5373 88.9307ZM42.9313 92.4199C43.266 92.4199 43.5373 92.157 43.5373 91.8325C43.5373 91.5081 43.266 91.2452 42.9313 91.2452C42.5966 91.2452 42.3253 91.5081 42.3253 91.8325C42.3253 92.157 42.5966 92.4199 42.9313 92.4199ZM43.5373 94.7223C43.5373 95.0468 43.266 95.3097 42.9313 95.3097C42.5966 95.3097 42.3253 95.0468 42.3253 94.7223C42.3253 94.3979 42.5966 94.1349 42.9313 94.1349C43.266 94.1349 43.5373 94.3979 43.5373 94.7223ZM42.9313 98.2114C43.266 98.2114 43.5373 97.9484 43.5373 97.624C43.5373 97.2996 43.266 97.0366 42.9313 97.0366C42.5966 97.0366 42.3253 97.2996 42.3253 97.624C42.3253 97.9484 42.5966 98.2114 42.9313 98.2114ZM43.5373 100.526C43.5373 100.85 43.266 101.113 42.9313 101.113C42.5966 101.113 42.3253 100.85 42.3253 100.526C42.3253 100.202 42.5966 99.9385 42.9313 99.9385C43.266 99.9385 43.5373 100.202 43.5373 100.526ZM42.9313 104.003C43.266 104.003 43.5373 103.74 43.5373 103.416C43.5373 103.091 43.266 102.828 42.9313 102.828C42.5966 102.828 42.3253 103.091 42.3253 103.416C42.3253 103.74 42.5966 104.003 42.9313 104.003ZM43.5373 106.318C43.5373 106.642 43.266 106.905 42.9313 106.905C42.5966 106.905 42.3253 106.642 42.3253 106.318C42.3253 105.993 42.5966 105.73 42.9313 105.73C43.266 105.73 43.5373 105.993 43.5373 106.318ZM42.9313 109.807C43.266 109.807 43.5373 109.544 43.5373 109.219C43.5373 108.895 43.266 108.632 42.9313 108.632C42.5966 108.632 42.3253 108.895 42.3253 109.219C42.3253 109.544 42.5966 109.807 42.9313 109.807ZM43.5373 112.109C43.5373 112.434 43.266 112.697 42.9313 112.697C42.5966 112.697 42.3253 112.434 42.3253 112.109C42.3253 111.785 42.5966 111.522 42.9313 111.522C43.266 111.522 43.5373 111.785 43.5373 112.109ZM42.9313 115.598C43.266 115.598 43.5373 115.335 43.5373 115.011C43.5373 114.687 43.266 114.424 42.9313 114.424C42.5966 114.424 42.3253 114.687 42.3253 115.011C42.3253 115.335 42.5966 115.598 42.9313 115.598ZM43.5373 117.913C43.5373 118.237 43.266 118.5 42.9313 118.5C42.5966 118.5 42.3253 118.237 42.3253 117.913C42.3253 117.588 42.5966 117.325 42.9313 117.325C43.266 117.325 43.5373 117.588 43.5373 117.913ZM40.5435 83.139C40.5435 83.4634 40.2722 83.7264 39.9375 83.7264C39.6028 83.7264 39.3315 83.4634 39.3315 83.139C39.3315 82.8146 39.6028 82.5516 39.9375 82.5516C40.2722 82.5516 40.5435 82.8146 40.5435 83.139ZM39.9375 86.6164C40.2722 86.6164 40.5435 86.3534 40.5435 86.029C40.5435 85.7046 40.2722 85.4416 39.9375 85.4416C39.6028 85.4416 39.3315 85.7046 39.3315 86.029C39.3315 86.3534 39.6028 86.6164 39.9375 86.6164ZM40.5435 88.9307C40.5435 89.2551 40.2722 89.5181 39.9375 89.5181C39.6028 89.5181 39.3315 89.2551 39.3315 88.9307C39.3315 88.6063 39.6028 88.3433 39.9375 88.3433C40.2722 88.3433 40.5435 88.6063 40.5435 88.9307ZM39.9375 92.4199C40.2722 92.4199 40.5435 92.157 40.5435 91.8325C40.5435 91.5081 40.2722 91.2452 39.9375 91.2452C39.6028 91.2452 39.3315 91.5081 39.3315 91.8325C39.3315 92.157 39.6028 92.4199 39.9375 92.4199ZM40.5435 94.7223C40.5435 95.0468 40.2722 95.3097 39.9375 95.3097C39.6028 95.3097 39.3315 95.0468 39.3315 94.7223C39.3315 94.3979 39.6028 94.1349 39.9375 94.1349C40.2722 94.1349 40.5435 94.3979 40.5435 94.7223ZM39.9375 98.2114C40.2722 98.2114 40.5435 97.9484 40.5435 97.624C40.5435 97.2996 40.2722 97.0366 39.9375 97.0366C39.6028 97.0366 39.3315 97.2996 39.3315 97.624C39.3315 97.9484 39.6028 98.2114 39.9375 98.2114ZM40.5435 100.526C40.5435 100.85 40.2722 101.113 39.9375 101.113C39.6028 101.113 39.3315 100.85 39.3315 100.526C39.3315 100.202 39.6028 99.9385 39.9375 99.9385C40.2722 99.9385 40.5435 100.202 40.5435 100.526ZM39.9375 104.003C40.2722 104.003 40.5435 103.74 40.5435 103.416C40.5435 103.091 40.2722 102.828 39.9375 102.828C39.6028 102.828 39.3315 103.091 39.3315 103.416C39.3315 103.74 39.6028 104.003 39.9375 104.003ZM40.5435 106.318C40.5435 106.642 40.2722 106.905 39.9375 106.905C39.6028 106.905 39.3315 106.642 39.3315 106.318C39.3315 105.993 39.6028 105.73 39.9375 105.73C40.2722 105.73 40.5435 105.993 40.5435 106.318ZM39.9375 109.806C40.2722 109.806 40.5435 109.543 40.5435 109.219C40.5435 108.895 40.2722 108.632 39.9375 108.632C39.6028 108.632 39.3315 108.895 39.3315 109.219C39.3315 109.543 39.6028 109.806 39.9375 109.806ZM40.5435 112.109C40.5435 112.434 40.2722 112.697 39.9375 112.697C39.6028 112.697 39.3315 112.434 39.3315 112.109C39.3315 111.785 39.6028 111.522 39.9375 111.522C40.2722 111.522 40.5435 111.785 40.5435 112.109ZM39.9375 115.598C40.2722 115.598 40.5435 115.335 40.5435 115.011C40.5435 114.687 40.2722 114.424 39.9375 114.424C39.6028 114.424 39.3315 114.687 39.3315 115.011C39.3315 115.335 39.6028 115.598 39.9375 115.598ZM40.5435 117.913C40.5435 118.237 40.2722 118.5 39.9375 118.5C39.6028 118.5 39.3315 118.237 39.3315 117.913C39.3315 117.588 39.6028 117.325 39.9375 117.325C40.2722 117.325 40.5435 117.588 40.5435 117.913ZM36.956 80.8247C37.2907 80.8247 37.562 80.5618 37.562 80.2373C37.562 79.9129 37.2907 79.6499 36.956 79.6499C36.6213 79.6499 36.35 79.9129 36.35 80.2373C36.35 80.5618 36.6213 80.8247 36.956 80.8247ZM37.562 83.139C37.562 83.4634 37.2906 83.7264 36.9559 83.7264C36.6212 83.7264 36.3499 83.4634 36.3499 83.139C36.3499 82.8146 36.6212 82.5516 36.9559 82.5516C37.2906 82.5516 37.562 82.8146 37.562 83.139ZM36.9559 86.6164C37.2906 86.6164 37.562 86.3534 37.562 86.029C37.562 85.7046 37.2906 85.4416 36.9559 85.4416C36.6212 85.4416 36.3499 85.7046 36.3499 86.029C36.3499 86.3534 36.6212 86.6164 36.9559 86.6164ZM37.562 88.9307C37.562 89.2551 37.2906 89.5181 36.9559 89.5181C36.6212 89.5181 36.3499 89.2551 36.3499 88.9307C36.3499 88.6063 36.6212 88.3433 36.9559 88.3433C37.2906 88.3433 37.562 88.6063 37.562 88.9307ZM36.9559 92.4199C37.2906 92.4199 37.562 92.157 37.562 91.8325C37.562 91.5081 37.2906 91.2452 36.9559 91.2452C36.6212 91.2452 36.3499 91.5081 36.3499 91.8325C36.3499 92.157 36.6212 92.4199 36.9559 92.4199ZM37.562 94.7223C37.562 95.0468 37.2906 95.3097 36.9559 95.3097C36.6212 95.3097 36.3499 95.0468 36.3499 94.7223C36.3499 94.3979 36.6212 94.1349 36.9559 94.1349C37.2906 94.1349 37.562 94.3979 37.562 94.7223ZM36.9559 98.2114C37.2906 98.2114 37.562 97.9484 37.562 97.624C37.562 97.2996 37.2906 97.0366 36.9559 97.0366C36.6212 97.0366 36.3499 97.2996 36.3499 97.624C36.3499 97.9484 36.6212 98.2114 36.9559 98.2114ZM37.562 100.526C37.562 100.85 37.2906 101.113 36.9559 101.113C36.6212 101.113 36.3499 100.85 36.3499 100.526C36.3499 100.202 36.6212 99.9385 36.9559 99.9385C37.2906 99.9385 37.562 100.202 37.562 100.526ZM36.9559 104.003C37.2906 104.003 37.562 103.74 37.562 103.416C37.562 103.091 37.2906 102.828 36.9559 102.828C36.6212 102.828 36.3499 103.091 36.3499 103.416C36.3499 103.74 36.6212 104.003 36.9559 104.003ZM37.562 106.318C37.562 106.642 37.2906 106.905 36.9559 106.905C36.6212 106.905 36.3499 106.642 36.3499 106.318C36.3499 105.993 36.6212 105.73 36.9559 105.73C37.2906 105.73 37.562 105.993 37.562 106.318ZM36.9559 109.807C37.2906 109.807 37.562 109.544 37.562 109.219C37.562 108.895 37.2906 108.632 36.9559 108.632C36.6212 108.632 36.3499 108.895 36.3499 109.219C36.3499 109.544 36.6212 109.807 36.9559 109.807ZM37.562 112.109C37.562 112.434 37.2906 112.697 36.9559 112.697C36.6212 112.697 36.3499 112.434 36.3499 112.109C36.3499 111.785 36.6212 111.522 36.9559 111.522C37.2906 111.522 37.562 111.785 37.562 112.109ZM36.9559 115.598C37.2906 115.598 37.562 115.335 37.562 115.011C37.562 114.687 37.2906 114.424 36.9559 114.424C36.6212 114.424 36.3499 114.687 36.3499 115.011C36.3499 115.335 36.6212 115.598 36.9559 115.598ZM37.562 117.913C37.562 118.237 37.2906 118.5 36.9559 118.5C36.6212 118.5 36.3499 118.237 36.3499 117.913C36.3499 117.588 36.6212 117.325 36.9559 117.325C37.2906 117.325 37.562 117.588 37.562 117.913ZM33.9625 80.8247C34.2972 80.8247 34.5686 80.5618 34.5686 80.2373C34.5686 79.9129 34.2972 79.6499 33.9625 79.6499C33.6278 79.6499 33.3565 79.9129 33.3565 80.2373C33.3565 80.5618 33.6278 80.8247 33.9625 80.8247ZM34.5686 83.139C34.5686 83.4634 34.2972 83.7264 33.9625 83.7264C33.6278 83.7264 33.3565 83.4634 33.3565 83.139C33.3565 82.8146 33.6278 82.5516 33.9625 82.5516C34.2972 82.5516 34.5686 82.8146 34.5686 83.139ZM33.9625 86.6164C34.2972 86.6164 34.5686 86.3534 34.5686 86.029C34.5686 85.7046 34.2972 85.4416 33.9625 85.4416C33.6278 85.4416 33.3565 85.7046 33.3565 86.029C33.3565 86.3534 33.6278 86.6164 33.9625 86.6164ZM34.5686 88.9307C34.5686 89.2551 34.2972 89.5181 33.9625 89.5181C33.6278 89.5181 33.3565 89.2551 33.3565 88.9307C33.3565 88.6063 33.6278 88.3433 33.9625 88.3433C34.2972 88.3433 34.5686 88.6063 34.5686 88.9307ZM33.9625 92.4199C34.2972 92.4199 34.5686 92.157 34.5686 91.8325C34.5686 91.5081 34.2972 91.2452 33.9625 91.2452C33.6278 91.2452 33.3565 91.5081 33.3565 91.8325C33.3565 92.157 33.6278 92.4199 33.9625 92.4199ZM34.5686 94.7223C34.5686 95.0468 34.2972 95.3097 33.9625 95.3097C33.6278 95.3097 33.3565 95.0468 33.3565 94.7223C33.3565 94.3979 33.6278 94.1349 33.9625 94.1349C34.2972 94.1349 34.5686 94.3979 34.5686 94.7223ZM33.9625 98.2114C34.2972 98.2114 34.5686 97.9484 34.5686 97.624C34.5686 97.2996 34.2972 97.0366 33.9625 97.0366C33.6278 97.0366 33.3565 97.2996 33.3565 97.624C33.3565 97.9484 33.6278 98.2114 33.9625 98.2114ZM34.5686 100.526C34.5686 100.85 34.2972 101.113 33.9625 101.113C33.6278 101.113 33.3565 100.85 33.3565 100.526C33.3565 100.202 33.6278 99.9385 33.9625 99.9385C34.2972 99.9385 34.5686 100.202 34.5686 100.526ZM33.9625 104.003C34.2972 104.003 34.5686 103.74 34.5686 103.416C34.5686 103.091 34.2972 102.828 33.9625 102.828C33.6278 102.828 33.3565 103.091 33.3565 103.416C33.3565 103.74 33.6278 104.003 33.9625 104.003ZM34.5686 106.318C34.5686 106.642 34.2972 106.905 33.9625 106.905C33.6278 106.905 33.3565 106.642 33.3565 106.318C33.3565 105.993 33.6278 105.73 33.9625 105.73C34.2972 105.73 34.5686 105.993 34.5686 106.318ZM33.9625 109.807C34.2972 109.807 34.5686 109.544 34.5686 109.219C34.5686 108.895 34.2972 108.632 33.9625 108.632C33.6278 108.632 33.3565 108.895 33.3565 109.219C33.3565 109.544 33.6278 109.807 33.9625 109.807ZM34.5686 112.109C34.5686 112.434 34.2972 112.697 33.9625 112.697C33.6278 112.697 33.3565 112.434 33.3565 112.109C33.3565 111.785 33.6278 111.522 33.9625 111.522C34.2972 111.522 34.5686 111.785 34.5686 112.109ZM33.9625 115.598C34.2972 115.598 34.5686 115.335 34.5686 115.011C34.5686 114.687 34.2972 114.424 33.9625 114.424C33.6278 114.424 33.3565 114.687 33.3565 115.011C33.3565 115.335 33.6278 115.598 33.9625 115.598ZM34.5686 117.913C34.5686 118.237 34.2972 118.5 33.9625 118.5C33.6278 118.5 33.3565 118.237 33.3565 117.913C33.3565 117.588 33.6278 117.325 33.9625 117.325C34.2972 117.325 34.5686 117.588 34.5686 117.913ZM30.9689 83.7264C31.3036 83.7264 31.5749 83.4634 31.5749 83.139C31.5749 82.8146 31.3036 82.5516 30.9689 82.5516C30.6342 82.5516 30.3629 82.8146 30.3629 83.139C30.3629 83.4634 30.6342 83.7264 30.9689 83.7264ZM31.5749 86.029C31.5749 86.3534 31.3036 86.6164 30.9689 86.6164C30.6342 86.6164 30.3629 86.3534 30.3629 86.029C30.3629 85.7046 30.6342 85.4416 30.9689 85.4416C31.3036 85.4416 31.5749 85.7046 31.5749 86.029ZM30.9689 89.5181C31.3036 89.5181 31.5749 89.2551 31.5749 88.9307C31.5749 88.6063 31.3036 88.3433 30.9689 88.3433C30.6342 88.3433 30.3629 88.6063 30.3629 88.9307C30.3629 89.2551 30.6342 89.5181 30.9689 89.5181ZM31.5749 91.8325C31.5749 92.157 31.3036 92.4199 30.9689 92.4199C30.6342 92.4199 30.3629 92.157 30.3629 91.8325C30.3629 91.5081 30.6342 91.2452 30.9689 91.2452C31.3036 91.2452 31.5749 91.5081 31.5749 91.8325ZM30.9689 95.3097C31.3036 95.3097 31.5749 95.0468 31.5749 94.7223C31.5749 94.3979 31.3036 94.1349 30.9689 94.1349C30.6342 94.1349 30.3629 94.3979 30.3629 94.7223C30.3629 95.0468 30.6342 95.3097 30.9689 95.3097ZM31.5749 97.624C31.5749 97.9484 31.3036 98.2114 30.9689 98.2114C30.6342 98.2114 30.3629 97.9484 30.3629 97.624C30.3629 97.2996 30.6342 97.0366 30.9689 97.0366C31.3036 97.0366 31.5749 97.2996 31.5749 97.624ZM30.9689 101.113C31.3036 101.113 31.5749 100.85 31.5749 100.526C31.5749 100.202 31.3036 99.9385 30.9689 99.9385C30.6342 99.9385 30.3629 100.202 30.3629 100.526C30.3629 100.85 30.6342 101.113 30.9689 101.113ZM31.5749 103.416C31.5749 103.74 31.3036 104.003 30.9689 104.003C30.6342 104.003 30.3629 103.74 30.3629 103.416C30.3629 103.091 30.6342 102.828 30.9689 102.828C31.3036 102.828 31.5749 103.091 31.5749 103.416ZM30.9689 106.905C31.3036 106.905 31.5749 106.642 31.5749 106.318C31.5749 105.993 31.3036 105.73 30.9689 105.73C30.6342 105.73 30.3629 105.993 30.3629 106.318C30.3629 106.642 30.6342 106.905 30.9689 106.905ZM31.5749 109.219C31.5749 109.544 31.3036 109.807 30.9689 109.807C30.6342 109.807 30.3629 109.544 30.3629 109.219C30.3629 108.895 30.6342 108.632 30.9689 108.632C31.3036 108.632 31.5749 108.895 31.5749 109.219ZM30.9689 112.697C31.3036 112.697 31.5749 112.434 31.5749 112.109C31.5749 111.785 31.3036 111.522 30.9689 111.522C30.6342 111.522 30.3629 111.785 30.3629 112.109C30.3629 112.434 30.6342 112.697 30.9689 112.697ZM31.5749 115.011C31.5749 115.335 31.3036 115.598 30.9689 115.598C30.6342 115.598 30.3629 115.335 30.3629 115.011C30.3629 114.687 30.6342 114.424 30.9689 114.424C31.3036 114.424 31.5749 114.687 31.5749 115.011ZM30.9689 118.5C31.3036 118.5 31.5749 118.237 31.5749 117.913C31.5749 117.588 31.3036 117.325 30.9689 117.325C30.6342 117.325 30.3629 117.588 30.3629 117.913C30.3629 118.237 30.6342 118.5 30.9689 118.5ZM28.593 86.029C28.593 86.3534 28.3216 86.6164 27.9869 86.6164C27.6522 86.6164 27.3809 86.3534 27.3809 86.029C27.3809 85.7046 27.6522 85.4416 27.9869 85.4416C28.3216 85.4416 28.593 85.7046 28.593 86.029ZM27.9869 89.5181C28.3216 89.5181 28.593 89.2551 28.593 88.9307C28.593 88.6063 28.3216 88.3433 27.9869 88.3433C27.6522 88.3433 27.3809 88.6063 27.3809 88.9307C27.3809 89.2551 27.6522 89.5181 27.9869 89.5181ZM28.593 91.8325C28.593 92.157 28.3216 92.4199 27.9869 92.4199C27.6522 92.4199 27.3809 92.157 27.3809 91.8325C27.3809 91.5081 27.6522 91.2452 27.9869 91.2452C28.3216 91.2452 28.593 91.5081 28.593 91.8325ZM27.9869 95.3097C28.3216 95.3097 28.593 95.0468 28.593 94.7223C28.593 94.3979 28.3216 94.1349 27.9869 94.1349C27.6522 94.1349 27.3809 94.3979 27.3809 94.7223C27.3809 95.0468 27.6522 95.3097 27.9869 95.3097ZM28.593 103.416C28.593 103.74 28.3216 104.003 27.9869 104.003C27.6522 104.003 27.3809 103.74 27.3809 103.416C27.3809 103.091 27.6522 102.828 27.9869 102.828C28.3216 102.828 28.593 103.091 28.593 103.416ZM27.9869 106.905C28.3216 106.905 28.593 106.642 28.593 106.318C28.593 105.993 28.3216 105.73 27.9869 105.73C27.6522 105.73 27.3809 105.993 27.3809 106.318C27.3809 106.642 27.6522 106.905 27.9869 106.905ZM28.593 109.219C28.593 109.544 28.3216 109.807 27.9869 109.807C27.6522 109.807 27.3809 109.544 27.3809 109.219C27.3809 108.895 27.6522 108.632 27.9869 108.632C28.3216 108.632 28.593 108.895 28.593 109.219ZM27.9869 112.697C28.3216 112.697 28.593 112.434 28.593 112.109C28.593 111.785 28.3216 111.522 27.9869 111.522C27.6522 111.522 27.3809 111.785 27.3809 112.109C27.3809 112.434 27.6522 112.697 27.9869 112.697ZM28.593 115.011C28.593 115.335 28.3216 115.598 27.9869 115.598C27.6522 115.598 27.3809 115.335 27.3809 115.011C27.3809 114.687 27.6522 114.424 27.9869 114.424C28.3216 114.424 28.593 114.687 28.593 115.011ZM27.9869 118.5C28.3216 118.5 28.593 118.237 28.593 117.913C28.593 117.588 28.3216 117.325 27.9869 117.325C27.6522 117.325 27.3809 117.588 27.3809 117.913C27.3809 118.237 27.6522 118.5 27.9869 118.5ZM25.5994 103.416C25.5994 103.74 25.3281 104.003 24.9934 104.003C24.6587 104.003 24.3874 103.74 24.3874 103.416C24.3874 103.091 24.6587 102.828 24.9934 102.828C25.3281 102.828 25.5994 103.091 25.5994 103.416ZM24.9934 106.905C25.3281 106.905 25.5994 106.642 25.5994 106.318C25.5994 105.993 25.3281 105.73 24.9934 105.73C24.6587 105.73 24.3874 105.993 24.3874 106.318C24.3874 106.642 24.6587 106.905 24.9934 106.905ZM25.5994 109.219C25.5994 109.544 25.3281 109.807 24.9934 109.807C24.6587 109.807 24.3874 109.544 24.3874 109.219C24.3874 108.895 24.6587 108.632 24.9934 108.632C25.3281 108.632 25.5994 108.895 25.5994 109.219ZM24.9934 112.697C25.3281 112.697 25.5994 112.434 25.5994 112.109C25.5994 111.785 25.3281 111.522 24.9934 111.522C24.6587 111.522 24.3874 111.785 24.3874 112.109C24.3874 112.434 24.6587 112.697 24.9934 112.697ZM25.5994 115.011C25.5994 115.335 25.3281 115.598 24.9934 115.598C24.6587 115.598 24.3874 115.335 24.3874 115.011C24.3874 114.687 24.6587 114.424 24.9934 114.424C25.3281 114.424 25.5994 114.687 25.5994 115.011ZM24.9934 118.5C25.3281 118.5 25.5994 118.237 25.5994 117.913C25.5994 117.588 25.3281 117.325 24.9934 117.325C24.6587 117.325 24.3874 117.588 24.3874 117.913C24.3874 118.237 24.6587 118.5 24.9934 118.5ZM22.6054 106.318C22.6054 106.642 22.3341 106.905 21.9994 106.905C21.6647 106.905 21.3934 106.642 21.3934 106.318C21.3934 105.993 21.6647 105.73 21.9994 105.73C22.3341 105.73 22.6054 105.993 22.6054 106.318ZM21.9994 109.806C22.3341 109.806 22.6054 109.543 22.6054 109.219C22.6054 108.895 22.3341 108.632 21.9994 108.632C21.6647 108.632 21.3934 108.895 21.3934 109.219C21.3934 109.543 21.6647 109.806 21.9994 109.806ZM22.6054 112.109C22.6054 112.434 22.3341 112.697 21.9994 112.697C21.6647 112.697 21.3934 112.434 21.3934 112.109C21.3934 111.785 21.6647 111.522 21.9994 111.522C22.3341 111.522 22.6054 111.785 22.6054 112.109ZM21.9994 115.598C22.3341 115.598 22.6054 115.335 22.6054 115.011C22.6054 114.687 22.3341 114.424 21.9994 114.424C21.6647 114.424 21.3934 114.687 21.3934 115.011C21.3934 115.335 21.6647 115.598 21.9994 115.598ZM22.6054 117.913C22.6054 118.237 22.3341 118.5 21.9994 118.5C21.6647 118.5 21.3934 118.237 21.3934 117.913C21.3934 117.588 21.6647 117.325 21.9994 117.325C22.3341 117.325 22.6054 117.588 22.6054 117.913ZM19.0181 112.697C19.3528 112.697 19.6241 112.434 19.6241 112.109C19.6241 111.785 19.3528 111.522 19.0181 111.522C18.6834 111.522 18.4121 111.785 18.4121 112.109C18.4121 112.434 18.6834 112.697 19.0181 112.697ZM19.6241 115.011C19.6241 115.335 19.3528 115.598 19.0181 115.598C18.6834 115.598 18.4121 115.335 18.4121 115.011C18.4121 114.687 18.6834 114.424 19.0181 114.424C19.3528 114.424 19.6241 114.687 19.6241 115.011ZM19.0181 118.5C19.3528 118.5 19.6241 118.237 19.6241 117.913C19.6241 117.588 19.3528 117.325 19.0181 117.325C18.6834 117.325 18.4121 117.588 18.4121 117.913C18.4121 118.237 18.6834 118.5 19.0181 118.5ZM64.5006 112.085C64.5006 112.41 64.7717 112.674 65.106 112.674C65.4404 112.674 65.7114 112.41 65.7114 112.085C65.7114 111.759 65.4404 111.495 65.106 111.495C64.7717 111.495 64.5006 111.759 64.5006 112.085ZM65.106 115.587C64.7717 115.587 64.5006 115.323 64.5006 114.997C64.5006 114.672 64.7717 114.408 65.106 114.408C65.4404 114.408 65.7114 114.672 65.7114 114.997C65.7114 115.323 65.4404 115.587 65.106 115.587ZM64.5006 117.91C64.5006 118.236 64.7717 118.5 65.106 118.5C65.4404 118.5 65.7114 118.236 65.7114 117.91C65.7114 117.585 65.4404 117.321 65.106 117.321C64.7717 117.321 64.5006 117.585 64.5006 117.91ZM68.0966 106.86C67.7623 106.86 67.4912 106.596 67.4912 106.271C67.4912 105.945 67.7623 105.681 68.0966 105.681C68.431 105.681 68.702 105.945 68.702 106.271C68.702 106.596 68.431 106.86 68.0966 106.86ZM67.4912 109.183C67.4912 109.509 67.7623 109.773 68.0966 109.773C68.431 109.773 68.702 109.509 68.702 109.183C68.702 108.858 68.431 108.594 68.0966 108.594C67.7623 108.594 67.4912 108.858 67.4912 109.183ZM68.0966 112.674C67.7623 112.674 67.4912 112.41 67.4912 112.085C67.4912 111.759 67.7623 111.495 68.0966 111.495C68.431 111.495 68.702 111.759 68.702 112.085C68.702 112.41 68.431 112.674 68.0966 112.674ZM67.4912 114.997C67.4912 115.323 67.7623 115.587 68.0966 115.587C68.431 115.587 68.702 115.323 68.702 114.997C68.702 114.672 68.431 114.408 68.0966 114.408C67.7623 114.408 67.4912 114.672 67.4912 114.997ZM68.0966 118.5C67.7623 118.5 67.4912 118.236 67.4912 117.91C67.4912 117.585 67.7623 117.321 68.0966 117.321C68.431 117.321 68.702 117.585 68.702 117.91C68.702 118.236 68.431 118.5 68.0966 118.5ZM70.4817 103.358C70.4817 103.683 70.7528 103.947 71.0871 103.947C71.4215 103.947 71.6925 103.683 71.6925 103.358C71.6925 103.032 71.4215 102.768 71.0871 102.768C70.7528 102.768 70.4817 103.032 70.4817 103.358ZM71.0871 106.86C70.7528 106.86 70.4817 106.596 70.4817 106.271C70.4817 105.945 70.7528 105.681 71.0871 105.681C71.4215 105.681 71.6925 105.945 71.6925 106.271C71.6925 106.596 71.4215 106.86 71.0871 106.86ZM70.4817 109.183C70.4817 109.509 70.7528 109.773 71.0871 109.773C71.4215 109.773 71.6925 109.509 71.6925 109.183C71.6925 108.858 71.4215 108.594 71.0871 108.594C70.7528 108.594 70.4817 108.858 70.4817 109.183ZM71.0871 112.674C70.7528 112.674 70.4817 112.41 70.4817 112.085C70.4817 111.759 70.7528 111.495 71.0871 111.495C71.4215 111.495 71.6925 111.759 71.6925 112.085C71.6925 112.41 71.4215 112.674 71.0871 112.674ZM70.4817 114.997C70.4817 115.323 70.7528 115.587 71.0871 115.587C71.4215 115.587 71.6925 115.323 71.6925 114.997C71.6925 114.672 71.4215 114.408 71.0871 114.408C70.7528 114.408 70.4817 114.672 70.4817 114.997ZM71.0871 118.5C70.7528 118.5 70.4817 118.236 70.4817 117.91C70.4817 117.585 70.7528 117.321 71.0871 117.321C71.4215 117.321 71.6925 117.585 71.6925 117.91C71.6925 118.236 71.4215 118.5 71.0871 118.5ZM73.4606 85.9037C73.4606 86.2293 73.7316 86.4933 74.066 86.4933C74.4003 86.4933 74.6714 86.2293 74.6714 85.9037C74.6714 85.578 74.4003 85.314 74.066 85.314C73.7316 85.314 73.4606 85.578 73.4606 85.9037ZM74.066 89.4062C73.7316 89.4062 73.4606 89.1423 73.4606 88.8166C73.4606 88.4909 73.7316 88.2269 74.066 88.2269C74.4003 88.2269 74.6714 88.4909 74.6714 88.8166C74.6714 89.1423 74.4003 89.4062 74.066 89.4062ZM73.4606 91.7296C73.4606 92.0553 73.7316 92.3193 74.066 92.3193C74.4003 92.3193 74.6714 92.0553 74.6714 91.7296C74.6714 91.4039 74.4003 91.1399 74.066 91.1399C73.7316 91.1399 73.4606 91.4039 73.4606 91.7296ZM74.066 95.2203C73.7316 95.2203 73.4606 94.9563 73.4606 94.6306C73.4606 94.305 73.7316 94.041 74.066 94.041C74.4003 94.041 74.6714 94.305 74.6714 94.6306C74.6714 94.9563 74.4003 95.2203 74.066 95.2203ZM73.4606 97.5434C73.4606 97.8691 73.7316 98.1331 74.066 98.1331C74.4003 98.1331 74.6714 97.8691 74.6714 97.5434C74.6714 97.2178 74.4003 96.9538 74.066 96.9538C73.7316 96.9538 73.4606 97.2178 73.4606 97.5434ZM74.066 103.947C73.7316 103.947 73.4606 103.683 73.4606 103.358C73.4606 103.032 73.7316 102.768 74.066 102.768C74.4003 102.768 74.6714 103.032 74.6714 103.358C74.6714 103.683 74.4003 103.947 74.066 103.947ZM73.4606 106.271C73.4606 106.596 73.7316 106.86 74.066 106.86C74.4003 106.86 74.6714 106.596 74.6714 106.271C74.6714 105.945 74.4003 105.681 74.066 105.681C73.7316 105.681 73.4606 105.945 73.4606 106.271ZM74.066 109.773C73.7316 109.773 73.4606 109.509 73.4606 109.183C73.4606 108.858 73.7316 108.594 74.066 108.594C74.4003 108.594 74.6714 108.858 74.6714 109.183C74.6714 109.509 74.4003 109.773 74.066 109.773ZM73.4606 112.085C73.4606 112.41 73.7316 112.674 74.066 112.674C74.4003 112.674 74.6714 112.41 74.6714 112.085C74.6714 111.759 74.4003 111.495 74.066 111.495C73.7316 111.495 73.4606 111.759 73.4606 112.085ZM74.066 115.587C73.7316 115.587 73.4606 115.323 73.4606 114.997C73.4606 114.672 73.7316 114.408 74.066 114.408C74.4003 114.408 74.6714 114.672 74.6714 114.997C74.6714 115.323 74.4003 115.587 74.066 115.587ZM73.4606 117.91C73.4606 118.236 73.7316 118.5 74.066 118.5C74.4003 118.5 74.6714 118.236 74.6714 117.91C74.6714 117.585 74.4003 117.321 74.066 117.321C73.7316 117.321 73.4606 117.585 73.4606 117.91ZM77.0566 83.5921C76.7222 83.5921 76.4512 83.3281 76.4512 83.0025C76.4512 82.6768 76.7222 82.4128 77.0566 82.4128C77.3909 82.4128 77.662 82.6768 77.662 83.0025C77.662 83.3281 77.3909 83.5921 77.0566 83.5921ZM76.4512 85.9037C76.4512 86.2293 76.7222 86.4933 77.0566 86.4933C77.3909 86.4933 77.662 86.2293 77.662 85.9037C77.662 85.578 77.3909 85.314 77.0566 85.314C76.7222 85.314 76.4512 85.578 76.4512 85.9037ZM77.0566 89.4062C76.7222 89.4062 76.4512 89.1423 76.4512 88.8166C76.4512 88.4909 76.7222 88.2269 77.0566 88.2269C77.3909 88.2269 77.662 88.4909 77.662 88.8166C77.662 89.1423 77.3909 89.4062 77.0566 89.4062ZM76.4512 91.7296C76.4512 92.0553 76.7222 92.3193 77.0566 92.3193C77.3909 92.3193 77.662 92.0553 77.662 91.7296C77.662 91.4039 77.3909 91.1399 77.0566 91.1399C76.7222 91.1399 76.4512 91.4039 76.4512 91.7296ZM77.0566 95.2203C76.7222 95.2203 76.4512 94.9563 76.4512 94.6306C76.4512 94.305 76.7222 94.041 77.0566 94.041C77.3909 94.041 77.662 94.305 77.662 94.6306C77.662 94.9563 77.3909 95.2203 77.0566 95.2203ZM76.4512 97.5434C76.4512 97.8691 76.7222 98.1331 77.0566 98.1331C77.3909 98.1331 77.662 97.8691 77.662 97.5434C77.662 97.2178 77.3909 96.9538 77.0566 96.9538C76.7222 96.9538 76.4512 97.2178 76.4512 97.5434ZM77.0566 101.046C76.7222 101.046 76.4512 100.782 76.4512 100.456C76.4512 100.131 76.7222 99.8668 77.0566 99.8668C77.3909 99.8668 77.662 100.131 77.662 100.456C77.662 100.782 77.3909 101.046 77.0566 101.046ZM76.4512 103.358C76.4512 103.683 76.7222 103.947 77.0566 103.947C77.3909 103.947 77.662 103.683 77.662 103.358C77.662 103.032 77.3909 102.768 77.0566 102.768C76.7222 102.768 76.4512 103.032 76.4512 103.358ZM77.0566 106.86C76.7222 106.86 76.4512 106.596 76.4512 106.271C76.4512 105.945 76.7222 105.681 77.0566 105.681C77.3909 105.681 77.662 105.945 77.662 106.271C77.662 106.596 77.3909 106.86 77.0566 106.86ZM76.4512 109.183C76.4512 109.509 76.7222 109.773 77.0566 109.773C77.3909 109.773 77.662 109.509 77.662 109.183C77.662 108.858 77.3909 108.594 77.0566 108.594C76.7222 108.594 76.4512 108.858 76.4512 109.183ZM77.0566 112.674C76.7222 112.674 76.4512 112.41 76.4512 112.085C76.4512 111.759 76.7222 111.495 77.0566 111.495C77.3909 111.495 77.662 111.759 77.662 112.085C77.662 112.41 77.3909 112.674 77.0566 112.674ZM76.4512 114.997C76.4512 115.323 76.7222 115.587 77.0566 115.587C77.3909 115.587 77.662 115.323 77.662 114.997C77.662 114.672 77.3909 114.408 77.0566 114.408C76.7222 114.408 76.4512 114.672 76.4512 114.997ZM77.0566 118.5C76.7222 118.5 76.4512 118.236 76.4512 117.91C76.4512 117.585 76.7222 117.321 77.0566 117.321C77.3909 117.321 77.662 117.585 77.662 117.91C77.662 118.236 77.3909 118.5 77.0566 118.5ZM80.0476 83.5921C79.7132 83.5921 79.4422 83.3281 79.4422 83.0025C79.4422 82.6768 79.7132 82.4128 80.0476 82.4128C80.3819 82.4128 80.653 82.6768 80.653 83.0025C80.653 83.3281 80.3819 83.5921 80.0476 83.5921ZM79.4422 85.9037C79.4422 86.2294 79.7132 86.4934 80.0476 86.4934C80.3819 86.4934 80.653 86.2294 80.653 85.9037C80.653 85.578 80.3819 85.314 80.0476 85.314C79.7132 85.314 79.4422 85.578 79.4422 85.9037ZM80.0476 89.4062C79.7132 89.4062 79.4422 89.1423 79.4422 88.8166C79.4422 88.4909 79.7132 88.2269 80.0476 88.2269C80.3819 88.2269 80.653 88.4909 80.653 88.8166C80.653 89.1423 80.3819 89.4062 80.0476 89.4062ZM79.4422 91.7296C79.4422 92.0553 79.7132 92.3193 80.0476 92.3193C80.3819 92.3193 80.653 92.0553 80.653 91.7296C80.653 91.4039 80.3819 91.1399 80.0476 91.1399C79.7132 91.1399 79.4422 91.4039 79.4422 91.7296ZM80.0476 95.2203C79.7132 95.2203 79.4422 94.9563 79.4422 94.6306C79.4422 94.305 79.7132 94.041 80.0476 94.041C80.3819 94.041 80.653 94.305 80.653 94.6306C80.653 94.9563 80.3819 95.2203 80.0476 95.2203ZM79.4422 97.5435C79.4422 97.8691 79.7132 98.1331 80.0476 98.1331C80.3819 98.1331 80.653 97.8691 80.653 97.5435C80.653 97.2178 80.3819 96.9538 80.0476 96.9538C79.7132 96.9538 79.4422 97.2178 79.4422 97.5435ZM80.0476 101.046C79.7132 101.046 79.4422 100.782 79.4422 100.456C79.4422 100.131 79.7132 99.8668 80.0476 99.8668C80.3819 99.8668 80.653 100.131 80.653 100.456C80.653 100.782 80.3819 101.046 80.0476 101.046ZM79.4422 103.358C79.4422 103.683 79.7132 103.947 80.0476 103.947C80.3819 103.947 80.653 103.683 80.653 103.358C80.653 103.032 80.3819 102.768 80.0476 102.768C79.7132 102.768 79.4422 103.032 79.4422 103.358ZM80.0476 106.86C79.7132 106.86 79.4422 106.596 79.4422 106.271C79.4422 105.945 79.7132 105.681 80.0476 105.681C80.3819 105.681 80.653 105.945 80.653 106.271C80.653 106.596 80.3819 106.86 80.0476 106.86ZM79.4422 109.183C79.4422 109.509 79.7132 109.773 80.0476 109.773C80.3819 109.773 80.653 109.509 80.653 109.183C80.653 108.858 80.3819 108.594 80.0476 108.594C79.7132 108.594 79.4422 108.858 79.4422 109.183ZM80.0476 112.674C79.7132 112.674 79.4422 112.41 79.4422 112.085C79.4422 111.759 79.7132 111.495 80.0476 111.495C80.3819 111.495 80.653 111.759 80.653 112.085C80.653 112.41 80.3819 112.674 80.0476 112.674ZM79.4422 114.997C79.4422 115.323 79.7132 115.587 80.0476 115.587C80.3819 115.587 80.653 115.323 80.653 114.997C80.653 114.672 80.3819 114.408 80.0476 114.408C79.7132 114.408 79.4422 114.672 79.4422 114.997ZM80.0476 118.5C79.7132 118.5 79.4422 118.236 79.4422 117.91C79.4422 117.585 79.7132 117.321 80.0476 117.321C80.3819 117.321 80.653 117.585 80.653 117.91C80.653 118.236 80.3819 118.5 80.0476 118.5ZM83.0262 83.5921C82.6919 83.5921 82.4208 83.3281 82.4208 83.0025C82.4208 82.6768 82.6919 82.4128 83.0262 82.4128C83.3605 82.4128 83.6316 82.6768 83.6316 83.0025C83.6316 83.3281 83.3605 83.5921 83.0262 83.5921ZM82.4208 85.9037C82.4208 86.2293 82.6919 86.4933 83.0262 86.4933C83.3605 86.4933 83.6316 86.2293 83.6316 85.9037C83.6316 85.578 83.3605 85.314 83.0262 85.314C82.6919 85.314 82.4208 85.578 82.4208 85.9037ZM83.0262 89.4062C82.6919 89.4062 82.4208 89.1423 82.4208 88.8166C82.4208 88.4909 82.6919 88.2269 83.0262 88.2269C83.3605 88.2269 83.6316 88.4909 83.6316 88.8166C83.6316 89.1423 83.3605 89.4062 83.0262 89.4062ZM82.4208 91.7296C82.4208 92.0553 82.6919 92.3193 83.0262 92.3193C83.3605 92.3193 83.6316 92.0553 83.6316 91.7296C83.6316 91.4039 83.3605 91.1399 83.0262 91.1399C82.6919 91.1399 82.4208 91.4039 82.4208 91.7296ZM83.0262 95.2203C82.6919 95.2203 82.4208 94.9563 82.4208 94.6306C82.4208 94.305 82.6919 94.041 83.0262 94.041C83.3605 94.041 83.6316 94.305 83.6316 94.6306C83.6316 94.9563 83.3605 95.2203 83.0262 95.2203ZM82.4208 97.5434C82.4208 97.8691 82.6919 98.1331 83.0262 98.1331C83.3605 98.1331 83.6316 97.8691 83.6316 97.5434C83.6316 97.2178 83.3605 96.9538 83.0262 96.9538C82.6919 96.9538 82.4208 97.2178 82.4208 97.5434ZM83.0262 101.046C82.6919 101.046 82.4208 100.782 82.4208 100.456C82.4208 100.131 82.6919 99.8668 83.0262 99.8668C83.3605 99.8668 83.6316 100.131 83.6316 100.456C83.6316 100.782 83.3605 101.046 83.0262 101.046ZM82.4208 103.358C82.4208 103.683 82.6919 103.947 83.0262 103.947C83.3605 103.947 83.6316 103.683 83.6316 103.358C83.6316 103.032 83.3605 102.768 83.0262 102.768C82.6919 102.768 82.4208 103.032 82.4208 103.358ZM83.0262 106.86C82.6919 106.86 82.4208 106.596 82.4208 106.271C82.4208 105.945 82.6919 105.681 83.0262 105.681C83.3605 105.681 83.6316 105.945 83.6316 106.271C83.6316 106.596 83.3605 106.86 83.0262 106.86ZM82.4208 109.183C82.4208 109.509 82.6919 109.773 83.0262 109.773C83.3605 109.773 83.6316 109.509 83.6316 109.183C83.6316 108.858 83.3605 108.594 83.0262 108.594C82.6919 108.594 82.4208 108.858 82.4208 109.183ZM83.0262 112.674C82.6919 112.674 82.4208 112.41 82.4208 112.085C82.4208 111.759 82.6919 111.495 83.0262 111.495C83.3605 111.495 83.6316 111.759 83.6316 112.085C83.6316 112.41 83.3605 112.674 83.0262 112.674ZM82.4208 114.997C82.4208 115.323 82.6919 115.587 83.0262 115.587C83.3605 115.587 83.6316 115.323 83.6316 114.997C83.6316 114.672 83.3605 114.408 83.0262 114.408C82.6919 114.408 82.4208 114.672 82.4208 114.997ZM83.0262 118.5C82.6919 118.5 82.4208 118.236 82.4208 117.91C82.4208 117.585 82.6919 117.321 83.0262 117.321C83.3605 117.321 83.6316 117.585 83.6316 117.91C83.6316 118.236 83.3605 118.5 83.0262 118.5ZM86.0163 83.5921C85.682 83.5921 85.4109 83.3281 85.4109 83.0025C85.4109 82.6768 85.682 82.4128 86.0163 82.4128C86.3507 82.4128 86.6217 82.6768 86.6217 83.0025C86.6217 83.3281 86.3507 83.5921 86.0163 83.5921ZM85.4109 85.9037C85.4109 86.2293 85.682 86.4933 86.0163 86.4933C86.3507 86.4933 86.6217 86.2293 86.6217 85.9037C86.6217 85.578 86.3507 85.314 86.0163 85.314C85.682 85.314 85.4109 85.578 85.4109 85.9037ZM86.0163 89.4062C85.682 89.4062 85.4109 89.1423 85.4109 88.8166C85.4109 88.4909 85.682 88.2269 86.0163 88.2269C86.3507 88.2269 86.6217 88.4909 86.6217 88.8166C86.6217 89.1423 86.3507 89.4062 86.0163 89.4062ZM85.4109 91.7296C85.4109 92.0553 85.682 92.3193 86.0163 92.3193C86.3507 92.3193 86.6217 92.0553 86.6217 91.7296C86.6217 91.4039 86.3507 91.1399 86.0163 91.1399C85.682 91.1399 85.4109 91.4039 85.4109 91.7296ZM86.0163 95.2203C85.682 95.2203 85.4109 94.9563 85.4109 94.6306C85.4109 94.305 85.682 94.041 86.0163 94.041C86.3507 94.041 86.6217 94.305 86.6217 94.6306C86.6217 94.9563 86.3507 95.2203 86.0163 95.2203ZM85.4109 97.5434C85.4109 97.8691 85.682 98.1331 86.0163 98.1331C86.3507 98.1331 86.6217 97.8691 86.6217 97.5434C86.6217 97.2178 86.3507 96.9538 86.0163 96.9538C85.682 96.9538 85.4109 97.2178 85.4109 97.5434ZM86.0163 101.046C85.682 101.046 85.4109 100.782 85.4109 100.456C85.4109 100.131 85.682 99.8668 86.0163 99.8668C86.3507 99.8668 86.6217 100.131 86.6217 100.456C86.6217 100.782 86.3507 101.046 86.0163 101.046ZM85.4109 103.358C85.4109 103.683 85.682 103.947 86.0163 103.947C86.3507 103.947 86.6217 103.683 86.6217 103.358C86.6217 103.032 86.3507 102.768 86.0163 102.768C85.682 102.768 85.4109 103.032 85.4109 103.358ZM86.0163 106.86C85.682 106.86 85.4109 106.596 85.4109 106.271C85.4109 105.945 85.682 105.681 86.0163 105.681C86.3507 105.681 86.6217 105.945 86.6217 106.271C86.6217 106.596 86.3507 106.86 86.0163 106.86ZM85.4109 109.183C85.4109 109.509 85.682 109.773 86.0163 109.773C86.3507 109.773 86.6217 109.509 86.6217 109.183C86.6217 108.858 86.3507 108.594 86.0163 108.594C85.682 108.594 85.4109 108.858 85.4109 109.183ZM86.0163 112.674C85.682 112.674 85.4109 112.41 85.4109 112.085C85.4109 111.759 85.682 111.495 86.0163 111.495C86.3507 111.495 86.6217 111.759 86.6217 112.085C86.6217 112.41 86.3507 112.674 86.0163 112.674ZM85.4109 114.997C85.4109 115.323 85.682 115.587 86.0163 115.587C86.3507 115.587 86.6217 115.323 86.6217 114.997C86.6217 114.672 86.3507 114.408 86.0163 114.408C85.682 114.408 85.4109 114.672 85.4109 114.997ZM86.0163 118.5C85.682 118.5 85.4109 118.236 85.4109 117.91C85.4109 117.585 85.682 117.321 86.0163 117.321C86.3507 117.321 86.6217 117.585 86.6217 117.91C86.6217 118.236 86.3507 118.5 86.0163 118.5ZM88.4014 83.0025C88.4014 83.3281 88.6724 83.5921 89.0068 83.5921C89.3411 83.5921 89.6122 83.3281 89.6122 83.0025C89.6122 82.6768 89.3411 82.4128 89.0068 82.4128C88.6724 82.4128 88.4014 82.6768 88.4014 83.0025ZM89.0068 86.4933C88.6724 86.4933 88.4014 86.2293 88.4014 85.9037C88.4014 85.578 88.6724 85.314 89.0068 85.314C89.3411 85.314 89.6122 85.578 89.6122 85.9037C89.6122 86.2293 89.3411 86.4933 89.0068 86.4933ZM88.4014 88.8166C88.4014 89.1423 88.6724 89.4062 89.0068 89.4062C89.3411 89.4062 89.6122 89.1423 89.6122 88.8166C89.6122 88.4909 89.3411 88.2269 89.0068 88.2269C88.6724 88.2269 88.4014 88.4909 88.4014 88.8166ZM89.0068 92.3193C88.6724 92.3193 88.4014 92.0553 88.4014 91.7296C88.4014 91.4039 88.6724 91.1399 89.0068 91.1399C89.3411 91.1399 89.6122 91.4039 89.6122 91.7296C89.6122 92.0553 89.3411 92.3193 89.0068 92.3193ZM88.4014 94.6306C88.4014 94.9563 88.6724 95.2203 89.0068 95.2203C89.3411 95.2203 89.6122 94.9563 89.6122 94.6306C89.6122 94.305 89.3411 94.041 89.0068 94.041C88.6724 94.041 88.4014 94.305 88.4014 94.6306ZM89.0068 98.1331C88.6724 98.1331 88.4014 97.8691 88.4014 97.5434C88.4014 97.2178 88.6724 96.9538 89.0068 96.9538C89.3411 96.9538 89.6122 97.2178 89.6122 97.5434C89.6122 97.8691 89.3411 98.1331 89.0068 98.1331ZM88.4014 100.456C88.4014 100.782 88.6724 101.046 89.0068 101.046C89.3411 101.046 89.6122 100.782 89.6122 100.456C89.6122 100.131 89.3411 99.8668 89.0068 99.8668C88.6724 99.8668 88.4014 100.131 88.4014 100.456ZM89.0068 103.947C88.6724 103.947 88.4014 103.683 88.4014 103.358C88.4014 103.032 88.6724 102.768 89.0068 102.768C89.3411 102.768 89.6122 103.032 89.6122 103.358C89.6122 103.683 89.3411 103.947 89.0068 103.947ZM88.4014 106.271C88.4014 106.596 88.6724 106.86 89.0068 106.86C89.3411 106.86 89.6122 106.596 89.6122 106.271C89.6122 105.945 89.3411 105.681 89.0068 105.681C88.6724 105.681 88.4014 105.945 88.4014 106.271ZM89.0068 109.773C88.6724 109.773 88.4014 109.509 88.4014 109.183C88.4014 108.858 88.6724 108.594 89.0068 108.594C89.3411 108.594 89.6122 108.858 89.6122 109.183C89.6122 109.509 89.3411 109.773 89.0068 109.773ZM88.4014 112.085C88.4014 112.41 88.6724 112.674 89.0068 112.674C89.3411 112.674 89.6122 112.41 89.6122 112.085C89.6122 111.759 89.3411 111.495 89.0068 111.495C88.6724 111.495 88.4014 111.759 88.4014 112.085ZM89.0068 115.587C88.6724 115.587 88.4014 115.323 88.4014 114.997C88.4014 114.672 88.6724 114.408 89.0068 114.408C89.3411 114.408 89.6122 114.672 89.6122 114.997C89.6122 115.323 89.3411 115.587 89.0068 115.587ZM88.4014 117.91C88.4014 118.236 88.6724 118.5 89.0068 118.5C89.3411 118.5 89.6122 118.236 89.6122 117.91C89.6122 117.585 89.3411 117.321 89.0068 117.321C88.6724 117.321 88.4014 117.585 88.4014 117.91ZM91.9858 86.4933C91.6514 86.4933 91.3804 86.2293 91.3804 85.9037C91.3804 85.578 91.6514 85.314 91.9858 85.314C92.3201 85.314 92.5912 85.578 92.5912 85.9037C92.5912 86.2293 92.3201 86.4933 91.9858 86.4933ZM91.3804 88.8166C91.3804 89.1423 91.6514 89.4062 91.9858 89.4062C92.3201 89.4062 92.5912 89.1423 92.5912 88.8166C92.5912 88.4909 92.3201 88.2269 91.9858 88.2269C91.6514 88.2269 91.3804 88.4909 91.3804 88.8166ZM91.9858 92.3193C91.6514 92.3193 91.3804 92.0553 91.3804 91.7296C91.3804 91.4039 91.6514 91.1399 91.9858 91.1399C92.3201 91.1399 92.5912 91.4039 92.5912 91.7296C92.5912 92.0553 92.3201 92.3193 91.9858 92.3193ZM91.3804 94.6306C91.3804 94.9563 91.6514 95.2203 91.9858 95.2203C92.3201 95.2203 92.5912 94.9563 92.5912 94.6306C92.5912 94.305 92.3201 94.041 91.9858 94.041C91.6514 94.041 91.3804 94.305 91.3804 94.6306ZM91.9858 103.947C91.6514 103.947 91.3804 103.683 91.3804 103.358C91.3804 103.032 91.6514 102.768 91.9858 102.768C92.3201 102.768 92.5912 103.032 92.5912 103.358C92.5912 103.683 92.3201 103.947 91.9858 103.947ZM91.3804 106.271C91.3804 106.596 91.6514 106.86 91.9858 106.86C92.3201 106.86 92.5912 106.596 92.5912 106.271C92.5912 105.945 92.3201 105.681 91.9858 105.681C91.6514 105.681 91.3804 105.945 91.3804 106.271ZM91.9858 109.773C91.6514 109.773 91.3804 109.509 91.3804 109.183C91.3804 108.858 91.6514 108.594 91.9858 108.594C92.3201 108.594 92.5912 108.858 92.5912 109.183C92.5912 109.509 92.3201 109.773 91.9858 109.773ZM91.3804 112.085C91.3804 112.41 91.6514 112.674 91.9858 112.674C92.3201 112.674 92.5912 112.41 92.5912 112.085C92.5912 111.759 92.3201 111.495 91.9858 111.495C91.6514 111.495 91.3804 111.759 91.3804 112.085ZM91.9858 115.587C91.6514 115.587 91.3804 115.323 91.3804 114.997C91.3804 114.672 91.6514 114.408 91.9858 114.408C92.3201 114.408 92.5912 114.672 92.5912 114.997C92.5912 115.323 92.3201 115.587 91.9858 115.587ZM91.3804 117.91C91.3804 118.236 91.6514 118.5 91.9858 118.5C92.3201 118.5 92.5912 118.236 92.5912 117.91C92.5912 117.585 92.3201 117.321 91.9858 117.321C91.6514 117.321 91.3804 117.585 91.3804 117.91ZM94.9764 103.947C94.642 103.947 94.371 103.683 94.371 103.358C94.371 103.032 94.642 102.768 94.9764 102.768C95.3107 102.768 95.5818 103.032 95.5818 103.358C95.5818 103.683 95.3107 103.947 94.9764 103.947ZM94.371 106.271C94.371 106.596 94.642 106.86 94.9764 106.86C95.3107 106.86 95.5818 106.596 95.5818 106.271C95.5818 105.945 95.3107 105.681 94.9764 105.681C94.642 105.681 94.371 105.945 94.371 106.271ZM94.9764 109.773C94.642 109.773 94.371 109.509 94.371 109.183C94.371 108.858 94.642 108.594 94.9764 108.594C95.3107 108.594 95.5818 108.858 95.5818 109.183C95.5818 109.509 95.3107 109.773 94.9764 109.773ZM94.371 112.085C94.371 112.41 94.642 112.674 94.9764 112.674C95.3107 112.674 95.5818 112.41 95.5818 112.085C95.5818 111.759 95.3107 111.495 94.9764 111.495C94.642 111.495 94.371 111.759 94.371 112.085ZM94.9764 115.587C94.642 115.587 94.371 115.323 94.371 114.997C94.371 114.672 94.642 114.408 94.9764 114.408C95.3107 114.408 95.5818 114.672 95.5818 114.997C95.5818 115.323 95.3107 115.587 94.9764 115.587ZM94.371 117.91C94.371 118.236 94.642 118.5 94.9764 118.5C95.3107 118.5 95.5818 118.236 95.5818 117.91C95.5818 117.585 95.3107 117.321 94.9764 117.321C94.642 117.321 94.371 117.585 94.371 117.91ZM97.9671 106.86C97.6328 106.86 97.3617 106.596 97.3617 106.271C97.3617 105.945 97.6328 105.681 97.9671 105.681C98.3015 105.681 98.5725 105.945 98.5725 106.271C98.5725 106.596 98.3015 106.86 97.9671 106.86ZM97.3617 109.183C97.3617 109.509 97.6328 109.773 97.9671 109.773C98.3015 109.773 98.5725 109.509 98.5725 109.183C98.5725 108.858 98.3015 108.594 97.9671 108.594C97.6328 108.594 97.3617 108.858 97.3617 109.183ZM97.9671 112.674C97.6328 112.674 97.3617 112.41 97.3617 112.085C97.3617 111.759 97.6328 111.495 97.9671 111.495C98.3015 111.495 98.5725 111.759 98.5725 112.085C98.5725 112.41 98.3015 112.674 97.9671 112.674ZM97.3617 114.997C97.3617 115.323 97.6328 115.587 97.9671 115.587C98.3015 115.587 98.5725 115.323 98.5725 114.997C98.5725 114.672 98.3015 114.408 97.9671 114.408C97.6328 114.408 97.3617 114.672 97.3617 114.997ZM97.9671 118.5C97.6328 118.5 97.3617 118.236 97.3617 117.91C97.3617 117.585 97.6328 117.321 97.9671 117.321C98.3015 117.321 98.5725 117.585 98.5725 117.91C98.5725 118.236 98.3015 118.5 97.9671 118.5ZM100.34 112.085C100.34 112.41 100.611 112.674 100.945 112.674C101.28 112.674 101.551 112.41 101.551 112.085C101.551 111.759 101.28 111.495 100.945 111.495C100.611 111.495 100.34 111.759 100.34 112.085ZM100.945 115.587C100.611 115.587 100.34 115.323 100.34 114.997C100.34 114.672 100.611 114.408 100.945 114.408C101.28 114.408 101.551 114.672 101.551 114.997C101.551 115.323 101.28 115.587 100.945 115.587ZM100.34 117.91C100.34 118.236 100.611 118.5 100.945 118.5C101.28 118.5 101.551 118.236 101.551 117.91C101.551 117.585 101.28 117.321 100.945 117.321C100.611 117.321 100.34 117.585 100.34 117.91Z" fill="#5E636E"/>
<path fill-rule="evenodd" clip-rule="evenodd" d="M79.9931 53.9999H68.507C64.1794 53.9999 60.75 57.5551 60.75 61.8507V65.2563C60.75 69.552 64.1794 73.104 68.507 73.104H76.5622L84.0207 77.2499L81.4848 72.9559C85.0571 72.2326 87.75 69.0139 87.75 65.2563V61.7027C87.75 57.407 84.3207 53.9999 79.9931 53.9999ZM25.5 102.75C20.1135 102.75 15.75 98.6598 15.75 93.6106V88.0877C15.75 83.0385 20.1135 78.75 25.5 78.75C30.8865 78.75 35.25 83.0385 35.25 88.0877V93.6106C35.25 98.6598 30.8865 102.75 25.5 102.75ZM25.5 102.75H19.9795C13.0906 102.75 7.5 108.936 7.5 116.558V119.25H43.5V116.558C43.5 108.936 37.9094 102.75 31.0205 102.75H25.5Z" fill="#F9A59F"/>
<path fill-rule="evenodd" clip-rule="evenodd" d="M82.5 63.3749C82.5 62.3401 81.6598 61.4999 80.625 61.4999C79.5902 61.4999 78.75 62.3401 78.75 63.3749C78.75 64.4097 79.5902 65.2499 80.625 65.2499C81.6598 65.2499 82.5 64.4097 82.5 63.3749ZM94.5 102.75C99.8865 102.75 104.25 98.6598 104.25 93.6106V88.0877C104.25 83.0385 99.8865 78.75 94.5 78.75C89.1135 78.75 84.75 83.0385 84.75 88.0877V93.6106C84.75 98.6598 89.1135 102.75 94.5 102.75ZM94.5 102.75H88.9795C82.0906 102.75 76.5 108.936 76.5 116.558V119.25H112.5V116.558C112.5 108.936 106.909 102.75 100.02 102.75H94.5ZM74.625 61.4999C75.6598 61.4999 76.5 62.3401 76.5 63.3749C76.5 64.4097 75.6598 65.2499 74.625 65.2499C73.5902 65.2499 72.75 64.4097 72.75 63.3749C72.75 62.3401 73.5902 61.4999 74.625 61.4999ZM70.5 63.3749C70.5 62.3401 69.6598 61.4999 68.625 61.4999C67.5902 61.4999 66.75 62.3401 66.75 63.3749C66.75 64.4097 67.5902 65.2499 68.625 65.2499C69.6598 65.2499 70.5 64.4097 70.5 63.3749Z" fill="#F9FAFA"/>
<path fill-rule="evenodd" clip-rule="evenodd" d="M61.5 61.8507C61.5 57.9555 64.6073 54.7499 68.507 54.7499H79.9931C83.9113 54.7499 87 57.8261 87 61.7027V65.2563C87 68.655 84.5605 71.5679 81.336 72.2208L80.3032 72.4299L81.9696 75.2517L76.7566 72.354H68.507C64.6069 72.354 61.5 69.1512 61.5 65.2563V61.8507ZM68.507 53.2499C63.7515 53.2499 60 57.1547 60 61.8507V65.2563C60 69.9527 63.7519 73.854 68.507 73.854H76.3678L86.0718 79.2481L82.6321 73.4237C86.0434 72.2804 88.5 69.0151 88.5 65.2563V61.7027C88.5 56.988 84.7301 53.2499 79.9931 53.2499H68.507ZM25.5 79.5C20.5026 79.5 16.5 83.4774 16.5 88.0877V93.6106C16.5 98.2006 20.4812 102 25.5 102C30.5188 102 34.5 98.2006 34.5 93.6106V88.0877C34.5 83.4774 30.4974 79.5 25.5 79.5ZM15 93.6106C15 97.1709 16.9825 100.26 19.9386 102C12.5852 102.024 6.75 108.61 6.75 116.558V120H44.25V116.558C44.25 108.61 38.4148 102.024 31.0614 102C34.0175 100.26 36 97.1709 36 93.6106V88.0877C36 82.5997 31.2757 78 25.5 78C19.7243 78 15 82.5997 15 88.0877V93.6106ZM31.0205 103.5H25.5H19.9795C13.5744 103.5 8.25 109.277 8.25 116.558V118.5H42.75V116.558C42.75 109.277 37.4256 103.5 31.0205 103.5ZM111.75 116.558C111.75 109.277 106.426 103.5 100.02 103.5H94.5H88.9795C82.5744 103.5 77.25 109.277 77.25 116.558V118.5H111.75V116.558ZM113.25 116.558C113.25 108.61 107.415 102.024 100.061 102C103.017 100.26 105 97.1709 105 93.6106V88.0877C105 82.5997 100.276 78 94.5 78C88.7243 78 84 82.5997 84 88.0877V93.6106C84 97.1709 85.9825 100.26 88.9386 102C81.5852 102.024 75.75 108.61 75.75 116.558V120H113.25V116.558ZM85.5 93.6106C85.5 98.2006 89.4812 102 94.5 102C99.5188 102 103.5 98.2006 103.5 93.6106V88.0877C103.5 83.4774 99.4974 79.5 94.5 79.5C89.5026 79.5 85.5 83.4774 85.5 88.0877V93.6106Z" fill="#5E636E"/>
</svg>
