<svg width="24" height="25" viewBox="0 0 24 25" fill="none" xmlns="http://www.w3.org/2000/svg">
    <path d="M14 8.33331L11.828 10.5958C11.0779 11.3769 10.0607 11.8158 9 11.8158C7.93934 11.8158 6.92211 11.3769 6.172 10.5958L6 10.4166L10.929 5.28227C12.2552 3.90117 14.0537 3.12531 15.929 3.12531C17.8043 3.12531 19.6028 3.90117 20.929 5.28227V5.28227C22.0427 6.44248 22.7528 7.95668 22.9468 9.58489C23.1408 11.2131 22.8076 12.8622 22 14.2708" stroke="#5E636E" stroke-miterlimit="10" stroke-linecap="round" stroke-linejoin="round"/>
    <path d="M15.2662 11.7354L18.8792 15.499C19.4416 16.085 19.7575 16.8797 19.7575 17.7083C19.7575 18.537 19.4416 19.3317 18.8792 19.9177L17.2432 21.6219C16.686 22.2024 16.0245 22.6628 15.2965 22.977C14.5685 23.2911 13.7882 23.4528 13.0002 23.4528C12.2122 23.4528 11.4319 23.2911 10.7038 22.977C9.97581 22.6628 9.31433 22.2024 8.75717 21.6219L3.07117 15.699C1.74532 14.3175 1.00049 12.444 1.00049 10.4906C1.00049 8.5372 1.74532 6.66375 3.07117 5.28229V5.28229C4.37841 3.91678 6.14894 3.14186 8.00017 3.125" stroke="#5E636E" stroke-miterlimit="10" stroke-linecap="round" stroke-linejoin="round"/>
    <path d="M18.391 20.426L14.5 16.374" stroke="#5E636E" stroke-miterlimit="10" stroke-linecap="round" stroke-linejoin="round"/>
    <path d="M15.5133 22.8802L11.8833 19.099" stroke="#5E636E" stroke-miterlimit="10" stroke-linecap="round" stroke-linejoin="round"/>
</svg>
