<svg width="185" height="132" viewBox="0 0 185 132" fill="none" xmlns="http://www.w3.org/2000/svg">
<path d="M152 95.1769L155 114.177" stroke="#10193C" stroke-width="2" stroke-linecap="round"/>
<path d="M154.5 114.677L151 95.1769C151 109.677 149 112.677 142 115.677L154.5 114.677Z" fill="#10193C"/>
<path d="M154 109.677C158.667 110.51 170 111.677 180 109.677" stroke="#10193C" stroke-width="2" stroke-linecap="round"/>
<path d="M120.782 60.2633C120.865 59.7173 120.489 59.2074 119.943 59.1245C119.397 59.0416 118.887 59.4171 118.804 59.9631L120.782 60.2633ZM87.5163 101.997C87.4169 102.54 87.7768 103.061 88.3201 103.161C88.8633 103.26 89.3843 102.9 89.4837 102.357L87.5163 101.997ZM118.339 69.6929L119.327 69.843L118.339 69.6929ZM118.804 59.9631L117.35 69.5428L119.327 69.843L120.782 60.2633L118.804 59.9631ZM116.526 70.379L102.955 72.6469L103.285 74.6196L116.856 72.3517L116.526 70.379ZM90.6724 84.7428L87.5163 101.997L89.4837 102.357L92.6398 85.1026L90.6724 84.7428ZM102.955 72.6469C96.7216 73.6886 91.8096 78.5258 90.6724 84.7428L92.6398 85.1026C93.6254 79.7146 97.8824 75.5224 103.285 74.6196L102.955 72.6469ZM117.35 69.5428C117.285 69.9704 116.953 70.3078 116.526 70.379L116.856 72.3517C118.136 72.1378 119.133 71.1257 119.327 69.843L117.35 69.5428Z" fill="#10193C"/>
<path d="M176.295 85.2646L177.277 85.0756L176.295 85.2646ZM182.941 119.799L181.959 119.988L182.941 119.799ZM127.5 129.5C126.948 129.5 126.5 129.948 126.5 130.5C126.5 131.052 126.948 131.5 127.5 131.5V129.5ZM169.997 74.8902C169.518 74.6158 168.907 74.7819 168.632 75.2612C168.358 75.7405 168.524 76.3515 169.003 76.6259L169.997 74.8902ZM175.313 85.4535L181.959 119.988L183.923 119.61L177.277 85.0756L175.313 85.4535ZM174.103 129.5H127.5V131.5H174.103V129.5ZM181.959 119.988C182.908 124.922 179.128 129.5 174.103 129.5V131.5C180.384 131.5 185.11 125.778 183.923 119.61L181.959 119.988ZM169.003 76.6259C172.223 78.4692 174.581 81.6506 175.313 85.4535L177.277 85.0756C176.432 80.6867 173.71 77.0162 169.997 74.8902L169.003 76.6259Z" fill="#10193C"/>
<path d="M108.069 30.5C108.069 29.9477 107.622 29.5 107.069 29.5C106.517 29.5 106.069 29.9478 106.069 30.5L108.069 30.5ZM107.069 32.8214L107.567 33.689C107.878 33.5107 108.069 33.1797 108.069 32.8214L107.069 32.8214ZM101.366 36.0913L100.869 35.2238C100.558 35.402 100.366 35.7329 100.366 36.0913L101.366 36.0913ZM104.314 41.3339C104.827 41.539 105.409 41.2896 105.614 40.7768C105.819 40.2641 105.569 39.6821 105.057 39.477L104.314 41.3339ZM106.069 30.5L106.069 32.8215L108.069 32.8214L108.069 30.5L106.069 30.5ZM106.572 31.9539L100.869 35.2238L101.863 36.9588L107.567 33.689L106.572 31.9539ZM100.366 36.0913C100.366 37.4119 101.207 40.091 104.314 41.3339L105.057 39.477C102.853 38.5956 102.366 36.7617 102.366 36.0913L100.366 36.0913Z" fill="#10193C"/>
<path d="M103.329 45.672C102.803 45.5046 102.24 45.7955 102.073 46.3218C101.906 46.8481 102.196 47.4105 102.723 47.5779L103.329 45.672ZM112.472 44.9658C112.791 44.5149 112.684 43.8908 112.233 43.5719C111.782 43.2529 111.158 43.3599 110.839 43.8108L112.472 44.9658ZM102.723 47.5779C103.801 47.921 105.535 48.1984 107.336 47.9457C109.152 47.6908 111.118 46.8802 112.472 44.9658L110.839 43.8108C109.892 45.1497 108.502 45.7625 107.058 45.9651C105.598 46.1699 104.168 45.9389 103.329 45.672L102.723 47.5779Z" fill="#10193C"/>
<path d="M102.256 21.7715C102.786 21.927 103.341 21.6234 103.497 21.0935C103.652 20.5635 103.349 20.0079 102.819 19.8524L102.256 21.7715ZM93.1312 22.6845C92.8225 23.1425 92.9436 23.764 93.4016 24.0726C93.8596 24.3813 94.481 24.2602 94.7897 23.8022L93.1312 22.6845ZM102.819 19.8524C101.733 19.5338 99.9928 19.2958 98.1985 19.5891C96.3883 19.8851 94.4417 20.7399 93.1312 22.6845L94.7897 23.8022C95.7062 22.4423 97.0825 21.7981 98.5212 21.5629C99.9758 21.3251 101.411 21.5237 102.256 21.7715L102.819 19.8524Z" fill="#10193C"/>
<path d="M113.329 21.7715C112.799 21.927 112.244 21.6234 112.088 21.0935C111.933 20.5635 112.236 20.0079 112.766 19.8524L113.329 21.7715ZM122.454 22.6845C122.762 23.1425 122.641 23.764 122.183 24.0726C121.725 24.3813 121.104 24.2602 120.795 23.8022L122.454 22.6845ZM112.766 19.8524C113.852 19.5338 115.592 19.2958 117.386 19.5891C119.197 19.8851 121.143 20.7399 122.454 22.6845L120.795 23.8022C119.879 22.4423 118.502 21.7981 117.064 21.5629C115.609 21.3251 114.174 21.5237 113.329 21.7715L112.766 19.8524Z" fill="#10193C"/>
<path d="M131.241 31.6584C131.175 32.2068 131.566 32.7047 132.115 32.7705C132.663 32.8363 133.161 32.4451 133.227 31.8967L131.241 31.6584ZM136.881 25.8013L136.881 24.8013L136.881 25.8013ZM132.92 38.0181C132.519 37.6389 131.886 37.657 131.507 38.0585C131.128 38.4601 131.146 39.093 131.547 39.4722L132.92 38.0181ZM133.227 31.8967C133.372 30.6823 133.891 29.3486 134.621 28.3377C135.373 27.2968 136.191 26.8011 136.88 26.8013L136.881 24.8013C135.247 24.8009 133.907 25.9103 133 27.1663C132.071 28.4522 131.427 30.107 131.241 31.6584L133.227 31.8967ZM136.88 26.8013C138.498 26.8017 140.257 27.0521 141.422 27.7731C141.98 28.118 142.369 28.5501 142.575 29.0966C142.783 29.6478 142.845 30.4224 142.553 31.5199L144.485 32.0352C144.856 30.6433 144.837 29.4263 144.446 28.3904C144.054 27.3497 143.326 26.599 142.475 26.0724C140.823 25.0501 138.599 24.8017 136.881 24.8013L136.88 26.8013ZM142.553 31.5199C141.905 33.9485 140.637 36.8867 138.928 38.5214C138.093 39.3199 137.228 39.7371 136.331 39.7369C135.433 39.7367 134.297 39.3185 132.92 38.0181L131.547 39.4722C133.157 40.9929 134.76 41.7366 136.331 41.7369C137.902 41.7372 139.237 40.9933 140.31 39.9669C142.417 37.9519 143.805 34.5852 144.485 32.0352L142.553 31.5199Z" fill="#10193C"/>
<path d="M104.699 4.22705C106.469 10.3121 120.616 26.797 134.889 26.797" stroke="#10193C" stroke-width="2"/>
<path d="M129.798 56.1831C130.29 55.9316 130.485 55.3292 130.233 54.8374C129.982 54.3457 129.379 54.151 128.888 54.4024L129.798 56.1831ZM101.5 58L102.015 57.1428L101.5 58ZM105.363 3.8951L105.775 4.80623L105.363 3.8951ZM144.196 12.5248L145.038 11.9848L144.196 12.5248ZM148.029 37.4694L147.056 37.2402L146.767 38.4694H148.029V37.4694ZM140.466 70.4423L139.474 70.5731L139.476 70.5842L139.478 70.5953L140.466 70.4423ZM137.539 40.6064C137.467 40.0588 136.964 39.6735 136.417 39.7457C135.869 39.818 135.484 40.3204 135.556 40.8679L137.539 40.6064ZM128.888 54.4024C125.503 56.1336 120.426 57.8474 115.331 58.5979C110.194 59.3546 105.268 59.0978 102.015 57.1428L100.985 58.8571C104.85 61.1797 110.36 61.3517 115.623 60.5765C120.927 59.7952 126.213 58.0165 129.798 56.1831L128.888 54.4024ZM102.015 57.1428C101.12 56.6053 100.204 55.5462 99.3385 53.9561C98.4811 52.3816 97.7172 50.3687 97.0836 48.037C95.8166 43.3749 95.0988 37.5438 95.1458 31.6409C95.1928 25.7344 96.0051 19.8165 97.7564 14.9633C99.5137 10.0932 102.16 6.44124 105.775 4.80623L104.951 2.98396C100.634 4.93628 97.7196 9.17273 95.8751 14.2845C94.0245 19.4131 93.194 25.5705 93.1458 31.625C93.0976 37.6831 93.8321 43.6988 95.1536 48.5615C95.8142 50.9923 96.6285 53.1614 97.582 54.9125C98.527 56.6479 99.6547 58.058 100.985 58.8571L102.015 57.1428ZM105.775 4.80623C112.449 1.78736 120.235 1.30452 127.184 2.87654C134.146 4.45127 140.141 8.05534 143.355 13.0648L145.038 11.9848C141.461 6.4091 134.935 2.57921 127.626 0.925822C120.304 -0.730285 112.068 -0.235397 104.951 2.98396L105.775 4.80623ZM143.355 13.0648C145.171 15.8959 146.548 20.0636 147.241 24.5094C147.932 28.9497 147.923 33.5566 147.056 37.2402L149.003 37.6985C149.945 33.6969 149.936 28.8187 149.217 24.2017C148.499 19.5901 147.055 15.1281 145.038 11.9848L143.355 13.0648ZM148.029 38.4694C152.099 38.4694 158.224 39.6788 163.302 43.2759C168.327 46.8362 172.39 52.7737 172.39 62.4219H174.39C174.39 52.1081 169.999 45.5693 164.458 41.6439C158.968 37.7552 152.413 36.4694 148.029 36.4694V38.4694ZM172.39 62.4219C172.39 68.4466 170.552 72.7766 167.848 75.6925C165.136 78.6175 161.481 80.1961 157.721 80.5826C150.092 81.3667 142.536 77.2822 141.454 70.2894L139.478 70.5953C140.784 79.0372 149.689 83.4187 157.926 82.5721C162.098 82.1432 166.227 80.3821 169.315 77.0524C172.411 73.7135 174.39 68.8734 174.39 62.4219H172.39ZM141.457 70.3116L137.539 40.6064L135.556 40.8679L139.474 70.5731L141.457 70.3116Z" fill="#10193C"/>
<path d="M120.285 59.6562L129.91 55.6732C127.587 61.9796 119.953 64.9668 119.953 64.9668L120.285 59.6562Z" fill="#10193C"/>
<path d="M138.133 31.4431C137.609 32.1167 136.73 33.6715 136.217 35.7579" stroke="#10193C" stroke-width="2" stroke-linecap="round"/>
<rect x="98.3789" y="25.8013" width="2.65529" height="5.31057" rx="1.32764" fill="#10193C"/>
<rect x="114.311" y="25.8013" width="2.65529" height="5.31057" rx="1.32764" fill="#10193C"/>
<path d="M113.092 24.9681C112.633 25.2744 112.509 25.8953 112.815 26.3548C113.121 26.8143 113.742 26.9385 114.202 26.6322L113.092 24.9681ZM117.075 26.6322C117.535 26.9385 118.156 26.8143 118.462 26.3548C118.768 25.8953 118.644 25.2744 118.185 24.9681L117.075 26.6322ZM113.647 25.8001C114.202 26.6322 114.201 26.6324 114.201 26.6327C114.201 26.6327 114.2 26.633 114.2 26.6331C114.2 26.6334 114.199 26.6337 114.199 26.6339C114.198 26.6344 114.198 26.6349 114.197 26.6352C114.196 26.636 114.195 26.6364 114.195 26.6365C114.195 26.6368 114.196 26.6359 114.199 26.634C114.205 26.6303 114.218 26.6225 114.237 26.6115C114.275 26.5896 114.337 26.5555 114.419 26.5163C114.586 26.4369 114.825 26.3415 115.109 26.2784C115.667 26.1542 116.365 26.1589 117.075 26.6322L118.185 24.9681C116.903 24.1137 115.609 24.1184 114.675 24.3261C114.212 24.429 113.828 24.5824 113.559 24.7106C113.424 24.775 113.315 24.8343 113.236 24.8798C113.197 24.9026 113.165 24.922 113.141 24.937C113.129 24.9445 113.118 24.951 113.11 24.9562C113.106 24.9588 113.103 24.9611 113.1 24.9631C113.098 24.9641 113.097 24.965 113.096 24.9658C113.095 24.9662 113.094 24.9666 113.094 24.967C113.094 24.9672 113.093 24.9675 113.093 24.9676C113.093 24.9678 113.092 24.9681 113.647 25.8001Z" fill="#10193C"/>
<path d="M97.3214 24.8819C96.8138 25.0994 96.5786 25.6873 96.7962 26.195C97.0137 26.7026 97.6016 26.9377 98.1093 26.7202L97.3214 24.8819ZM101.184 26.6585C101.657 26.9427 102.272 26.7891 102.556 26.3155C102.84 25.842 102.686 25.2277 102.213 24.9435L101.184 26.6585ZM97.7153 25.801C98.1093 26.7202 98.109 26.7203 98.1087 26.7204C98.1086 26.7204 98.1084 26.7206 98.1082 26.7206C98.1079 26.7207 98.1077 26.7209 98.1074 26.721C98.107 26.7212 98.1066 26.7213 98.1064 26.7214C98.106 26.7216 98.1062 26.7215 98.1068 26.7212C98.1081 26.7207 98.1115 26.7193 98.1169 26.7171C98.1278 26.7127 98.1465 26.7052 98.1725 26.6954C98.2246 26.6757 98.3051 26.6466 98.4083 26.6137C98.6165 26.5472 98.9082 26.4679 99.2404 26.4154C99.9364 26.3055 100.65 26.3383 101.184 26.6585L102.213 24.9435C101.087 24.2681 99.8091 24.3008 98.9285 24.4399C98.4725 24.5119 98.0796 24.6192 97.8002 24.7084C97.6597 24.7532 97.5457 24.7942 97.4643 24.825C97.4235 24.8404 97.3908 24.8534 97.3667 24.8631C97.3547 24.868 97.3449 24.872 97.3373 24.8752C97.3335 24.8768 97.3303 24.8781 97.3276 24.8793C97.3263 24.8798 97.3251 24.8803 97.3241 24.8808C97.3236 24.881 97.3231 24.8812 97.3226 24.8814C97.3224 24.8815 97.3221 24.8816 97.322 24.8816C97.3217 24.8818 97.3214 24.8819 97.7153 25.801Z" fill="#10193C"/>
<path d="M1.73483 75.3043C1.34911 72.8754 3.22597 70.6769 5.68533 70.6769H79.5851C81.552 70.6769 83.2271 72.107 83.5356 74.0496L92.5 130.5H13.9149C11.948 130.5 10.2729 129.07 9.96442 127.127L1.73483 75.3043Z" stroke="#10193C" stroke-width="2" stroke-linecap="round" stroke-linejoin="round"/>
<path d="M91.6055 124.5H130C131.657 124.5 133 125.843 133 127.5V127.5C133 129.157 131.657 130.5 130 130.5H92.5004L91.6055 124.5Z" stroke="#10193C" stroke-width="2" stroke-linecap="round" stroke-linejoin="round"/>
<path d="M98.5 124.177L109.5 120.177L155 115.177L160 116.677" stroke="#10193C" stroke-width="2" stroke-linecap="round"/>
<path d="M114.5 72.1769C113.167 77.6769 115 87.2769 127 85.6769C135.724 84.5137 139.956 79.4921 142 75.4923" stroke="#10193C" stroke-width="2" stroke-linecap="round"/>
</svg>
