<svg width="108" height="32" viewBox="0 0 108 32" fill="none" xmlns="http://www.w3.org/2000/svg">
<path fill-rule="evenodd" clip-rule="evenodd" d="M12.4587 4.14683L8.32765 15.4176H16.5896L12.4587 4.14683ZM19.4117 23.6396L17.725 19.0679H7.19211L5.50409 23.6396H0.927002L9.94596 0.000183105H14.9713L23.9903 23.6396H19.4117Z" fill="#1D2748"/>
<path fill-rule="evenodd" clip-rule="evenodd" d="M30.7416 23.6394L21.7227 0H26.3005L33.2543 19.1033L40.2074 0H44.7859L35.7678 23.6394H30.7416Z" fill="#1D2748"/>
<path fill-rule="evenodd" clip-rule="evenodd" d="M54.0502 4.14683L49.9192 15.4176H58.1813L54.0502 4.14683ZM61.0033 23.6396L59.3167 19.0679H48.7838L47.0956 23.6396H42.5186L51.5376 0.000183105H56.5629L65.5818 23.6396H61.0033Z" fill="#1D2748"/>
<path fill-rule="evenodd" clip-rule="evenodd" d="M83.4167 23.6394L71.4375 6.73393V23.6394H67.4094V0H71.5403L83.2793 16.3735V0H87.3066V23.6394H83.4167Z" fill="#1D2748"/>
<path fill-rule="evenodd" clip-rule="evenodd" d="M97.019 23.6394V3.65033H90.0652V0H108V3.65033H101.046V23.6394H97.019Z" fill="#1D2748"/>
<path fill-rule="evenodd" clip-rule="evenodd" d="M0 32H24.6776V28.356H0V32Z" fill="#D9332C"/>
</svg>
