<svg width="120" height="120" viewBox="0 0 120 120" fill="none" xmlns="http://www.w3.org/2000/svg">
<path d="M88.5 48.6595C88.9142 48.6595 89.25 48.3232 89.25 47.9083C89.25 47.4934 88.9142 47.157 88.5 47.157C88.0858 47.157 87.75 47.4934 87.75 47.9083C87.75 48.3232 88.0858 48.6595 88.5 48.6595Z" fill="#5E636E"/>
<path d="M88.5 52.3705C88.9142 52.3705 89.25 52.0342 89.25 51.6193C89.25 51.2044 88.9142 50.8681 88.5 50.8681C88.0858 50.8681 87.75 51.2044 87.75 51.6193C87.75 52.0342 88.0858 52.3705 88.5 52.3705Z" fill="#5E636E"/>
<path d="M88.5 56.0816C88.9142 56.0816 89.25 55.7453 89.25 55.3304C89.25 54.9155 88.9142 54.5792 88.5 54.5792C88.0858 54.5792 87.75 54.9155 87.75 55.3304C87.75 55.7453 88.0858 56.0816 88.5 56.0816Z" fill="#5E636E"/>
<path d="M88.5 59.7776C88.9142 59.7776 89.25 59.4413 89.25 59.0264C89.25 58.6115 88.9142 58.2752 88.5 58.2752C88.0858 58.2752 87.75 58.6115 87.75 59.0264C87.75 59.4413 88.0858 59.7776 88.5 59.7776Z" fill="#5E636E"/>
<path d="M88.5 63.4886C88.9142 63.4886 89.25 63.1523 89.25 62.7374C89.25 62.3225 88.9142 61.9862 88.5 61.9862C88.0858 61.9862 87.75 62.3225 87.75 62.7374C87.75 63.1523 88.0858 63.4886 88.5 63.4886Z" fill="#5E636E"/>
<path d="M88.5 67.1997C88.9142 67.1997 89.25 66.8634 89.25 66.4485C89.25 66.0336 88.9142 65.6973 88.5 65.6973C88.0858 65.6973 87.75 66.0336 87.75 66.4485C87.75 66.8634 88.0858 67.1997 88.5 67.1997Z" fill="#5E636E"/>
<path d="M88.5 70.8957C88.9142 70.8957 89.25 70.5594 89.25 70.1445C89.25 69.7296 88.9142 69.3932 88.5 69.3932C88.0858 69.3932 87.75 69.7296 87.75 70.1445C87.75 70.5594 88.0858 70.8957 88.5 70.8957Z" fill="#5E636E"/>
<path d="M88.5 74.6067C88.9142 74.6067 89.25 74.2704 89.25 73.8555C89.25 73.4406 88.9142 73.1042 88.5 73.1042C88.0858 73.1042 87.75 73.4406 87.75 73.8555C87.75 74.2704 88.0858 74.6067 88.5 74.6067Z" fill="#5E636E"/>
<path d="M88.5 78.3178C88.9142 78.3178 89.25 77.9815 89.25 77.5666C89.25 77.1517 88.9142 76.8154 88.5 76.8154C88.0858 76.8154 87.75 77.1517 87.75 77.5666C87.75 77.9815 88.0858 78.3178 88.5 78.3178Z" fill="#5E636E"/>
<path d="M88.5 82.0137C88.9142 82.0137 89.25 81.6774 89.25 81.2625C89.25 80.8476 88.9142 80.5113 88.5 80.5113C88.0858 80.5113 87.75 80.8476 87.75 81.2625C87.75 81.6774 88.0858 82.0137 88.5 82.0137Z" fill="#5E636E"/>
<path d="M88.5 85.7248C88.9142 85.7248 89.25 85.3885 89.25 84.9736C89.25 84.5587 88.9142 84.2224 88.5 84.2224C88.0858 84.2224 87.75 84.5587 87.75 84.9736C87.75 85.3885 88.0858 85.7248 88.5 85.7248Z" fill="#5E636E"/>
<path d="M88.5 89.4359C88.9142 89.4359 89.25 89.0996 89.25 88.6847C89.25 88.2698 88.9142 87.9335 88.5 87.9335C88.0858 87.9335 87.75 88.2698 87.75 88.6847C87.75 89.0996 88.0858 89.4359 88.5 89.4359Z" fill="#5E636E"/>
<path d="M88.5 93.1319C88.9142 93.1319 89.25 92.7956 89.25 92.3807C89.25 91.9658 88.9142 91.6295 88.5 91.6295C88.0858 91.6295 87.75 91.9658 87.75 92.3807C87.75 92.7956 88.0858 93.1319 88.5 93.1319Z" fill="#5E636E"/>
<path d="M88.5 96.843C88.9142 96.843 89.25 96.5066 89.25 96.0917C89.25 95.6768 88.9142 95.3405 88.5 95.3405C88.0858 95.3405 87.75 95.6768 87.75 96.0917C87.75 96.5066 88.0858 96.843 88.5 96.843Z" fill="#5E636E"/>
<path d="M88.5 100.554C88.9142 100.554 89.25 100.218 89.25 99.8028C89.25 99.3879 88.9142 99.0516 88.5 99.0516C88.0858 99.0516 87.75 99.3879 87.75 99.8028C87.75 100.218 88.0858 100.554 88.5 100.554Z" fill="#5E636E"/>
<path d="M88.5 104.25C88.9142 104.25 89.25 103.914 89.25 103.499C89.25 103.084 88.9142 102.748 88.5 102.748C88.0858 102.748 87.75 103.084 87.75 103.499C87.75 103.914 88.0858 104.25 88.5 104.25Z" fill="#5E636E"/>
<path d="M84.7949 44.9635C85.2091 44.9635 85.5449 44.6271 85.5449 44.2122C85.5449 43.7974 85.2091 43.461 84.7949 43.461C84.3807 43.461 84.0449 43.7974 84.0449 44.2122C84.0449 44.6271 84.3807 44.9635 84.7949 44.9635Z" fill="#5E636E"/>
<path d="M84.7949 48.6595C85.2091 48.6595 85.5449 48.3232 85.5449 47.9083C85.5449 47.4934 85.2091 47.157 84.7949 47.157C84.3807 47.157 84.0449 47.4934 84.0449 47.9083C84.0449 48.3232 84.3807 48.6595 84.7949 48.6595Z" fill="#5E636E"/>
<path d="M84.7949 52.3705C85.2091 52.3705 85.5449 52.0342 85.5449 51.6193C85.5449 51.2044 85.2091 50.8681 84.7949 50.8681C84.3807 50.8681 84.0449 51.2044 84.0449 51.6193C84.0449 52.0342 84.3807 52.3705 84.7949 52.3705Z" fill="#5E636E"/>
<path d="M84.7949 56.0816C85.2091 56.0816 85.5449 55.7453 85.5449 55.3304C85.5449 54.9155 85.2091 54.5792 84.7949 54.5792C84.3807 54.5792 84.0449 54.9155 84.0449 55.3304C84.0449 55.7453 84.3807 56.0816 84.7949 56.0816Z" fill="#5E636E"/>
<path d="M84.7949 59.7776C85.2091 59.7776 85.5449 59.4413 85.5449 59.0264C85.5449 58.6115 85.2091 58.2752 84.7949 58.2752C84.3807 58.2752 84.0449 58.6115 84.0449 59.0264C84.0449 59.4413 84.3807 59.7776 84.7949 59.7776Z" fill="#5E636E"/>
<path d="M84.7949 63.4886C85.2091 63.4886 85.5449 63.1523 85.5449 62.7374C85.5449 62.3225 85.2091 61.9862 84.7949 61.9862C84.3807 61.9862 84.0449 62.3225 84.0449 62.7374C84.0449 63.1523 84.3807 63.4886 84.7949 63.4886Z" fill="#5E636E"/>
<path d="M84.7949 67.1997C85.2091 67.1997 85.5449 66.8634 85.5449 66.4485C85.5449 66.0336 85.2091 65.6973 84.7949 65.6973C84.3807 65.6973 84.0449 66.0336 84.0449 66.4485C84.0449 66.8634 84.3807 67.1997 84.7949 67.1997Z" fill="#5E636E"/>
<path d="M84.7949 70.8957C85.2091 70.8957 85.5449 70.5594 85.5449 70.1445C85.5449 69.7296 85.2091 69.3932 84.7949 69.3932C84.3807 69.3932 84.0449 69.7296 84.0449 70.1445C84.0449 70.5594 84.3807 70.8957 84.7949 70.8957Z" fill="#5E636E"/>
<path d="M84.7949 74.6067C85.2091 74.6067 85.5449 74.2704 85.5449 73.8555C85.5449 73.4406 85.2091 73.1042 84.7949 73.1042C84.3807 73.1042 84.0449 73.4406 84.0449 73.8555C84.0449 74.2704 84.3807 74.6067 84.7949 74.6067Z" fill="#5E636E"/>
<path d="M84.7949 78.3178C85.2091 78.3178 85.5449 77.9815 85.5449 77.5666C85.5449 77.1517 85.2091 76.8154 84.7949 76.8154C84.3807 76.8154 84.0449 77.1517 84.0449 77.5666C84.0449 77.9815 84.3807 78.3178 84.7949 78.3178Z" fill="#5E636E"/>
<path d="M84.7949 82.0137C85.2091 82.0137 85.5449 81.6774 85.5449 81.2625C85.5449 80.8476 85.2091 80.5113 84.7949 80.5113C84.3807 80.5113 84.0449 80.8476 84.0449 81.2625C84.0449 81.6774 84.3807 82.0137 84.7949 82.0137Z" fill="#5E636E"/>
<path d="M84.7949 85.7248C85.2091 85.7248 85.5449 85.3885 85.5449 84.9736C85.5449 84.5587 85.2091 84.2224 84.7949 84.2224C84.3807 84.2224 84.0449 84.5587 84.0449 84.9736C84.0449 85.3885 84.3807 85.7248 84.7949 85.7248Z" fill="#5E636E"/>
<path d="M84.7949 89.4359C85.2091 89.4359 85.5449 89.0996 85.5449 88.6847C85.5449 88.2698 85.2091 87.9335 84.7949 87.9335C84.3807 87.9335 84.0449 88.2698 84.0449 88.6847C84.0449 89.0996 84.3807 89.4359 84.7949 89.4359Z" fill="#5E636E"/>
<path d="M84.7949 93.1319C85.2091 93.1319 85.5449 92.7956 85.5449 92.3807C85.5449 91.9658 85.2091 91.6295 84.7949 91.6295C84.3807 91.6295 84.0449 91.9658 84.0449 92.3807C84.0449 92.7956 84.3807 93.1319 84.7949 93.1319Z" fill="#5E636E"/>
<path d="M84.7949 96.843C85.2091 96.843 85.5449 96.5066 85.5449 96.0917C85.5449 95.6768 85.2091 95.3405 84.7949 95.3405C84.3807 95.3405 84.0449 95.6768 84.0449 96.0917C84.0449 96.5066 84.3807 96.843 84.7949 96.843Z" fill="#5E636E"/>
<path d="M84.7949 100.554C85.2091 100.554 85.5449 100.218 85.5449 99.8028C85.5449 99.3879 85.2091 99.0516 84.7949 99.0516C84.3807 99.0516 84.0449 99.3879 84.0449 99.8028C84.0449 100.218 84.3807 100.554 84.7949 100.554Z" fill="#5E636E"/>
<path d="M84.7949 104.25C85.2091 104.25 85.5449 103.914 85.5449 103.499C85.5449 103.084 85.2091 102.748 84.7949 102.748C84.3807 102.748 84.0449 103.084 84.0449 103.499C84.0449 103.914 84.3807 104.25 84.7949 104.25Z" fill="#5E636E"/>
<path d="M81.1055 44.9635C81.5197 44.9635 81.8555 44.6271 81.8555 44.2122C81.8555 43.7974 81.5197 43.461 81.1055 43.461C80.6913 43.461 80.3555 43.7974 80.3555 44.2122C80.3555 44.6271 80.6913 44.9635 81.1055 44.9635Z" fill="#5E636E"/>
<path d="M81.1055 48.6595C81.5197 48.6595 81.8555 48.3232 81.8555 47.9083C81.8555 47.4934 81.5197 47.157 81.1055 47.157C80.6913 47.157 80.3555 47.4934 80.3555 47.9083C80.3555 48.3232 80.6913 48.6595 81.1055 48.6595Z" fill="#5E636E"/>
<path d="M81.1055 52.3705C81.5197 52.3705 81.8555 52.0342 81.8555 51.6193C81.8555 51.2044 81.5197 50.8681 81.1055 50.8681C80.6913 50.8681 80.3555 51.2044 80.3555 51.6193C80.3555 52.0342 80.6913 52.3705 81.1055 52.3705Z" fill="#5E636E"/>
<path d="M81.1055 56.0816C81.5197 56.0816 81.8555 55.7453 81.8555 55.3304C81.8555 54.9155 81.5197 54.5792 81.1055 54.5792C80.6913 54.5792 80.3555 54.9155 80.3555 55.3304C80.3555 55.7453 80.6913 56.0816 81.1055 56.0816Z" fill="#5E636E"/>
<path d="M81.1055 59.7776C81.5197 59.7776 81.8555 59.4413 81.8555 59.0264C81.8555 58.6115 81.5197 58.2752 81.1055 58.2752C80.6913 58.2752 80.3555 58.6115 80.3555 59.0264C80.3555 59.4413 80.6913 59.7776 81.1055 59.7776Z" fill="#5E636E"/>
<path d="M81.1055 63.4886C81.5197 63.4886 81.8555 63.1523 81.8555 62.7374C81.8555 62.3225 81.5197 61.9862 81.1055 61.9862C80.6913 61.9862 80.3555 62.3225 80.3555 62.7374C80.3555 63.1523 80.6913 63.4886 81.1055 63.4886Z" fill="#5E636E"/>
<path d="M81.1055 67.1997C81.5197 67.1997 81.8555 66.8634 81.8555 66.4485C81.8555 66.0336 81.5197 65.6973 81.1055 65.6973C80.6913 65.6973 80.3555 66.0336 80.3555 66.4485C80.3555 66.8634 80.6913 67.1997 81.1055 67.1997Z" fill="#5E636E"/>
<path d="M81.1055 70.8957C81.5197 70.8957 81.8555 70.5594 81.8555 70.1445C81.8555 69.7296 81.5197 69.3932 81.1055 69.3932C80.6913 69.3932 80.3555 69.7296 80.3555 70.1445C80.3555 70.5594 80.6913 70.8957 81.1055 70.8957Z" fill="#5E636E"/>
<path d="M81.1055 74.6067C81.5197 74.6067 81.8555 74.2704 81.8555 73.8555C81.8555 73.4406 81.5197 73.1042 81.1055 73.1042C80.6913 73.1042 80.3555 73.4406 80.3555 73.8555C80.3555 74.2704 80.6913 74.6067 81.1055 74.6067Z" fill="#5E636E"/>
<path d="M81.1055 78.3178C81.5197 78.3178 81.8555 77.9815 81.8555 77.5666C81.8555 77.1517 81.5197 76.8154 81.1055 76.8154C80.6913 76.8154 80.3555 77.1517 80.3555 77.5666C80.3555 77.9815 80.6913 78.3178 81.1055 78.3178Z" fill="#5E636E"/>
<path d="M81.1055 82.0137C81.5197 82.0137 81.8555 81.6774 81.8555 81.2625C81.8555 80.8476 81.5197 80.5113 81.1055 80.5113C80.6913 80.5113 80.3555 80.8476 80.3555 81.2625C80.3555 81.6774 80.6913 82.0137 81.1055 82.0137Z" fill="#5E636E"/>
<path d="M81.1055 85.7248C81.5197 85.7248 81.8555 85.3885 81.8555 84.9736C81.8555 84.5587 81.5197 84.2224 81.1055 84.2224C80.6913 84.2224 80.3555 84.5587 80.3555 84.9736C80.3555 85.3885 80.6913 85.7248 81.1055 85.7248Z" fill="#5E636E"/>
<path d="M81.1055 89.4359C81.5197 89.4359 81.8555 89.0996 81.8555 88.6847C81.8555 88.2698 81.5197 87.9335 81.1055 87.9335C80.6913 87.9335 80.3555 88.2698 80.3555 88.6847C80.3555 89.0996 80.6913 89.4359 81.1055 89.4359Z" fill="#5E636E"/>
<path d="M81.1055 93.1319C81.5197 93.1319 81.8555 92.7956 81.8555 92.3807C81.8555 91.9658 81.5197 91.6295 81.1055 91.6295C80.6913 91.6295 80.3555 91.9658 80.3555 92.3807C80.3555 92.7956 80.6913 93.1319 81.1055 93.1319Z" fill="#5E636E"/>
<path d="M81.1055 96.843C81.5197 96.843 81.8555 96.5066 81.8555 96.0917C81.8555 95.6768 81.5197 95.3405 81.1055 95.3405C80.6913 95.3405 80.3555 95.6768 80.3555 96.0917C80.3555 96.5066 80.6913 96.843 81.1055 96.843Z" fill="#5E636E"/>
<path d="M81.1055 100.554C81.5197 100.554 81.8555 100.218 81.8555 99.8028C81.8555 99.3879 81.5197 99.0516 81.1055 99.0516C80.6913 99.0516 80.3555 99.3879 80.3555 99.8028C80.3555 100.218 80.6913 100.554 81.1055 100.554Z" fill="#5E636E"/>
<path d="M81.1055 104.25C81.5197 104.25 81.8555 103.914 81.8555 103.499C81.8555 103.084 81.5197 102.748 81.1055 102.748C80.6913 102.748 80.3555 103.084 80.3555 103.499C80.3555 103.914 80.6913 104.25 81.1055 104.25Z" fill="#5E636E"/>
<path d="M77.4004 41.2524C77.8146 41.2524 78.1504 40.9161 78.1504 40.5012C78.1504 40.0863 77.8146 39.75 77.4004 39.75C76.9862 39.75 76.6504 40.0863 76.6504 40.5012C76.6504 40.9161 76.9862 41.2524 77.4004 41.2524Z" fill="#5E636E"/>
<path d="M77.4004 44.9635C77.8146 44.9635 78.1504 44.6271 78.1504 44.2122C78.1504 43.7974 77.8146 43.461 77.4004 43.461C76.9862 43.461 76.6504 43.7974 76.6504 44.2122C76.6504 44.6271 76.9862 44.9635 77.4004 44.9635Z" fill="#5E636E"/>
<path d="M77.4004 48.6595C77.8146 48.6595 78.1504 48.3232 78.1504 47.9083C78.1504 47.4934 77.8146 47.157 77.4004 47.157C76.9862 47.157 76.6504 47.4934 76.6504 47.9083C76.6504 48.3232 76.9862 48.6595 77.4004 48.6595Z" fill="#5E636E"/>
<path d="M77.4004 52.3705C77.8146 52.3705 78.1504 52.0342 78.1504 51.6193C78.1504 51.2044 77.8146 50.8681 77.4004 50.8681C76.9862 50.8681 76.6504 51.2044 76.6504 51.6193C76.6504 52.0342 76.9862 52.3705 77.4004 52.3705Z" fill="#5E636E"/>
<path d="M77.4004 56.0816C77.8146 56.0816 78.1504 55.7453 78.1504 55.3304C78.1504 54.9155 77.8146 54.5792 77.4004 54.5792C76.9862 54.5792 76.6504 54.9155 76.6504 55.3304C76.6504 55.7453 76.9862 56.0816 77.4004 56.0816Z" fill="#5E636E"/>
<path d="M77.4004 59.7776C77.8146 59.7776 78.1504 59.4413 78.1504 59.0264C78.1504 58.6115 77.8146 58.2752 77.4004 58.2752C76.9862 58.2752 76.6504 58.6115 76.6504 59.0264C76.6504 59.4413 76.9862 59.7776 77.4004 59.7776Z" fill="#5E636E"/>
<path d="M77.4004 63.4886C77.8146 63.4886 78.1504 63.1523 78.1504 62.7374C78.1504 62.3225 77.8146 61.9862 77.4004 61.9862C76.9862 61.9862 76.6504 62.3225 76.6504 62.7374C76.6504 63.1523 76.9862 63.4886 77.4004 63.4886Z" fill="#5E636E"/>
<path d="M77.4004 67.1997C77.8146 67.1997 78.1504 66.8634 78.1504 66.4485C78.1504 66.0336 77.8146 65.6973 77.4004 65.6973C76.9862 65.6973 76.6504 66.0336 76.6504 66.4485C76.6504 66.8634 76.9862 67.1997 77.4004 67.1997Z" fill="#5E636E"/>
<path d="M77.4004 70.8957C77.8146 70.8957 78.1504 70.5594 78.1504 70.1445C78.1504 69.7296 77.8146 69.3932 77.4004 69.3932C76.9862 69.3932 76.6504 69.7296 76.6504 70.1445C76.6504 70.5594 76.9862 70.8957 77.4004 70.8957Z" fill="#5E636E"/>
<path d="M77.4004 74.6067C77.8146 74.6067 78.1504 74.2704 78.1504 73.8555C78.1504 73.4406 77.8146 73.1042 77.4004 73.1042C76.9862 73.1042 76.6504 73.4406 76.6504 73.8555C76.6504 74.2704 76.9862 74.6067 77.4004 74.6067Z" fill="#5E636E"/>
<path d="M77.4004 78.3178C77.8146 78.3178 78.1504 77.9815 78.1504 77.5666C78.1504 77.1517 77.8146 76.8154 77.4004 76.8154C76.9862 76.8154 76.6504 77.1517 76.6504 77.5666C76.6504 77.9815 76.9862 78.3178 77.4004 78.3178Z" fill="#5E636E"/>
<path d="M77.4004 82.0137C77.8146 82.0137 78.1504 81.6774 78.1504 81.2625C78.1504 80.8476 77.8146 80.5113 77.4004 80.5113C76.9862 80.5113 76.6504 80.8476 76.6504 81.2625C76.6504 81.6774 76.9862 82.0137 77.4004 82.0137Z" fill="#5E636E"/>
<path d="M77.4004 85.7248C77.8146 85.7248 78.1504 85.3885 78.1504 84.9736C78.1504 84.5587 77.8146 84.2224 77.4004 84.2224C76.9862 84.2224 76.6504 84.5587 76.6504 84.9736C76.6504 85.3885 76.9862 85.7248 77.4004 85.7248Z" fill="#5E636E"/>
<path d="M77.4004 89.4359C77.8146 89.4359 78.1504 89.0996 78.1504 88.6847C78.1504 88.2698 77.8146 87.9335 77.4004 87.9335C76.9862 87.9335 76.6504 88.2698 76.6504 88.6847C76.6504 89.0996 76.9862 89.4359 77.4004 89.4359Z" fill="#5E636E"/>
<path d="M77.4004 93.1319C77.8146 93.1319 78.1504 92.7956 78.1504 92.3807C78.1504 91.9658 77.8146 91.6295 77.4004 91.6295C76.9862 91.6295 76.6504 91.9658 76.6504 92.3807C76.6504 92.7956 76.9862 93.1319 77.4004 93.1319Z" fill="#5E636E"/>
<path d="M77.4004 96.843C77.8146 96.843 78.1504 96.5066 78.1504 96.0917C78.1504 95.6768 77.8146 95.3405 77.4004 95.3405C76.9862 95.3405 76.6504 95.6768 76.6504 96.0917C76.6504 96.5066 76.9862 96.843 77.4004 96.843Z" fill="#5E636E"/>
<path d="M77.4004 100.554C77.8146 100.554 78.1504 100.218 78.1504 99.8028C78.1504 99.3879 77.8146 99.0516 77.4004 99.0516C76.9862 99.0516 76.6504 99.3879 76.6504 99.8028C76.6504 100.218 76.9862 100.554 77.4004 100.554Z" fill="#5E636E"/>
<path d="M77.4004 104.25C77.8146 104.25 78.1504 103.914 78.1504 103.499C78.1504 103.084 77.8146 102.748 77.4004 102.748C76.9862 102.748 76.6504 103.084 76.6504 103.499C76.6504 103.914 76.9862 104.25 77.4004 104.25Z" fill="#5E636E"/>
<path d="M73.6953 41.2524C74.1095 41.2524 74.4453 40.9161 74.4453 40.5012C74.4453 40.0863 74.1095 39.75 73.6953 39.75C73.2811 39.75 72.9453 40.0863 72.9453 40.5012C72.9453 40.9161 73.2811 41.2524 73.6953 41.2524Z" fill="#5E636E"/>
<path d="M73.6953 44.9635C74.1095 44.9635 74.4453 44.6271 74.4453 44.2122C74.4453 43.7974 74.1095 43.461 73.6953 43.461C73.2811 43.461 72.9453 43.7974 72.9453 44.2122C72.9453 44.6271 73.2811 44.9635 73.6953 44.9635Z" fill="#5E636E"/>
<path d="M73.6953 48.6595C74.1095 48.6595 74.4453 48.3232 74.4453 47.9083C74.4453 47.4934 74.1095 47.157 73.6953 47.157C73.2811 47.157 72.9453 47.4934 72.9453 47.9083C72.9453 48.3232 73.2811 48.6595 73.6953 48.6595Z" fill="#5E636E"/>
<path d="M73.6953 52.3705C74.1095 52.3705 74.4453 52.0342 74.4453 51.6193C74.4453 51.2044 74.1095 50.8681 73.6953 50.8681C73.2811 50.8681 72.9453 51.2044 72.9453 51.6193C72.9453 52.0342 73.2811 52.3705 73.6953 52.3705Z" fill="#5E636E"/>
<path d="M73.6953 56.0816C74.1095 56.0816 74.4453 55.7453 74.4453 55.3304C74.4453 54.9155 74.1095 54.5792 73.6953 54.5792C73.2811 54.5792 72.9453 54.9155 72.9453 55.3304C72.9453 55.7453 73.2811 56.0816 73.6953 56.0816Z" fill="#5E636E"/>
<path d="M73.6953 59.7776C74.1095 59.7776 74.4453 59.4413 74.4453 59.0264C74.4453 58.6115 74.1095 58.2752 73.6953 58.2752C73.2811 58.2752 72.9453 58.6115 72.9453 59.0264C72.9453 59.4413 73.2811 59.7776 73.6953 59.7776Z" fill="#5E636E"/>
<path d="M73.6953 63.4886C74.1095 63.4886 74.4453 63.1523 74.4453 62.7374C74.4453 62.3225 74.1095 61.9862 73.6953 61.9862C73.2811 61.9862 72.9453 62.3225 72.9453 62.7374C72.9453 63.1523 73.2811 63.4886 73.6953 63.4886Z" fill="#5E636E"/>
<path d="M73.6953 67.1997C74.1095 67.1997 74.4453 66.8634 74.4453 66.4485C74.4453 66.0336 74.1095 65.6973 73.6953 65.6973C73.2811 65.6973 72.9453 66.0336 72.9453 66.4485C72.9453 66.8634 73.2811 67.1997 73.6953 67.1997Z" fill="#5E636E"/>
<path d="M73.6953 70.8957C74.1095 70.8957 74.4453 70.5594 74.4453 70.1445C74.4453 69.7296 74.1095 69.3932 73.6953 69.3932C73.2811 69.3932 72.9453 69.7296 72.9453 70.1445C72.9453 70.5594 73.2811 70.8957 73.6953 70.8957Z" fill="#5E636E"/>
<path d="M73.6953 74.6067C74.1095 74.6067 74.4453 74.2704 74.4453 73.8555C74.4453 73.4406 74.1095 73.1042 73.6953 73.1042C73.2811 73.1042 72.9453 73.4406 72.9453 73.8555C72.9453 74.2704 73.2811 74.6067 73.6953 74.6067Z" fill="#5E636E"/>
<path d="M73.6953 78.3178C74.1095 78.3178 74.4453 77.9815 74.4453 77.5666C74.4453 77.1517 74.1095 76.8154 73.6953 76.8154C73.2811 76.8154 72.9453 77.1517 72.9453 77.5666C72.9453 77.9815 73.2811 78.3178 73.6953 78.3178Z" fill="#5E636E"/>
<path d="M73.6953 82.0137C74.1095 82.0137 74.4453 81.6774 74.4453 81.2625C74.4453 80.8476 74.1095 80.5113 73.6953 80.5113C73.2811 80.5113 72.9453 80.8476 72.9453 81.2625C72.9453 81.6774 73.2811 82.0137 73.6953 82.0137Z" fill="#5E636E"/>
<path d="M73.6953 85.7248C74.1095 85.7248 74.4453 85.3885 74.4453 84.9736C74.4453 84.5587 74.1095 84.2224 73.6953 84.2224C73.2811 84.2224 72.9453 84.5587 72.9453 84.9736C72.9453 85.3885 73.2811 85.7248 73.6953 85.7248Z" fill="#5E636E"/>
<path d="M73.6953 89.4359C74.1095 89.4359 74.4453 89.0996 74.4453 88.6847C74.4453 88.2698 74.1095 87.9335 73.6953 87.9335C73.2811 87.9335 72.9453 88.2698 72.9453 88.6847C72.9453 89.0996 73.2811 89.4359 73.6953 89.4359Z" fill="#5E636E"/>
<path d="M73.6953 93.1319C74.1095 93.1319 74.4453 92.7956 74.4453 92.3807C74.4453 91.9658 74.1095 91.6295 73.6953 91.6295C73.2811 91.6295 72.9453 91.9658 72.9453 92.3807C72.9453 92.7956 73.2811 93.1319 73.6953 93.1319Z" fill="#5E636E"/>
<path d="M73.6953 96.843C74.1095 96.843 74.4453 96.5066 74.4453 96.0917C74.4453 95.6768 74.1095 95.3405 73.6953 95.3405C73.2811 95.3405 72.9453 95.6768 72.9453 96.0917C72.9453 96.5066 73.2811 96.843 73.6953 96.843Z" fill="#5E636E"/>
<path d="M73.6953 100.554C74.1095 100.554 74.4453 100.218 74.4453 99.8028C74.4453 99.3879 74.1095 99.0516 73.6953 99.0516C73.2811 99.0516 72.9453 99.3879 72.9453 99.8028C72.9453 100.218 73.2811 100.554 73.6953 100.554Z" fill="#5E636E"/>
<path d="M73.6953 104.25C74.1095 104.25 74.4453 103.914 74.4453 103.499C74.4453 103.084 74.1095 102.748 73.6953 102.748C73.2811 102.748 72.9453 103.084 72.9453 103.499C72.9453 103.914 73.2811 104.25 73.6953 104.25Z" fill="#5E636E"/>
<path d="M70.0049 41.2524C70.4191 41.2524 70.7549 40.9161 70.7549 40.5012C70.7549 40.0863 70.4191 39.75 70.0049 39.75C69.5907 39.75 69.2549 40.0863 69.2549 40.5012C69.2549 40.9161 69.5907 41.2524 70.0049 41.2524Z" fill="#5E636E"/>
<path d="M70.0049 44.9635C70.4191 44.9635 70.7549 44.6271 70.7549 44.2122C70.7549 43.7974 70.4191 43.461 70.0049 43.461C69.5907 43.461 69.2549 43.7974 69.2549 44.2122C69.2549 44.6271 69.5907 44.9635 70.0049 44.9635Z" fill="#5E636E"/>
<path d="M70.0049 48.6595C70.4191 48.6595 70.7549 48.3232 70.7549 47.9083C70.7549 47.4934 70.4191 47.157 70.0049 47.157C69.5907 47.157 69.2549 47.4934 69.2549 47.9083C69.2549 48.3232 69.5907 48.6595 70.0049 48.6595Z" fill="#5E636E"/>
<path d="M70.0049 52.3705C70.4191 52.3705 70.7549 52.0342 70.7549 51.6193C70.7549 51.2044 70.4191 50.8681 70.0049 50.8681C69.5907 50.8681 69.2549 51.2044 69.2549 51.6193C69.2549 52.0342 69.5907 52.3705 70.0049 52.3705Z" fill="#5E636E"/>
<path d="M70.0049 56.0816C70.4191 56.0816 70.7549 55.7453 70.7549 55.3304C70.7549 54.9155 70.4191 54.5792 70.0049 54.5792C69.5907 54.5792 69.2549 54.9155 69.2549 55.3304C69.2549 55.7453 69.5907 56.0816 70.0049 56.0816Z" fill="#5E636E"/>
<path d="M70.0049 59.7776C70.4191 59.7776 70.7549 59.4413 70.7549 59.0264C70.7549 58.6115 70.4191 58.2752 70.0049 58.2752C69.5907 58.2752 69.2549 58.6115 69.2549 59.0264C69.2549 59.4413 69.5907 59.7776 70.0049 59.7776Z" fill="#5E636E"/>
<path d="M70.0049 63.4886C70.4191 63.4886 70.7549 63.1523 70.7549 62.7374C70.7549 62.3225 70.4191 61.9862 70.0049 61.9862C69.5907 61.9862 69.2549 62.3225 69.2549 62.7374C69.2549 63.1523 69.5907 63.4886 70.0049 63.4886Z" fill="#5E636E"/>
<path d="M70.0049 67.1997C70.4191 67.1997 70.7549 66.8634 70.7549 66.4485C70.7549 66.0336 70.4191 65.6973 70.0049 65.6973C69.5907 65.6973 69.2549 66.0336 69.2549 66.4485C69.2549 66.8634 69.5907 67.1997 70.0049 67.1997Z" fill="#5E636E"/>
<path d="M70.0049 70.8957C70.4191 70.8957 70.7549 70.5594 70.7549 70.1445C70.7549 69.7296 70.4191 69.3932 70.0049 69.3932C69.5907 69.3932 69.2549 69.7296 69.2549 70.1445C69.2549 70.5594 69.5907 70.8957 70.0049 70.8957Z" fill="#5E636E"/>
<path d="M70.0049 74.6067C70.4191 74.6067 70.7549 74.2704 70.7549 73.8555C70.7549 73.4406 70.4191 73.1042 70.0049 73.1042C69.5907 73.1042 69.2549 73.4406 69.2549 73.8555C69.2549 74.2704 69.5907 74.6067 70.0049 74.6067Z" fill="#5E636E"/>
<path d="M70.0049 78.3178C70.4191 78.3178 70.7549 77.9815 70.7549 77.5666C70.7549 77.1517 70.4191 76.8154 70.0049 76.8154C69.5907 76.8154 69.2549 77.1517 69.2549 77.5666C69.2549 77.9815 69.5907 78.3178 70.0049 78.3178Z" fill="#5E636E"/>
<path d="M70.0049 82.0137C70.4191 82.0137 70.7549 81.6774 70.7549 81.2625C70.7549 80.8476 70.4191 80.5113 70.0049 80.5113C69.5907 80.5113 69.2549 80.8476 69.2549 81.2625C69.2549 81.6774 69.5907 82.0137 70.0049 82.0137Z" fill="#5E636E"/>
<path d="M70.0049 85.7248C70.4191 85.7248 70.7549 85.3885 70.7549 84.9736C70.7549 84.5587 70.4191 84.2224 70.0049 84.2224C69.5907 84.2224 69.2549 84.5587 69.2549 84.9736C69.2549 85.3885 69.5907 85.7248 70.0049 85.7248Z" fill="#5E636E"/>
<path d="M70.0049 89.4359C70.4191 89.4359 70.7549 89.0996 70.7549 88.6847C70.7549 88.2698 70.4191 87.9335 70.0049 87.9335C69.5907 87.9335 69.2549 88.2698 69.2549 88.6847C69.2549 89.0996 69.5907 89.4359 70.0049 89.4359Z" fill="#5E636E"/>
<path d="M70.0049 93.1319C70.4191 93.1319 70.7549 92.7956 70.7549 92.3807C70.7549 91.9658 70.4191 91.6295 70.0049 91.6295C69.5907 91.6295 69.2549 91.9658 69.2549 92.3807C69.2549 92.7956 69.5907 93.1319 70.0049 93.1319Z" fill="#5E636E"/>
<path d="M70.0049 96.843C70.4191 96.843 70.7549 96.5066 70.7549 96.0917C70.7549 95.6768 70.4191 95.3405 70.0049 95.3405C69.5907 95.3405 69.2549 95.6768 69.2549 96.0917C69.2549 96.5066 69.5907 96.843 70.0049 96.843Z" fill="#5E636E"/>
<path d="M70.0049 100.554C70.4191 100.554 70.7549 100.218 70.7549 99.8028C70.7549 99.3879 70.4191 99.0516 70.0049 99.0516C69.5907 99.0516 69.2549 99.3879 69.2549 99.8028C69.2549 100.218 69.5907 100.554 70.0049 100.554Z" fill="#5E636E"/>
<path d="M70.0049 104.25C70.4191 104.25 70.7549 103.914 70.7549 103.499C70.7549 103.084 70.4191 102.748 70.0049 102.748C69.5907 102.748 69.2549 103.084 69.2549 103.499C69.2549 103.914 69.5907 104.25 70.0049 104.25Z" fill="#5E636E"/>
<path d="M66.2998 41.2524C66.714 41.2524 67.0498 40.9161 67.0498 40.5012C67.0498 40.0863 66.714 39.75 66.2998 39.75C65.8856 39.75 65.5498 40.0863 65.5498 40.5012C65.5498 40.9161 65.8856 41.2524 66.2998 41.2524Z" fill="#5E636E"/>
<path d="M66.2998 44.9635C66.714 44.9635 67.0498 44.6271 67.0498 44.2122C67.0498 43.7974 66.714 43.461 66.2998 43.461C65.8856 43.461 65.5498 43.7974 65.5498 44.2122C65.5498 44.6271 65.8856 44.9635 66.2998 44.9635Z" fill="#5E636E"/>
<path d="M66.2998 48.6595C66.714 48.6595 67.0498 48.3232 67.0498 47.9083C67.0498 47.4934 66.714 47.157 66.2998 47.157C65.8856 47.157 65.5498 47.4934 65.5498 47.9083C65.5498 48.3232 65.8856 48.6595 66.2998 48.6595Z" fill="#5E636E"/>
<path d="M66.2998 52.3705C66.714 52.3705 67.0498 52.0342 67.0498 51.6193C67.0498 51.2044 66.714 50.8681 66.2998 50.8681C65.8856 50.8681 65.5498 51.2044 65.5498 51.6193C65.5498 52.0342 65.8856 52.3705 66.2998 52.3705Z" fill="#5E636E"/>
<path d="M66.2998 56.0816C66.714 56.0816 67.0498 55.7453 67.0498 55.3304C67.0498 54.9155 66.714 54.5792 66.2998 54.5792C65.8856 54.5792 65.5498 54.9155 65.5498 55.3304C65.5498 55.7453 65.8856 56.0816 66.2998 56.0816Z" fill="#5E636E"/>
<path d="M66.2998 59.7776C66.714 59.7776 67.0498 59.4413 67.0498 59.0264C67.0498 58.6115 66.714 58.2752 66.2998 58.2752C65.8856 58.2752 65.5498 58.6115 65.5498 59.0264C65.5498 59.4413 65.8856 59.7776 66.2998 59.7776Z" fill="#5E636E"/>
<path d="M66.2998 63.4886C66.714 63.4886 67.0498 63.1523 67.0498 62.7374C67.0498 62.3225 66.714 61.9862 66.2998 61.9862C65.8856 61.9862 65.5498 62.3225 65.5498 62.7374C65.5498 63.1523 65.8856 63.4886 66.2998 63.4886Z" fill="#5E636E"/>
<path d="M66.2998 67.1997C66.714 67.1997 67.0498 66.8634 67.0498 66.4485C67.0498 66.0336 66.714 65.6973 66.2998 65.6973C65.8856 65.6973 65.5498 66.0336 65.5498 66.4485C65.5498 66.8634 65.8856 67.1997 66.2998 67.1997Z" fill="#5E636E"/>
<path d="M66.2998 70.8957C66.714 70.8957 67.0498 70.5594 67.0498 70.1445C67.0498 69.7296 66.714 69.3932 66.2998 69.3932C65.8856 69.3932 65.5498 69.7296 65.5498 70.1445C65.5498 70.5594 65.8856 70.8957 66.2998 70.8957Z" fill="#5E636E"/>
<path d="M66.2998 74.6067C66.714 74.6067 67.0498 74.2704 67.0498 73.8555C67.0498 73.4406 66.714 73.1042 66.2998 73.1042C65.8856 73.1042 65.5498 73.4406 65.5498 73.8555C65.5498 74.2704 65.8856 74.6067 66.2998 74.6067Z" fill="#5E636E"/>
<path d="M66.2998 78.3178C66.714 78.3178 67.0498 77.9815 67.0498 77.5666C67.0498 77.1517 66.714 76.8154 66.2998 76.8154C65.8856 76.8154 65.5498 77.1517 65.5498 77.5666C65.5498 77.9815 65.8856 78.3178 66.2998 78.3178Z" fill="#5E636E"/>
<path d="M66.2998 82.0137C66.714 82.0137 67.0498 81.6774 67.0498 81.2625C67.0498 80.8476 66.714 80.5113 66.2998 80.5113C65.8856 80.5113 65.5498 80.8476 65.5498 81.2625C65.5498 81.6774 65.8856 82.0137 66.2998 82.0137Z" fill="#5E636E"/>
<path d="M66.2998 85.7248C66.714 85.7248 67.0498 85.3885 67.0498 84.9736C67.0498 84.5587 66.714 84.2224 66.2998 84.2224C65.8856 84.2224 65.5498 84.5587 65.5498 84.9736C65.5498 85.3885 65.8856 85.7248 66.2998 85.7248Z" fill="#5E636E"/>
<path d="M66.2998 89.4359C66.714 89.4359 67.0498 89.0996 67.0498 88.6847C67.0498 88.2698 66.714 87.9335 66.2998 87.9335C65.8856 87.9335 65.5498 88.2698 65.5498 88.6847C65.5498 89.0996 65.8856 89.4359 66.2998 89.4359Z" fill="#5E636E"/>
<path d="M66.2998 93.1319C66.714 93.1319 67.0498 92.7956 67.0498 92.3807C67.0498 91.9658 66.714 91.6295 66.2998 91.6295C65.8856 91.6295 65.5498 91.9658 65.5498 92.3807C65.5498 92.7956 65.8856 93.1319 66.2998 93.1319Z" fill="#5E636E"/>
<path d="M66.2998 96.843C66.714 96.843 67.0498 96.5066 67.0498 96.0917C67.0498 95.6768 66.714 95.3405 66.2998 95.3405C65.8856 95.3405 65.5498 95.6768 65.5498 96.0917C65.5498 96.5066 65.8856 96.843 66.2998 96.843Z" fill="#5E636E"/>
<path d="M66.2998 100.554C66.714 100.554 67.0498 100.218 67.0498 99.8028C67.0498 99.3879 66.714 99.0516 66.2998 99.0516C65.8856 99.0516 65.5498 99.3879 65.5498 99.8028C65.5498 100.218 65.8856 100.554 66.2998 100.554Z" fill="#5E636E"/>
<path d="M66.2998 104.25C66.714 104.25 67.0498 103.914 67.0498 103.499C67.0498 103.084 66.714 102.748 66.2998 102.748C65.8856 102.748 65.5498 103.084 65.5498 103.499C65.5498 103.914 65.8856 104.25 66.2998 104.25Z" fill="#5E636E"/>
<path d="M62.5947 41.2524C63.0089 41.2524 63.3447 40.9161 63.3447 40.5012C63.3447 40.0863 63.0089 39.75 62.5947 39.75C62.1805 39.75 61.8447 40.0863 61.8447 40.5012C61.8447 40.9161 62.1805 41.2524 62.5947 41.2524Z" fill="#5E636E"/>
<path d="M62.5947 44.9635C63.0089 44.9635 63.3447 44.6271 63.3447 44.2122C63.3447 43.7974 63.0089 43.461 62.5947 43.461C62.1805 43.461 61.8447 43.7974 61.8447 44.2122C61.8447 44.6271 62.1805 44.9635 62.5947 44.9635Z" fill="#5E636E"/>
<path d="M62.5947 48.6595C63.0089 48.6595 63.3447 48.3232 63.3447 47.9083C63.3447 47.4934 63.0089 47.157 62.5947 47.157C62.1805 47.157 61.8447 47.4934 61.8447 47.9083C61.8447 48.3232 62.1805 48.6595 62.5947 48.6595Z" fill="#5E636E"/>
<path d="M62.5947 52.3705C63.0089 52.3705 63.3447 52.0342 63.3447 51.6193C63.3447 51.2044 63.0089 50.8681 62.5947 50.8681C62.1805 50.8681 61.8447 51.2044 61.8447 51.6193C61.8447 52.0342 62.1805 52.3705 62.5947 52.3705Z" fill="#5E636E"/>
<path d="M62.5947 56.0816C63.0089 56.0816 63.3447 55.7453 63.3447 55.3304C63.3447 54.9155 63.0089 54.5792 62.5947 54.5792C62.1805 54.5792 61.8447 54.9155 61.8447 55.3304C61.8447 55.7453 62.1805 56.0816 62.5947 56.0816Z" fill="#5E636E"/>
<path d="M62.5947 59.7776C63.0089 59.7776 63.3447 59.4413 63.3447 59.0264C63.3447 58.6115 63.0089 58.2752 62.5947 58.2752C62.1805 58.2752 61.8447 58.6115 61.8447 59.0264C61.8447 59.4413 62.1805 59.7776 62.5947 59.7776Z" fill="#5E636E"/>
<path d="M62.5947 63.4886C63.0089 63.4886 63.3447 63.1523 63.3447 62.7374C63.3447 62.3225 63.0089 61.9862 62.5947 61.9862C62.1805 61.9862 61.8447 62.3225 61.8447 62.7374C61.8447 63.1523 62.1805 63.4886 62.5947 63.4886Z" fill="#5E636E"/>
<path d="M62.5947 67.1997C63.0089 67.1997 63.3447 66.8634 63.3447 66.4485C63.3447 66.0336 63.0089 65.6973 62.5947 65.6973C62.1805 65.6973 61.8447 66.0336 61.8447 66.4485C61.8447 66.8634 62.1805 67.1997 62.5947 67.1997Z" fill="#5E636E"/>
<path d="M62.5947 70.8957C63.0089 70.8957 63.3447 70.5594 63.3447 70.1445C63.3447 69.7296 63.0089 69.3932 62.5947 69.3932C62.1805 69.3932 61.8447 69.7296 61.8447 70.1445C61.8447 70.5594 62.1805 70.8957 62.5947 70.8957Z" fill="#5E636E"/>
<path d="M62.5947 74.6067C63.0089 74.6067 63.3447 74.2704 63.3447 73.8555C63.3447 73.4406 63.0089 73.1042 62.5947 73.1042C62.1805 73.1042 61.8447 73.4406 61.8447 73.8555C61.8447 74.2704 62.1805 74.6067 62.5947 74.6067Z" fill="#5E636E"/>
<path d="M62.5947 78.3178C63.0089 78.3178 63.3447 77.9815 63.3447 77.5666C63.3447 77.1517 63.0089 76.8154 62.5947 76.8154C62.1805 76.8154 61.8447 77.1517 61.8447 77.5666C61.8447 77.9815 62.1805 78.3178 62.5947 78.3178Z" fill="#5E636E"/>
<path d="M62.5947 82.0137C63.0089 82.0137 63.3447 81.6774 63.3447 81.2625C63.3447 80.8476 63.0089 80.5113 62.5947 80.5113C62.1805 80.5113 61.8447 80.8476 61.8447 81.2625C61.8447 81.6774 62.1805 82.0137 62.5947 82.0137Z" fill="#5E636E"/>
<path d="M62.5947 85.7248C63.0089 85.7248 63.3447 85.3885 63.3447 84.9736C63.3447 84.5587 63.0089 84.2224 62.5947 84.2224C62.1805 84.2224 61.8447 84.5587 61.8447 84.9736C61.8447 85.3885 62.1805 85.7248 62.5947 85.7248Z" fill="#5E636E"/>
<path d="M62.5947 89.4359C63.0089 89.4359 63.3447 89.0996 63.3447 88.6847C63.3447 88.2698 63.0089 87.9335 62.5947 87.9335C62.1805 87.9335 61.8447 88.2698 61.8447 88.6847C61.8447 89.0996 62.1805 89.4359 62.5947 89.4359Z" fill="#5E636E"/>
<path d="M62.5947 93.1319C63.0089 93.1319 63.3447 92.7956 63.3447 92.3807C63.3447 91.9658 63.0089 91.6295 62.5947 91.6295C62.1805 91.6295 61.8447 91.9658 61.8447 92.3807C61.8447 92.7956 62.1805 93.1319 62.5947 93.1319Z" fill="#5E636E"/>
<path d="M62.5947 96.843C63.0089 96.843 63.3447 96.5066 63.3447 96.0917C63.3447 95.6768 63.0089 95.3405 62.5947 95.3405C62.1805 95.3405 61.8447 95.6768 61.8447 96.0917C61.8447 96.5066 62.1805 96.843 62.5947 96.843Z" fill="#5E636E"/>
<path d="M62.5947 100.554C63.0089 100.554 63.3447 100.218 63.3447 99.8028C63.3447 99.3879 63.0089 99.0516 62.5947 99.0516C62.1805 99.0516 61.8447 99.3879 61.8447 99.8028C61.8447 100.218 62.1805 100.554 62.5947 100.554Z" fill="#5E636E"/>
<path d="M62.5947 104.25C63.0089 104.25 63.3447 103.914 63.3447 103.499C63.3447 103.084 63.0089 102.748 62.5947 102.748C62.1805 102.748 61.8447 103.084 61.8447 103.499C61.8447 103.914 62.1805 104.25 62.5947 104.25Z" fill="#5E636E"/>
<path d="M58.9053 41.2524C59.3195 41.2524 59.6553 40.9161 59.6553 40.5012C59.6553 40.0863 59.3195 39.75 58.9053 39.75C58.4911 39.75 58.1553 40.0863 58.1553 40.5012C58.1553 40.9161 58.4911 41.2524 58.9053 41.2524Z" fill="#5E636E"/>
<path d="M58.9053 44.9635C59.3195 44.9635 59.6553 44.6271 59.6553 44.2122C59.6553 43.7974 59.3195 43.461 58.9053 43.461C58.4911 43.461 58.1553 43.7974 58.1553 44.2122C58.1553 44.6271 58.4911 44.9635 58.9053 44.9635Z" fill="#5E636E"/>
<path d="M58.9053 48.6595C59.3195 48.6595 59.6553 48.3232 59.6553 47.9083C59.6553 47.4934 59.3195 47.157 58.9053 47.157C58.4911 47.157 58.1553 47.4934 58.1553 47.9083C58.1553 48.3232 58.4911 48.6595 58.9053 48.6595Z" fill="#5E636E"/>
<path d="M58.9053 52.3705C59.3195 52.3705 59.6553 52.0342 59.6553 51.6193C59.6553 51.2044 59.3195 50.8681 58.9053 50.8681C58.4911 50.8681 58.1553 51.2044 58.1553 51.6193C58.1553 52.0342 58.4911 52.3705 58.9053 52.3705Z" fill="#5E636E"/>
<path d="M58.9053 56.0816C59.3195 56.0816 59.6553 55.7453 59.6553 55.3304C59.6553 54.9155 59.3195 54.5792 58.9053 54.5792C58.4911 54.5792 58.1553 54.9155 58.1553 55.3304C58.1553 55.7453 58.4911 56.0816 58.9053 56.0816Z" fill="#5E636E"/>
<path d="M58.9053 59.7776C59.3195 59.7776 59.6553 59.4413 59.6553 59.0264C59.6553 58.6115 59.3195 58.2752 58.9053 58.2752C58.4911 58.2752 58.1553 58.6115 58.1553 59.0264C58.1553 59.4413 58.4911 59.7776 58.9053 59.7776Z" fill="#5E636E"/>
<path d="M58.9053 63.4886C59.3195 63.4886 59.6553 63.1523 59.6553 62.7374C59.6553 62.3225 59.3195 61.9862 58.9053 61.9862C58.4911 61.9862 58.1553 62.3225 58.1553 62.7374C58.1553 63.1523 58.4911 63.4886 58.9053 63.4886Z" fill="#5E636E"/>
<path d="M58.9053 67.1997C59.3195 67.1997 59.6553 66.8634 59.6553 66.4485C59.6553 66.0336 59.3195 65.6973 58.9053 65.6973C58.4911 65.6973 58.1553 66.0336 58.1553 66.4485C58.1553 66.8634 58.4911 67.1997 58.9053 67.1997Z" fill="#5E636E"/>
<path d="M58.9053 70.8957C59.3195 70.8957 59.6553 70.5594 59.6553 70.1445C59.6553 69.7296 59.3195 69.3932 58.9053 69.3932C58.4911 69.3932 58.1553 69.7296 58.1553 70.1445C58.1553 70.5594 58.4911 70.8957 58.9053 70.8957Z" fill="#5E636E"/>
<path d="M58.9053 74.6067C59.3195 74.6067 59.6553 74.2704 59.6553 73.8555C59.6553 73.4406 59.3195 73.1042 58.9053 73.1042C58.4911 73.1042 58.1553 73.4406 58.1553 73.8555C58.1553 74.2704 58.4911 74.6067 58.9053 74.6067Z" fill="#5E636E"/>
<path d="M58.9053 78.3178C59.3195 78.3178 59.6553 77.9815 59.6553 77.5666C59.6553 77.1517 59.3195 76.8154 58.9053 76.8154C58.4911 76.8154 58.1553 77.1517 58.1553 77.5666C58.1553 77.9815 58.4911 78.3178 58.9053 78.3178Z" fill="#5E636E"/>
<path d="M58.9053 82.0137C59.3195 82.0137 59.6553 81.6774 59.6553 81.2625C59.6553 80.8476 59.3195 80.5113 58.9053 80.5113C58.4911 80.5113 58.1553 80.8476 58.1553 81.2625C58.1553 81.6774 58.4911 82.0137 58.9053 82.0137Z" fill="#5E636E"/>
<path d="M58.9053 85.7248C59.3195 85.7248 59.6553 85.3885 59.6553 84.9736C59.6553 84.5587 59.3195 84.2224 58.9053 84.2224C58.4911 84.2224 58.1553 84.5587 58.1553 84.9736C58.1553 85.3885 58.4911 85.7248 58.9053 85.7248Z" fill="#5E636E"/>
<path d="M58.9053 89.4359C59.3195 89.4359 59.6553 89.0996 59.6553 88.6847C59.6553 88.2698 59.3195 87.9335 58.9053 87.9335C58.4911 87.9335 58.1553 88.2698 58.1553 88.6847C58.1553 89.0996 58.4911 89.4359 58.9053 89.4359Z" fill="#5E636E"/>
<path d="M58.9053 93.1319C59.3195 93.1319 59.6553 92.7956 59.6553 92.3807C59.6553 91.9658 59.3195 91.6295 58.9053 91.6295C58.4911 91.6295 58.1553 91.9658 58.1553 92.3807C58.1553 92.7956 58.4911 93.1319 58.9053 93.1319Z" fill="#5E636E"/>
<path d="M58.9053 96.843C59.3195 96.843 59.6553 96.5066 59.6553 96.0917C59.6553 95.6768 59.3195 95.3405 58.9053 95.3405C58.4911 95.3405 58.1553 95.6768 58.1553 96.0917C58.1553 96.5066 58.4911 96.843 58.9053 96.843Z" fill="#5E636E"/>
<path d="M58.9053 100.554C59.3195 100.554 59.6553 100.218 59.6553 99.8028C59.6553 99.3879 59.3195 99.0516 58.9053 99.0516C58.4911 99.0516 58.1553 99.3879 58.1553 99.8028C58.1553 100.218 58.4911 100.554 58.9053 100.554Z" fill="#5E636E"/>
<path d="M58.9053 104.25C59.3195 104.25 59.6553 103.914 59.6553 103.499C59.6553 103.084 59.3195 102.748 58.9053 102.748C58.4911 102.748 58.1553 103.084 58.1553 103.499C58.1553 103.914 58.4911 104.25 58.9053 104.25Z" fill="#5E636E"/>
<path d="M55.2002 41.2524C55.6144 41.2524 55.9502 40.9161 55.9502 40.5012C55.9502 40.0863 55.6144 39.75 55.2002 39.75C54.786 39.75 54.4502 40.0863 54.4502 40.5012C54.4502 40.9161 54.786 41.2524 55.2002 41.2524Z" fill="#5E636E"/>
<path d="M55.2002 44.9635C55.6144 44.9635 55.9502 44.6271 55.9502 44.2122C55.9502 43.7974 55.6144 43.461 55.2002 43.461C54.786 43.461 54.4502 43.7974 54.4502 44.2122C54.4502 44.6271 54.786 44.9635 55.2002 44.9635Z" fill="#5E636E"/>
<path d="M55.2002 48.6595C55.6144 48.6595 55.9502 48.3232 55.9502 47.9083C55.9502 47.4934 55.6144 47.157 55.2002 47.157C54.786 47.157 54.4502 47.4934 54.4502 47.9083C54.4502 48.3232 54.786 48.6595 55.2002 48.6595Z" fill="#5E636E"/>
<path d="M55.2002 52.3705C55.6144 52.3705 55.9502 52.0342 55.9502 51.6193C55.9502 51.2044 55.6144 50.8681 55.2002 50.8681C54.786 50.8681 54.4502 51.2044 54.4502 51.6193C54.4502 52.0342 54.786 52.3705 55.2002 52.3705Z" fill="#5E636E"/>
<path d="M55.2002 56.0816C55.6144 56.0816 55.9502 55.7453 55.9502 55.3304C55.9502 54.9155 55.6144 54.5792 55.2002 54.5792C54.786 54.5792 54.4502 54.9155 54.4502 55.3304C54.4502 55.7453 54.786 56.0816 55.2002 56.0816Z" fill="#5E636E"/>
<path d="M55.2002 59.7776C55.6144 59.7776 55.9502 59.4413 55.9502 59.0264C55.9502 58.6115 55.6144 58.2752 55.2002 58.2752C54.786 58.2752 54.4502 58.6115 54.4502 59.0264C54.4502 59.4413 54.786 59.7776 55.2002 59.7776Z" fill="#5E636E"/>
<path d="M55.2002 63.4886C55.6144 63.4886 55.9502 63.1523 55.9502 62.7374C55.9502 62.3225 55.6144 61.9862 55.2002 61.9862C54.786 61.9862 54.4502 62.3225 54.4502 62.7374C54.4502 63.1523 54.786 63.4886 55.2002 63.4886Z" fill="#5E636E"/>
<path d="M55.2002 67.1997C55.6144 67.1997 55.9502 66.8634 55.9502 66.4485C55.9502 66.0336 55.6144 65.6973 55.2002 65.6973C54.786 65.6973 54.4502 66.0336 54.4502 66.4485C54.4502 66.8634 54.786 67.1997 55.2002 67.1997Z" fill="#5E636E"/>
<path d="M55.2002 70.8957C55.6144 70.8957 55.9502 70.5594 55.9502 70.1445C55.9502 69.7296 55.6144 69.3932 55.2002 69.3932C54.786 69.3932 54.4502 69.7296 54.4502 70.1445C54.4502 70.5594 54.786 70.8957 55.2002 70.8957Z" fill="#5E636E"/>
<path d="M55.2002 74.6067C55.6144 74.6067 55.9502 74.2704 55.9502 73.8555C55.9502 73.4406 55.6144 73.1042 55.2002 73.1042C54.786 73.1042 54.4502 73.4406 54.4502 73.8555C54.4502 74.2704 54.786 74.6067 55.2002 74.6067Z" fill="#5E636E"/>
<path d="M55.2002 78.3178C55.6144 78.3178 55.9502 77.9815 55.9502 77.5666C55.9502 77.1517 55.6144 76.8154 55.2002 76.8154C54.786 76.8154 54.4502 77.1517 54.4502 77.5666C54.4502 77.9815 54.786 78.3178 55.2002 78.3178Z" fill="#5E636E"/>
<path d="M55.2002 82.0137C55.6144 82.0137 55.9502 81.6774 55.9502 81.2625C55.9502 80.8476 55.6144 80.5113 55.2002 80.5113C54.786 80.5113 54.4502 80.8476 54.4502 81.2625C54.4502 81.6774 54.786 82.0137 55.2002 82.0137Z" fill="#5E636E"/>
<path d="M55.2002 85.7248C55.6144 85.7248 55.9502 85.3885 55.9502 84.9736C55.9502 84.5587 55.6144 84.2224 55.2002 84.2224C54.786 84.2224 54.4502 84.5587 54.4502 84.9736C54.4502 85.3885 54.786 85.7248 55.2002 85.7248Z" fill="#5E636E"/>
<path d="M55.2002 89.4359C55.6144 89.4359 55.9502 89.0996 55.9502 88.6847C55.9502 88.2698 55.6144 87.9335 55.2002 87.9335C54.786 87.9335 54.4502 88.2698 54.4502 88.6847C54.4502 89.0996 54.786 89.4359 55.2002 89.4359Z" fill="#5E636E"/>
<path d="M55.2002 93.1319C55.6144 93.1319 55.9502 92.7956 55.9502 92.3807C55.9502 91.9658 55.6144 91.6295 55.2002 91.6295C54.786 91.6295 54.4502 91.9658 54.4502 92.3807C54.4502 92.7956 54.786 93.1319 55.2002 93.1319Z" fill="#5E636E"/>
<path d="M55.2002 96.843C55.6144 96.843 55.9502 96.5066 55.9502 96.0917C55.9502 95.6768 55.6144 95.3405 55.2002 95.3405C54.786 95.3405 54.4502 95.6768 54.4502 96.0917C54.4502 96.5066 54.786 96.843 55.2002 96.843Z" fill="#5E636E"/>
<path d="M55.2002 100.554C55.6144 100.554 55.9502 100.218 55.9502 99.8028C55.9502 99.3879 55.6144 99.0516 55.2002 99.0516C54.786 99.0516 54.4502 99.3879 54.4502 99.8028C54.4502 100.218 54.786 100.554 55.2002 100.554Z" fill="#5E636E"/>
<path d="M55.2002 104.25C55.6144 104.25 55.9502 103.914 55.9502 103.499C55.9502 103.084 55.6144 102.748 55.2002 102.748C54.786 102.748 54.4502 103.084 54.4502 103.499C54.4502 103.914 54.786 104.25 55.2002 104.25Z" fill="#5E636E"/>
<path d="M51.4951 41.2524C51.9093 41.2524 52.2451 40.9161 52.2451 40.5012C52.2451 40.0863 51.9093 39.75 51.4951 39.75C51.0809 39.75 50.7451 40.0863 50.7451 40.5012C50.7451 40.9161 51.0809 41.2524 51.4951 41.2524Z" fill="#5E636E"/>
<path d="M51.4951 44.9635C51.9093 44.9635 52.2451 44.6271 52.2451 44.2122C52.2451 43.7974 51.9093 43.461 51.4951 43.461C51.0809 43.461 50.7451 43.7974 50.7451 44.2122C50.7451 44.6271 51.0809 44.9635 51.4951 44.9635Z" fill="#5E636E"/>
<path d="M51.4951 48.6595C51.9093 48.6595 52.2451 48.3232 52.2451 47.9083C52.2451 47.4934 51.9093 47.157 51.4951 47.157C51.0809 47.157 50.7451 47.4934 50.7451 47.9083C50.7451 48.3232 51.0809 48.6595 51.4951 48.6595Z" fill="#5E636E"/>
<path d="M51.4951 52.3705C51.9093 52.3705 52.2451 52.0342 52.2451 51.6193C52.2451 51.2044 51.9093 50.8681 51.4951 50.8681C51.0809 50.8681 50.7451 51.2044 50.7451 51.6193C50.7451 52.0342 51.0809 52.3705 51.4951 52.3705Z" fill="#5E636E"/>
<path d="M51.4951 56.0816C51.9093 56.0816 52.2451 55.7453 52.2451 55.3304C52.2451 54.9155 51.9093 54.5792 51.4951 54.5792C51.0809 54.5792 50.7451 54.9155 50.7451 55.3304C50.7451 55.7453 51.0809 56.0816 51.4951 56.0816Z" fill="#5E636E"/>
<path d="M51.4951 59.7776C51.9093 59.7776 52.2451 59.4413 52.2451 59.0264C52.2451 58.6115 51.9093 58.2752 51.4951 58.2752C51.0809 58.2752 50.7451 58.6115 50.7451 59.0264C50.7451 59.4413 51.0809 59.7776 51.4951 59.7776Z" fill="#5E636E"/>
<path d="M51.4951 63.4886C51.9093 63.4886 52.2451 63.1523 52.2451 62.7374C52.2451 62.3225 51.9093 61.9862 51.4951 61.9862C51.0809 61.9862 50.7451 62.3225 50.7451 62.7374C50.7451 63.1523 51.0809 63.4886 51.4951 63.4886Z" fill="#5E636E"/>
<path d="M51.4951 67.1997C51.9093 67.1997 52.2451 66.8634 52.2451 66.4485C52.2451 66.0336 51.9093 65.6973 51.4951 65.6973C51.0809 65.6973 50.7451 66.0336 50.7451 66.4485C50.7451 66.8634 51.0809 67.1997 51.4951 67.1997Z" fill="#5E636E"/>
<path d="M51.4951 70.8957C51.9093 70.8957 52.2451 70.5594 52.2451 70.1445C52.2451 69.7296 51.9093 69.3932 51.4951 69.3932C51.0809 69.3932 50.7451 69.7296 50.7451 70.1445C50.7451 70.5594 51.0809 70.8957 51.4951 70.8957Z" fill="#5E636E"/>
<path d="M51.4951 74.6067C51.9093 74.6067 52.2451 74.2704 52.2451 73.8555C52.2451 73.4406 51.9093 73.1042 51.4951 73.1042C51.0809 73.1042 50.7451 73.4406 50.7451 73.8555C50.7451 74.2704 51.0809 74.6067 51.4951 74.6067Z" fill="#5E636E"/>
<path d="M51.4951 78.3178C51.9093 78.3178 52.2451 77.9815 52.2451 77.5666C52.2451 77.1517 51.9093 76.8154 51.4951 76.8154C51.0809 76.8154 50.7451 77.1517 50.7451 77.5666C50.7451 77.9815 51.0809 78.3178 51.4951 78.3178Z" fill="#5E636E"/>
<path d="M51.4951 82.0137C51.9093 82.0137 52.2451 81.6774 52.2451 81.2625C52.2451 80.8476 51.9093 80.5113 51.4951 80.5113C51.0809 80.5113 50.7451 80.8476 50.7451 81.2625C50.7451 81.6774 51.0809 82.0137 51.4951 82.0137Z" fill="#5E636E"/>
<path d="M51.4951 85.7248C51.9093 85.7248 52.2451 85.3885 52.2451 84.9736C52.2451 84.5587 51.9093 84.2224 51.4951 84.2224C51.0809 84.2224 50.7451 84.5587 50.7451 84.9736C50.7451 85.3885 51.0809 85.7248 51.4951 85.7248Z" fill="#5E636E"/>
<path d="M51.4951 89.4359C51.9093 89.4359 52.2451 89.0996 52.2451 88.6847C52.2451 88.2698 51.9093 87.9335 51.4951 87.9335C51.0809 87.9335 50.7451 88.2698 50.7451 88.6847C50.7451 89.0996 51.0809 89.4359 51.4951 89.4359Z" fill="#5E636E"/>
<path d="M51.4951 93.1319C51.9093 93.1319 52.2451 92.7956 52.2451 92.3807C52.2451 91.9658 51.9093 91.6295 51.4951 91.6295C51.0809 91.6295 50.7451 91.9658 50.7451 92.3807C50.7451 92.7956 51.0809 93.1319 51.4951 93.1319Z" fill="#5E636E"/>
<path d="M51.4951 96.843C51.9093 96.843 52.2451 96.5066 52.2451 96.0917C52.2451 95.6768 51.9093 95.3405 51.4951 95.3405C51.0809 95.3405 50.7451 95.6768 50.7451 96.0917C50.7451 96.5066 51.0809 96.843 51.4951 96.843Z" fill="#5E636E"/>
<path d="M51.4951 100.554C51.9093 100.554 52.2451 100.218 52.2451 99.8028C52.2451 99.3879 51.9093 99.0516 51.4951 99.0516C51.0809 99.0516 50.7451 99.3879 50.7451 99.8028C50.7451 100.218 51.0809 100.554 51.4951 100.554Z" fill="#5E636E"/>
<path d="M51.4951 104.25C51.9093 104.25 52.2451 103.914 52.2451 103.499C52.2451 103.084 51.9093 102.748 51.4951 102.748C51.0809 102.748 50.7451 103.084 50.7451 103.499C50.7451 103.914 51.0809 104.25 51.4951 104.25Z" fill="#5E636E"/>
<path d="M47.8047 41.2524C48.2189 41.2524 48.5547 40.9161 48.5547 40.5012C48.5547 40.0863 48.2189 39.75 47.8047 39.75C47.3905 39.75 47.0547 40.0863 47.0547 40.5012C47.0547 40.9161 47.3905 41.2524 47.8047 41.2524Z" fill="#5E636E"/>
<path d="M47.8047 44.9635C48.2189 44.9635 48.5547 44.6271 48.5547 44.2122C48.5547 43.7974 48.2189 43.461 47.8047 43.461C47.3905 43.461 47.0547 43.7974 47.0547 44.2122C47.0547 44.6271 47.3905 44.9635 47.8047 44.9635Z" fill="#5E636E"/>
<path d="M47.8047 48.6595C48.2189 48.6595 48.5547 48.3232 48.5547 47.9083C48.5547 47.4934 48.2189 47.157 47.8047 47.157C47.3905 47.157 47.0547 47.4934 47.0547 47.9083C47.0547 48.3232 47.3905 48.6595 47.8047 48.6595Z" fill="#5E636E"/>
<path d="M47.8047 52.3705C48.2189 52.3705 48.5547 52.0342 48.5547 51.6193C48.5547 51.2044 48.2189 50.8681 47.8047 50.8681C47.3905 50.8681 47.0547 51.2044 47.0547 51.6193C47.0547 52.0342 47.3905 52.3705 47.8047 52.3705Z" fill="#5E636E"/>
<path d="M47.8047 56.0816C48.2189 56.0816 48.5547 55.7453 48.5547 55.3304C48.5547 54.9155 48.2189 54.5792 47.8047 54.5792C47.3905 54.5792 47.0547 54.9155 47.0547 55.3304C47.0547 55.7453 47.3905 56.0816 47.8047 56.0816Z" fill="#5E636E"/>
<path d="M47.8047 59.7776C48.2189 59.7776 48.5547 59.4413 48.5547 59.0264C48.5547 58.6115 48.2189 58.2752 47.8047 58.2752C47.3905 58.2752 47.0547 58.6115 47.0547 59.0264C47.0547 59.4413 47.3905 59.7776 47.8047 59.7776Z" fill="#5E636E"/>
<path d="M47.8047 63.4886C48.2189 63.4886 48.5547 63.1523 48.5547 62.7374C48.5547 62.3225 48.2189 61.9862 47.8047 61.9862C47.3905 61.9862 47.0547 62.3225 47.0547 62.7374C47.0547 63.1523 47.3905 63.4886 47.8047 63.4886Z" fill="#5E636E"/>
<path d="M47.8047 67.1997C48.2189 67.1997 48.5547 66.8634 48.5547 66.4485C48.5547 66.0336 48.2189 65.6973 47.8047 65.6973C47.3905 65.6973 47.0547 66.0336 47.0547 66.4485C47.0547 66.8634 47.3905 67.1997 47.8047 67.1997Z" fill="#5E636E"/>
<path d="M47.8047 70.8957C48.2189 70.8957 48.5547 70.5594 48.5547 70.1445C48.5547 69.7296 48.2189 69.3932 47.8047 69.3932C47.3905 69.3932 47.0547 69.7296 47.0547 70.1445C47.0547 70.5594 47.3905 70.8957 47.8047 70.8957Z" fill="#5E636E"/>
<path d="M47.8047 74.6067C48.2189 74.6067 48.5547 74.2704 48.5547 73.8555C48.5547 73.4406 48.2189 73.1042 47.8047 73.1042C47.3905 73.1042 47.0547 73.4406 47.0547 73.8555C47.0547 74.2704 47.3905 74.6067 47.8047 74.6067Z" fill="#5E636E"/>
<path d="M47.8047 78.3178C48.2189 78.3178 48.5547 77.9815 48.5547 77.5666C48.5547 77.1517 48.2189 76.8154 47.8047 76.8154C47.3905 76.8154 47.0547 77.1517 47.0547 77.5666C47.0547 77.9815 47.3905 78.3178 47.8047 78.3178Z" fill="#5E636E"/>
<path d="M47.8047 82.0137C48.2189 82.0137 48.5547 81.6774 48.5547 81.2625C48.5547 80.8476 48.2189 80.5113 47.8047 80.5113C47.3905 80.5113 47.0547 80.8476 47.0547 81.2625C47.0547 81.6774 47.3905 82.0137 47.8047 82.0137Z" fill="#5E636E"/>
<path d="M47.8047 85.7248C48.2189 85.7248 48.5547 85.3885 48.5547 84.9736C48.5547 84.5587 48.2189 84.2224 47.8047 84.2224C47.3905 84.2224 47.0547 84.5587 47.0547 84.9736C47.0547 85.3885 47.3905 85.7248 47.8047 85.7248Z" fill="#5E636E"/>
<path d="M47.8047 89.4359C48.2189 89.4359 48.5547 89.0996 48.5547 88.6847C48.5547 88.2698 48.2189 87.9335 47.8047 87.9335C47.3905 87.9335 47.0547 88.2698 47.0547 88.6847C47.0547 89.0996 47.3905 89.4359 47.8047 89.4359Z" fill="#5E636E"/>
<path d="M47.8047 93.1319C48.2189 93.1319 48.5547 92.7956 48.5547 92.3807C48.5547 91.9658 48.2189 91.6295 47.8047 91.6295C47.3905 91.6295 47.0547 91.9658 47.0547 92.3807C47.0547 92.7956 47.3905 93.1319 47.8047 93.1319Z" fill="#5E636E"/>
<path d="M47.8047 96.843C48.2189 96.843 48.5547 96.5066 48.5547 96.0917C48.5547 95.6768 48.2189 95.3405 47.8047 95.3405C47.3905 95.3405 47.0547 95.6768 47.0547 96.0917C47.0547 96.5066 47.3905 96.843 47.8047 96.843Z" fill="#5E636E"/>
<path d="M47.8047 100.554C48.2189 100.554 48.5547 100.218 48.5547 99.8028C48.5547 99.3879 48.2189 99.0516 47.8047 99.0516C47.3905 99.0516 47.0547 99.3879 47.0547 99.8028C47.0547 100.218 47.3905 100.554 47.8047 100.554Z" fill="#5E636E"/>
<path d="M47.8047 104.25C48.2189 104.25 48.5547 103.914 48.5547 103.499C48.5547 103.084 48.2189 102.748 47.8047 102.748C47.3905 102.748 47.0547 103.084 47.0547 103.499C47.0547 103.914 47.3905 104.25 47.8047 104.25Z" fill="#5E636E"/>
<path d="M44.0996 41.2524C44.5138 41.2524 44.8496 40.9161 44.8496 40.5012C44.8496 40.0863 44.5138 39.75 44.0996 39.75C43.6854 39.75 43.3496 40.0863 43.3496 40.5012C43.3496 40.9161 43.6854 41.2524 44.0996 41.2524Z" fill="#5E636E"/>
<path d="M44.0996 44.9635C44.5138 44.9635 44.8496 44.6271 44.8496 44.2122C44.8496 43.7974 44.5138 43.461 44.0996 43.461C43.6854 43.461 43.3496 43.7974 43.3496 44.2122C43.3496 44.6271 43.6854 44.9635 44.0996 44.9635Z" fill="#5E636E"/>
<path d="M44.0996 48.6595C44.5138 48.6595 44.8496 48.3232 44.8496 47.9083C44.8496 47.4934 44.5138 47.157 44.0996 47.157C43.6854 47.157 43.3496 47.4934 43.3496 47.9083C43.3496 48.3232 43.6854 48.6595 44.0996 48.6595Z" fill="#5E636E"/>
<path d="M44.0996 52.3705C44.5138 52.3705 44.8496 52.0342 44.8496 51.6193C44.8496 51.2044 44.5138 50.8681 44.0996 50.8681C43.6854 50.8681 43.3496 51.2044 43.3496 51.6193C43.3496 52.0342 43.6854 52.3705 44.0996 52.3705Z" fill="#5E636E"/>
<path d="M44.0996 56.0816C44.5138 56.0816 44.8496 55.7453 44.8496 55.3304C44.8496 54.9155 44.5138 54.5792 44.0996 54.5792C43.6854 54.5792 43.3496 54.9155 43.3496 55.3304C43.3496 55.7453 43.6854 56.0816 44.0996 56.0816Z" fill="#5E636E"/>
<path d="M44.0996 59.7776C44.5138 59.7776 44.8496 59.4413 44.8496 59.0264C44.8496 58.6115 44.5138 58.2752 44.0996 58.2752C43.6854 58.2752 43.3496 58.6115 43.3496 59.0264C43.3496 59.4413 43.6854 59.7776 44.0996 59.7776Z" fill="#5E636E"/>
<path d="M44.0996 63.4886C44.5138 63.4886 44.8496 63.1523 44.8496 62.7374C44.8496 62.3225 44.5138 61.9862 44.0996 61.9862C43.6854 61.9862 43.3496 62.3225 43.3496 62.7374C43.3496 63.1523 43.6854 63.4886 44.0996 63.4886Z" fill="#5E636E"/>
<path d="M44.0996 67.1997C44.5138 67.1997 44.8496 66.8634 44.8496 66.4485C44.8496 66.0336 44.5138 65.6973 44.0996 65.6973C43.6854 65.6973 43.3496 66.0336 43.3496 66.4485C43.3496 66.8634 43.6854 67.1997 44.0996 67.1997Z" fill="#5E636E"/>
<path d="M44.0996 70.8957C44.5138 70.8957 44.8496 70.5594 44.8496 70.1445C44.8496 69.7296 44.5138 69.3932 44.0996 69.3932C43.6854 69.3932 43.3496 69.7296 43.3496 70.1445C43.3496 70.5594 43.6854 70.8957 44.0996 70.8957Z" fill="#5E636E"/>
<path d="M44.0996 74.6067C44.5138 74.6067 44.8496 74.2704 44.8496 73.8555C44.8496 73.4406 44.5138 73.1042 44.0996 73.1042C43.6854 73.1042 43.3496 73.4406 43.3496 73.8555C43.3496 74.2704 43.6854 74.6067 44.0996 74.6067Z" fill="#5E636E"/>
<path d="M44.0996 78.3178C44.5138 78.3178 44.8496 77.9815 44.8496 77.5666C44.8496 77.1517 44.5138 76.8154 44.0996 76.8154C43.6854 76.8154 43.3496 77.1517 43.3496 77.5666C43.3496 77.9815 43.6854 78.3178 44.0996 78.3178Z" fill="#5E636E"/>
<path d="M44.0996 82.0137C44.5138 82.0137 44.8496 81.6774 44.8496 81.2625C44.8496 80.8476 44.5138 80.5113 44.0996 80.5113C43.6854 80.5113 43.3496 80.8476 43.3496 81.2625C43.3496 81.6774 43.6854 82.0137 44.0996 82.0137Z" fill="#5E636E"/>
<path d="M44.0996 85.7248C44.5138 85.7248 44.8496 85.3885 44.8496 84.9736C44.8496 84.5587 44.5138 84.2224 44.0996 84.2224C43.6854 84.2224 43.3496 84.5587 43.3496 84.9736C43.3496 85.3885 43.6854 85.7248 44.0996 85.7248Z" fill="#5E636E"/>
<path d="M44.0996 89.4359C44.5138 89.4359 44.8496 89.0996 44.8496 88.6847C44.8496 88.2698 44.5138 87.9335 44.0996 87.9335C43.6854 87.9335 43.3496 88.2698 43.3496 88.6847C43.3496 89.0996 43.6854 89.4359 44.0996 89.4359Z" fill="#5E636E"/>
<path d="M44.0996 93.1319C44.5138 93.1319 44.8496 92.7956 44.8496 92.3807C44.8496 91.9658 44.5138 91.6295 44.0996 91.6295C43.6854 91.6295 43.3496 91.9658 43.3496 92.3807C43.3496 92.7956 43.6854 93.1319 44.0996 93.1319Z" fill="#5E636E"/>
<path d="M44.0996 96.843C44.5138 96.843 44.8496 96.5066 44.8496 96.0917C44.8496 95.6768 44.5138 95.3405 44.0996 95.3405C43.6854 95.3405 43.3496 95.6768 43.3496 96.0917C43.3496 96.5066 43.6854 96.843 44.0996 96.843Z" fill="#5E636E"/>
<path d="M44.0996 100.554C44.5138 100.554 44.8496 100.218 44.8496 99.8028C44.8496 99.3879 44.5138 99.0516 44.0996 99.0516C43.6854 99.0516 43.3496 99.3879 43.3496 99.8028C43.3496 100.218 43.6854 100.554 44.0996 100.554Z" fill="#5E636E"/>
<path d="M44.0996 104.25C44.5138 104.25 44.8496 103.914 44.8496 103.499C44.8496 103.084 44.5138 102.748 44.0996 102.748C43.6854 102.748 43.3496 103.084 43.3496 103.499C43.3496 103.914 43.6854 104.25 44.0996 104.25Z" fill="#5E636E"/>
<path d="M40.3945 41.2524C40.8087 41.2524 41.1445 40.9161 41.1445 40.5012C41.1445 40.0863 40.8087 39.75 40.3945 39.75C39.9803 39.75 39.6445 40.0863 39.6445 40.5012C39.6445 40.9161 39.9803 41.2524 40.3945 41.2524Z" fill="#5E636E"/>
<path d="M40.3945 44.9635C40.8087 44.9635 41.1445 44.6271 41.1445 44.2122C41.1445 43.7974 40.8087 43.461 40.3945 43.461C39.9803 43.461 39.6445 43.7974 39.6445 44.2122C39.6445 44.6271 39.9803 44.9635 40.3945 44.9635Z" fill="#5E636E"/>
<path d="M40.3945 48.6595C40.8087 48.6595 41.1445 48.3232 41.1445 47.9083C41.1445 47.4934 40.8087 47.157 40.3945 47.157C39.9803 47.157 39.6445 47.4934 39.6445 47.9083C39.6445 48.3232 39.9803 48.6595 40.3945 48.6595Z" fill="#5E636E"/>
<path d="M40.3945 52.3705C40.8087 52.3705 41.1445 52.0342 41.1445 51.6193C41.1445 51.2044 40.8087 50.8681 40.3945 50.8681C39.9803 50.8681 39.6445 51.2044 39.6445 51.6193C39.6445 52.0342 39.9803 52.3705 40.3945 52.3705Z" fill="#5E636E"/>
<path d="M40.3945 56.0816C40.8087 56.0816 41.1445 55.7453 41.1445 55.3304C41.1445 54.9155 40.8087 54.5792 40.3945 54.5792C39.9803 54.5792 39.6445 54.9155 39.6445 55.3304C39.6445 55.7453 39.9803 56.0816 40.3945 56.0816Z" fill="#5E636E"/>
<path d="M40.3945 59.7776C40.8087 59.7776 41.1445 59.4413 41.1445 59.0264C41.1445 58.6115 40.8087 58.2752 40.3945 58.2752C39.9803 58.2752 39.6445 58.6115 39.6445 59.0264C39.6445 59.4413 39.9803 59.7776 40.3945 59.7776Z" fill="#5E636E"/>
<path d="M40.3945 63.4886C40.8087 63.4886 41.1445 63.1523 41.1445 62.7374C41.1445 62.3225 40.8087 61.9862 40.3945 61.9862C39.9803 61.9862 39.6445 62.3225 39.6445 62.7374C39.6445 63.1523 39.9803 63.4886 40.3945 63.4886Z" fill="#5E636E"/>
<path d="M40.3945 67.1997C40.8087 67.1997 41.1445 66.8634 41.1445 66.4485C41.1445 66.0336 40.8087 65.6973 40.3945 65.6973C39.9803 65.6973 39.6445 66.0336 39.6445 66.4485C39.6445 66.8634 39.9803 67.1997 40.3945 67.1997Z" fill="#5E636E"/>
<path d="M40.3945 70.8957C40.8087 70.8957 41.1445 70.5594 41.1445 70.1445C41.1445 69.7296 40.8087 69.3932 40.3945 69.3932C39.9803 69.3932 39.6445 69.7296 39.6445 70.1445C39.6445 70.5594 39.9803 70.8957 40.3945 70.8957Z" fill="#5E636E"/>
<path d="M40.3945 74.6067C40.8087 74.6067 41.1445 74.2704 41.1445 73.8555C41.1445 73.4406 40.8087 73.1042 40.3945 73.1042C39.9803 73.1042 39.6445 73.4406 39.6445 73.8555C39.6445 74.2704 39.9803 74.6067 40.3945 74.6067Z" fill="#5E636E"/>
<path d="M40.3945 78.3178C40.8087 78.3178 41.1445 77.9815 41.1445 77.5666C41.1445 77.1517 40.8087 76.8154 40.3945 76.8154C39.9803 76.8154 39.6445 77.1517 39.6445 77.5666C39.6445 77.9815 39.9803 78.3178 40.3945 78.3178Z" fill="#5E636E"/>
<path d="M40.3945 82.0137C40.8087 82.0137 41.1445 81.6774 41.1445 81.2625C41.1445 80.8476 40.8087 80.5113 40.3945 80.5113C39.9803 80.5113 39.6445 80.8476 39.6445 81.2625C39.6445 81.6774 39.9803 82.0137 40.3945 82.0137Z" fill="#5E636E"/>
<path d="M40.3945 85.7248C40.8087 85.7248 41.1445 85.3885 41.1445 84.9736C41.1445 84.5587 40.8087 84.2224 40.3945 84.2224C39.9803 84.2224 39.6445 84.5587 39.6445 84.9736C39.6445 85.3885 39.9803 85.7248 40.3945 85.7248Z" fill="#5E636E"/>
<path d="M40.3945 89.4359C40.8087 89.4359 41.1445 89.0996 41.1445 88.6847C41.1445 88.2698 40.8087 87.9335 40.3945 87.9335C39.9803 87.9335 39.6445 88.2698 39.6445 88.6847C39.6445 89.0996 39.9803 89.4359 40.3945 89.4359Z" fill="#5E636E"/>
<path d="M40.3945 93.1319C40.8087 93.1319 41.1445 92.7956 41.1445 92.3807C41.1445 91.9658 40.8087 91.6295 40.3945 91.6295C39.9803 91.6295 39.6445 91.9658 39.6445 92.3807C39.6445 92.7956 39.9803 93.1319 40.3945 93.1319Z" fill="#5E636E"/>
<path d="M40.3945 96.843C40.8087 96.843 41.1445 96.5066 41.1445 96.0917C41.1445 95.6768 40.8087 95.3405 40.3945 95.3405C39.9803 95.3405 39.6445 95.6768 39.6445 96.0917C39.6445 96.5066 39.9803 96.843 40.3945 96.843Z" fill="#5E636E"/>
<path d="M40.3945 100.554C40.8087 100.554 41.1445 100.218 41.1445 99.8028C41.1445 99.3879 40.8087 99.0516 40.3945 99.0516C39.9803 99.0516 39.6445 99.3879 39.6445 99.8028C39.6445 100.218 39.9803 100.554 40.3945 100.554Z" fill="#5E636E"/>
<path d="M40.3945 104.25C40.8087 104.25 41.1445 103.914 41.1445 103.499C41.1445 103.084 40.8087 102.748 40.3945 102.748C39.9803 102.748 39.6445 103.084 39.6445 103.499C39.6445 103.914 39.9803 104.25 40.3945 104.25Z" fill="#5E636E"/>
<path d="M36.7051 41.2524C37.1193 41.2524 37.4551 40.9161 37.4551 40.5012C37.4551 40.0863 37.1193 39.75 36.7051 39.75C36.2909 39.75 35.9551 40.0863 35.9551 40.5012C35.9551 40.9161 36.2909 41.2524 36.7051 41.2524Z" fill="#5E636E"/>
<path d="M36.7051 44.9635C37.1193 44.9635 37.4551 44.6271 37.4551 44.2122C37.4551 43.7974 37.1193 43.461 36.7051 43.461C36.2909 43.461 35.9551 43.7974 35.9551 44.2122C35.9551 44.6271 36.2909 44.9635 36.7051 44.9635Z" fill="#5E636E"/>
<path d="M36.7051 48.6595C37.1193 48.6595 37.4551 48.3232 37.4551 47.9083C37.4551 47.4934 37.1193 47.157 36.7051 47.157C36.2909 47.157 35.9551 47.4934 35.9551 47.9083C35.9551 48.3232 36.2909 48.6595 36.7051 48.6595Z" fill="#5E636E"/>
<path d="M36.7051 52.3705C37.1193 52.3705 37.4551 52.0342 37.4551 51.6193C37.4551 51.2044 37.1193 50.8681 36.7051 50.8681C36.2909 50.8681 35.9551 51.2044 35.9551 51.6193C35.9551 52.0342 36.2909 52.3705 36.7051 52.3705Z" fill="#5E636E"/>
<path d="M36.7051 56.0816C37.1193 56.0816 37.4551 55.7453 37.4551 55.3304C37.4551 54.9155 37.1193 54.5792 36.7051 54.5792C36.2909 54.5792 35.9551 54.9155 35.9551 55.3304C35.9551 55.7453 36.2909 56.0816 36.7051 56.0816Z" fill="#5E636E"/>
<path d="M36.7051 59.7776C37.1193 59.7776 37.4551 59.4413 37.4551 59.0264C37.4551 58.6115 37.1193 58.2752 36.7051 58.2752C36.2909 58.2752 35.9551 58.6115 35.9551 59.0264C35.9551 59.4413 36.2909 59.7776 36.7051 59.7776Z" fill="#5E636E"/>
<path d="M36.7051 63.4886C37.1193 63.4886 37.4551 63.1523 37.4551 62.7374C37.4551 62.3225 37.1193 61.9862 36.7051 61.9862C36.2909 61.9862 35.9551 62.3225 35.9551 62.7374C35.9551 63.1523 36.2909 63.4886 36.7051 63.4886Z" fill="#5E636E"/>
<path d="M36.7051 67.1997C37.1193 67.1997 37.4551 66.8634 37.4551 66.4485C37.4551 66.0336 37.1193 65.6973 36.7051 65.6973C36.2909 65.6973 35.9551 66.0336 35.9551 66.4485C35.9551 66.8634 36.2909 67.1997 36.7051 67.1997Z" fill="#5E636E"/>
<path d="M36.7051 70.8957C37.1193 70.8957 37.4551 70.5594 37.4551 70.1445C37.4551 69.7296 37.1193 69.3932 36.7051 69.3932C36.2909 69.3932 35.9551 69.7296 35.9551 70.1445C35.9551 70.5594 36.2909 70.8957 36.7051 70.8957Z" fill="#5E636E"/>
<path d="M36.7051 74.6067C37.1193 74.6067 37.4551 74.2704 37.4551 73.8555C37.4551 73.4406 37.1193 73.1042 36.7051 73.1042C36.2909 73.1042 35.9551 73.4406 35.9551 73.8555C35.9551 74.2704 36.2909 74.6067 36.7051 74.6067Z" fill="#5E636E"/>
<path d="M36.7051 78.3178C37.1193 78.3178 37.4551 77.9815 37.4551 77.5666C37.4551 77.1517 37.1193 76.8154 36.7051 76.8154C36.2909 76.8154 35.9551 77.1517 35.9551 77.5666C35.9551 77.9815 36.2909 78.3178 36.7051 78.3178Z" fill="#5E636E"/>
<path d="M36.7051 82.0137C37.1193 82.0137 37.4551 81.6774 37.4551 81.2625C37.4551 80.8476 37.1193 80.5113 36.7051 80.5113C36.2909 80.5113 35.9551 80.8476 35.9551 81.2625C35.9551 81.6774 36.2909 82.0137 36.7051 82.0137Z" fill="#5E636E"/>
<path d="M36.7051 85.7248C37.1193 85.7248 37.4551 85.3885 37.4551 84.9736C37.4551 84.5587 37.1193 84.2224 36.7051 84.2224C36.2909 84.2224 35.9551 84.5587 35.9551 84.9736C35.9551 85.3885 36.2909 85.7248 36.7051 85.7248Z" fill="#5E636E"/>
<path d="M36.7051 89.4359C37.1193 89.4359 37.4551 89.0996 37.4551 88.6847C37.4551 88.2698 37.1193 87.9335 36.7051 87.9335C36.2909 87.9335 35.9551 88.2698 35.9551 88.6847C35.9551 89.0996 36.2909 89.4359 36.7051 89.4359Z" fill="#5E636E"/>
<path d="M36.7051 93.1319C37.1193 93.1319 37.4551 92.7956 37.4551 92.3807C37.4551 91.9658 37.1193 91.6295 36.7051 91.6295C36.2909 91.6295 35.9551 91.9658 35.9551 92.3807C35.9551 92.7956 36.2909 93.1319 36.7051 93.1319Z" fill="#5E636E"/>
<path d="M36.7051 96.843C37.1193 96.843 37.4551 96.5066 37.4551 96.0917C37.4551 95.6768 37.1193 95.3405 36.7051 95.3405C36.2909 95.3405 35.9551 95.6768 35.9551 96.0917C35.9551 96.5066 36.2909 96.843 36.7051 96.843Z" fill="#5E636E"/>
<path d="M36.7051 100.554C37.1193 100.554 37.4551 100.218 37.4551 99.8028C37.4551 99.3879 37.1193 99.0516 36.7051 99.0516C36.2909 99.0516 35.9551 99.3879 35.9551 99.8028C35.9551 100.218 36.2909 100.554 36.7051 100.554Z" fill="#5E636E"/>
<path d="M36.7051 104.25C37.1193 104.25 37.4551 103.914 37.4551 103.499C37.4551 103.084 37.1193 102.748 36.7051 102.748C36.2909 102.748 35.9551 103.084 35.9551 103.499C35.9551 103.914 36.2909 104.25 36.7051 104.25Z" fill="#5E636E"/>
<path d="M33 41.2524C33.4142 41.2524 33.75 40.9161 33.75 40.5012C33.75 40.0863 33.4142 39.75 33 39.75C32.5858 39.75 32.25 40.0863 32.25 40.5012C32.25 40.9161 32.5858 41.2524 33 41.2524Z" fill="#5E636E"/>
<path d="M33 44.9635C33.4142 44.9635 33.75 44.6271 33.75 44.2122C33.75 43.7974 33.4142 43.461 33 43.461C32.5858 43.461 32.25 43.7974 32.25 44.2122C32.25 44.6271 32.5858 44.9635 33 44.9635Z" fill="#5E636E"/>
<path d="M33 48.6595C33.4142 48.6595 33.75 48.3232 33.75 47.9083C33.75 47.4934 33.4142 47.157 33 47.157C32.5858 47.157 32.25 47.4934 32.25 47.9083C32.25 48.3232 32.5858 48.6595 33 48.6595Z" fill="#5E636E"/>
<path d="M33 52.3705C33.4142 52.3705 33.75 52.0342 33.75 51.6193C33.75 51.2044 33.4142 50.8681 33 50.8681C32.5858 50.8681 32.25 51.2044 32.25 51.6193C32.25 52.0342 32.5858 52.3705 33 52.3705Z" fill="#5E636E"/>
<path d="M33 56.0816C33.4142 56.0816 33.75 55.7453 33.75 55.3304C33.75 54.9155 33.4142 54.5792 33 54.5792C32.5858 54.5792 32.25 54.9155 32.25 55.3304C32.25 55.7453 32.5858 56.0816 33 56.0816Z" fill="#5E636E"/>
<path d="M33 59.7776C33.4142 59.7776 33.75 59.4413 33.75 59.0264C33.75 58.6115 33.4142 58.2752 33 58.2752C32.5858 58.2752 32.25 58.6115 32.25 59.0264C32.25 59.4413 32.5858 59.7776 33 59.7776Z" fill="#5E636E"/>
<path d="M33 63.4886C33.4142 63.4886 33.75 63.1523 33.75 62.7374C33.75 62.3225 33.4142 61.9862 33 61.9862C32.5858 61.9862 32.25 62.3225 32.25 62.7374C32.25 63.1523 32.5858 63.4886 33 63.4886Z" fill="#5E636E"/>
<path d="M33 67.1997C33.4142 67.1997 33.75 66.8634 33.75 66.4485C33.75 66.0336 33.4142 65.6973 33 65.6973C32.5858 65.6973 32.25 66.0336 32.25 66.4485C32.25 66.8634 32.5858 67.1997 33 67.1997Z" fill="#5E636E"/>
<path d="M33 70.8957C33.4142 70.8957 33.75 70.5594 33.75 70.1445C33.75 69.7296 33.4142 69.3932 33 69.3932C32.5858 69.3932 32.25 69.7296 32.25 70.1445C32.25 70.5594 32.5858 70.8957 33 70.8957Z" fill="#5E636E"/>
<path d="M33 74.6067C33.4142 74.6067 33.75 74.2704 33.75 73.8555C33.75 73.4406 33.4142 73.1042 33 73.1042C32.5858 73.1042 32.25 73.4406 32.25 73.8555C32.25 74.2704 32.5858 74.6067 33 74.6067Z" fill="#5E636E"/>
<path d="M33 78.3178C33.4142 78.3178 33.75 77.9815 33.75 77.5666C33.75 77.1517 33.4142 76.8154 33 76.8154C32.5858 76.8154 32.25 77.1517 32.25 77.5666C32.25 77.9815 32.5858 78.3178 33 78.3178Z" fill="#5E636E"/>
<path d="M33 82.0137C33.4142 82.0137 33.75 81.6774 33.75 81.2625C33.75 80.8476 33.4142 80.5113 33 80.5113C32.5858 80.5113 32.25 80.8476 32.25 81.2625C32.25 81.6774 32.5858 82.0137 33 82.0137Z" fill="#5E636E"/>
<path d="M33 85.7248C33.4142 85.7248 33.75 85.3885 33.75 84.9736C33.75 84.5587 33.4142 84.2224 33 84.2224C32.5858 84.2224 32.25 84.5587 32.25 84.9736C32.25 85.3885 32.5858 85.7248 33 85.7248Z" fill="#5E636E"/>
<path d="M33 89.4359C33.4142 89.4359 33.75 89.0996 33.75 88.6847C33.75 88.2698 33.4142 87.9335 33 87.9335C32.5858 87.9335 32.25 88.2698 32.25 88.6847C32.25 89.0996 32.5858 89.4359 33 89.4359Z" fill="#5E636E"/>
<path d="M33 93.1319C33.4142 93.1319 33.75 92.7956 33.75 92.3807C33.75 91.9658 33.4142 91.6295 33 91.6295C32.5858 91.6295 32.25 91.9658 32.25 92.3807C32.25 92.7956 32.5858 93.1319 33 93.1319Z" fill="#5E636E"/>
<path d="M33 96.843C33.4142 96.843 33.75 96.5066 33.75 96.0917C33.75 95.6768 33.4142 95.3405 33 95.3405C32.5858 95.3405 32.25 95.6768 32.25 96.0917C32.25 96.5066 32.5858 96.843 33 96.843Z" fill="#5E636E"/>
<path d="M33 100.554C33.4142 100.554 33.75 100.218 33.75 99.8028C33.75 99.3879 33.4142 99.0516 33 99.0516C32.5858 99.0516 32.25 99.3879 32.25 99.8028C32.25 100.218 32.5858 100.554 33 100.554Z" fill="#5E636E"/>
<path d="M33 104.25C33.4142 104.25 33.75 103.914 33.75 103.499C33.75 103.084 33.4142 102.748 33 102.748C32.5858 102.748 32.25 103.084 32.25 103.499C32.25 103.914 32.5858 104.25 33 104.25Z" fill="#5E636E"/>
<path fill-rule="evenodd" clip-rule="evenodd" d="M59.25 21L65.25 27L71.25 33V87.75H13.5L13.5 81.75H7.50002L7.50002 75.75H1.50002L1.5 1.5H39.75L45.75 7.5L51.75 13.5L59.25 21Z" fill="#F9FAFA"/>
<path fill-rule="evenodd" clip-rule="evenodd" d="M33 46.4339C36.0983 45.0119 38.25 41.8822 38.25 38.25C38.25 33.2794 34.2206 29.25 29.25 29.25C24.2794 29.25 20.25 33.2794 20.25 38.25C20.25 41.8822 22.4017 45.0119 25.5 46.4339V57H33V46.4339Z" fill="#90E0C2"/>
<path fill-rule="evenodd" clip-rule="evenodd" d="M0.75 0.75H40.0607L59.6143 20.3036L59.625 20.25L65.6149 26.3004L65.625 26.25L72 32.6893V88.5H12.75L12.75 82.5H6.75002L6.75 76.5H0.750019L0.75 0.75ZM60 26.25V22.8635L63.4394 26.25H60ZM60 76.5V27.75H64.5V81H8.25002L8.25 76.5H60ZM2.25 2.25L2.25002 75H58.5V21.75H39V2.25H2.25ZM40.5 3.31066L57.4394 20.25H40.5V3.31066ZM66 28.8635V32.25H69.4394L66 28.8635ZM66 33.75V82.5H14.25L14.25 87H70.5V33.75H66ZM29.25 28.5C23.8652 28.5 19.5 32.8652 19.5 38.25C19.5 42.0127 21.6314 45.2762 24.75 46.9015V57.75H33.75V46.9015C36.8686 45.2762 39 42.0127 39 38.25C39 32.8652 34.6348 28.5 29.25 28.5ZM21 38.25C21 33.6936 24.6937 30 29.25 30C33.8064 30 37.5 33.6936 37.5 38.25C37.5 41.5784 35.5289 44.448 32.6872 45.7523L32.25 45.9529V56.25H26.25V45.9529L25.8128 45.7523C22.9711 44.448 21 41.5784 21 38.25Z" fill="#5E636E"/>
<path fill-rule="evenodd" clip-rule="evenodd" d="M104.25 9.74997L82.5003 9.74997V77.25H78.0003C66.8155 77.25 57.0612 86.9151 57.0003 98.246C56.9391 109.672 66.8314 118.5 78.0003 118.5H99.0003C110.206 118.5 119.311 109.636 119.25 98.246L119.25 98.2449C119.174 86.9528 110.222 77.25 99.0003 77.25H95.2503V28.5L102 28.5C104.027 28.5 105.75 26.787 105.75 24.75C105.75 22.6933 104.008 21 102 21H97.5003V17.25L104.25 17.25C106.277 17.25 108 15.537 108 13.5C108 11.4433 106.258 9.74997 104.25 9.74997ZM69.0003 98.25C69.0003 93.5052 73.3192 89.25 78.0003 89.25H99.0003C103.606 89.25 107.25 93.4258 107.25 98.25C107.25 102.994 103.682 106.5 99.0003 106.5H78.0003C73.239 106.5 69.0003 102.919 69.0003 98.25Z" fill="#5E636E"/>
<path d="M54.7503 98.25C54.809 87.3301 64.2297 78 75.0003 78H80.2503V10.5H101.25C102.85 10.5 104.25 11.8635 104.25 13.5C104.25 15.1216 102.864 16.5 101.25 16.5H93.7503V21.75H99.0003C100.6 21.75 102 23.1135 102 24.75C102 26.3716 100.614 27.75 99.0003 27.75L91.5003 27.75V78H96.0003C106.771 78 115.427 87.3301 115.5 98.25C115.559 109.214 106.8 117.75 96.0003 117.75H75.0003C64.2004 117.75 54.6916 109.214 54.7503 98.25ZM96.0003 107.25C101.092 107.25 105 103.412 105 98.25C105 93.0876 101.092 88.5 96.0003 88.5H75.0003C69.9085 88.5 65.2503 93.0876 65.2503 98.25C65.2503 103.412 69.9085 107.25 75.0003 107.25H96.0003Z" fill="#90E0C2"/>
<path fill-rule="evenodd" clip-rule="evenodd" d="M79.5003 9.74997H101.25C103.258 9.74997 105 11.4433 105 13.5C105 15.537 103.277 17.25 101.25 17.25H94.5003V21H99.0003C101.008 21 102.75 22.6933 102.75 24.75C102.75 26.787 101.027 28.5 99.0003 28.5L92.2503 28.5V77.25H96.0003C107.222 77.25 116.174 86.9528 116.25 98.2449L116.25 98.246C116.311 109.636 107.206 118.5 96.0003 118.5H75.0003C63.8314 118.5 53.9391 109.672 54.0003 98.246C54.0612 86.9151 63.8155 77.25 75.0003 77.25H79.5003V9.74997ZM81.0003 11.25V78.75H75.0003C64.644 78.75 55.5567 87.7451 55.5003 98.254C55.444 108.757 64.5694 117 75.0003 117H96.0003C106.394 117 114.806 108.794 114.75 98.2548C114.75 98.2545 114.75 98.2543 114.75 98.254L115.5 98.25L114.75 98.2548C114.75 98.2548 114.75 98.2549 114.75 98.2548C114.679 87.7072 106.32 78.75 96.0003 78.75H90.7503V27L99.0003 27C100.201 27 101.25 25.9562 101.25 24.75C101.25 23.5337 100.191 22.5 99.0003 22.5H93.0003V15.75H101.25C102.451 15.75 103.5 14.7062 103.5 13.5C103.5 12.2837 102.441 11.25 101.25 11.25H81.0003ZM64.5003 98.25C64.5003 92.6699 69.4977 87.75 75.0003 87.75H96.0003C101.578 87.75 105.75 92.7494 105.75 98.25C105.75 103.83 101.502 108 96.0003 108H75.0003C69.578 108 64.5003 103.906 64.5003 98.25ZM75.0003 89.25C70.3192 89.25 66.0003 93.5052 66.0003 98.25C66.0003 102.919 70.239 106.5 75.0003 106.5H96.0003C100.682 106.5 104.25 102.994 104.25 98.25C104.25 93.4258 100.606 89.25 96.0003 89.25H75.0003Z" fill="#5E636E"/>
</svg>
