<svg width="12" height="12" viewBox="0 0 12 12" fill="none" xmlns="http://www.w3.org/2000/svg">
<path fill-rule="evenodd" clip-rule="evenodd" d="M6.47124 0.86201C6.21089 0.601661 5.78878 0.601661 5.52843 0.86201C5.26808 1.12236 5.26808 1.54447 5.52843 1.80482L9.05703 5.33341H1.33317C0.964981 5.33341 0.666504 5.63189 0.666504 6.00008C0.666504 6.36827 0.964981 6.66675 1.33317 6.66675H9.05703L5.52843 10.1953C5.26808 10.4557 5.26808 10.8778 5.52843 11.1382C5.78878 11.3985 6.21089 11.3985 6.47124 11.1382L11.1374 6.47196C11.139 6.47035 11.1406 6.46874 11.1422 6.46711C11.2599 6.34727 11.3326 6.18317 11.3332 6.00208C11.3332 6.00141 11.3332 6.00075 11.3332 6.00008C11.3332 5.99941 11.3332 5.99875 11.3332 5.99808C11.3329 5.90842 11.3149 5.82292 11.2826 5.74489C11.2508 5.66805 11.204 5.59594 11.1422 5.53305C11.1407 5.53145 11.1391 5.52985 11.1375 5.52827M6.47124 0.86201L11.1375 5.52827L6.47124 0.86201Z" fill="#6E7591"/>
</svg>
