<svg width="12" height="12" viewBox="0 0 12 12" fill="none" xmlns="http://www.w3.org/2000/svg">
<path fill-rule="evenodd" clip-rule="evenodd" d="M5.52843 11.1382C5.78878 11.3985 6.21089 11.3985 6.47124 11.1382C6.73159 10.8778 6.73159 10.4557 6.47124 10.1953L2.94265 6.66675L10.6665 6.66675C11.0347 6.66675 11.3332 6.36827 11.3332 6.00008C11.3332 5.63189 11.0347 5.33341 10.6665 5.33341L2.94265 5.33342L6.47124 1.80482C6.73159 1.54447 6.73159 1.12236 6.47124 0.86201C6.21089 0.601661 5.78878 0.601661 5.52843 0.862011L0.862242 5.5282C0.860631 5.52981 0.859028 5.53143 0.857434 5.53305C0.739772 5.65289 0.667038 5.81699 0.666506 5.99808C0.666505 5.99875 0.666504 5.99942 0.666504 6.00008C0.666504 6.00075 0.666505 6.00142 0.666506 6.00208C0.66677 6.09175 0.684735 6.17725 0.71709 6.25527C0.748884 6.33211 0.795665 6.40422 0.857434 6.46711C0.859006 6.46872 0.860587 6.47031 0.862175 6.4719M0.862175 6.4719L5.52843 11.1382L0.862175 6.4719Z" />
</svg>
