<svg width="10" height="10" viewBox="0 0 10 10" fill="none" xmlns="http://www.w3.org/2000/svg">
<path d="M5.93663 5.00085L9.46329 1.47419C9.72329 1.21419 9.72329 0.794186 9.46329 0.534186C9.20329 0.274186 8.78329 0.274186 8.52329 0.534186L4.99663 4.06085L1.46996 0.52752C1.20996 0.26752 0.789961 0.26752 0.529961 0.52752C0.269961 0.787519 0.269961 1.20752 0.529961 1.46752L4.05663 5.00085L0.529961 8.52752C0.269961 8.78752 0.269961 9.20752 0.529961 9.46752C0.656628 9.60085 0.823294 9.66752 0.996628 9.66752C1.16996 9.66752 1.33663 9.60085 1.46996 9.47418L4.99663 5.94085L8.52329 9.46752C8.65663 9.60085 8.82329 9.66752 8.99663 9.66752C9.16996 9.66752 9.33663 9.60085 9.46996 9.47418C9.72996 9.21419 9.72996 8.79419 9.46996 8.53419L5.93663 5.00085Z" fill="#004668"/>
</svg>
