<svg width="23" height="22" viewBox="0 0 23 22" xmlns="http://www.w3.org/2000/svg">
<path d="M13.87 3.89L13.56 1.44C13.53 1.19 13.32 1 13.06 1H9.95001C9.70001 1 9.48001 1.19 9.45001 1.44L9.18001 3.59C9.16001 3.77 9.03001 3.93 8.86001 3.99C8.02001 4.3 7.22001 4.78 6.53001 5.4L4.25001 4.44C4.02001 4.34 3.75001 4.43 3.62001 4.65L2.06001 7.35C1.94001 7.57 2.00001 7.85 2.20001 8L4.17001 9.49C3.96001 10.5 3.96001 11.53 4.16001 12.51H4.17001L2.20001 14C2.00001 14.15 1.94001 14.43 2.07001 14.65L3.63001 17.35C3.76001 17.57 4.03001 17.66 4.26001 17.56L6.54001 16.6L6.53001 16.61C6.90001 16.94 7.32001 17.24 7.77001 17.5C8.22001 17.76 8.68001 17.97 9.16001 18.13V18.11L9.47001 20.56C9.48001 20.81 9.70001 21 9.95001 21H13.07C13.32 21 13.53 20.81 13.57 20.56L13.84 18.41C13.86 18.23 13.99 18.07 14.16 18.01C15 17.7 15.8 17.22 16.49 16.6L18.77 17.56C19 17.66 19.27 17.57 19.4 17.35L20.96 14.65C21.09 14.43 21.03 14.15 20.83 14L18.86 12.51C19.07 11.5 19.07 10.47 18.87 9.49H18.86L20.81 8C21.01 7.85 21.07 7.57 20.94 7.35L19.38 4.65C19.25 4.43 18.98 4.34 18.75 4.44L16.48 5.4L16.49 5.39C16.12 5.06 15.7 4.76 15.25 4.5C14.8 4.24 14.34 4.03 13.86 3.87M15.51 11C15.51 13.2091 13.7192 15 11.51 15C9.30088 15 7.51001 13.2091 7.51001 11C7.51001 8.79086 9.30088 7 11.51 7C13.7192 7 15.51 8.79086 15.51 11Z" stroke="currentColor" stroke-width="2" stroke-miterlimit="10" stroke-linecap="round" stroke-linejoin="round" fill='current' />
</svg>
