<svg width="32" height="32" viewBox="0 0 32 32" fill="none" xmlns="http://www.w3.org/2000/svg">
<path fill-rule="evenodd" clip-rule="evenodd" d="M15.1054 4.45562C15.4739 3.71857 16.5257 3.71857 16.8942 4.45562L28.6095 27.8862C28.942 28.5511 28.4585 29.3334 27.7151 29.3334H4.28449C3.54111 29.3334 3.05762 28.5511 3.39007 27.8862L15.1054 4.45562ZM15.9998 12.7335C16.3312 12.7335 16.5998 13.0021 16.5998 13.3335V20.0001C16.5998 20.3315 16.3312 20.6001 15.9998 20.6001C15.6685 20.6001 15.3998 20.3315 15.3998 20.0001V13.3335C15.3998 13.0021 15.6685 12.7335 15.9998 12.7335ZM15.9998 24.6001C15.963 24.6001 15.9332 24.63 15.9332 24.6668C15.9332 24.7036 15.963 24.7335 15.9998 24.7335C16.0366 24.7335 16.0665 24.7036 16.0665 24.6668C16.0665 24.63 16.0366 24.6001 15.9998 24.6001ZM14.7332 24.6668C14.7332 23.9672 15.3003 23.4001 15.9998 23.4001C16.6994 23.4001 17.2665 23.9672 17.2665 24.6668C17.2665 25.3664 16.6994 25.9335 15.9998 25.9335C15.3003 25.9335 14.7332 25.3664 14.7332 24.6668Z" fill="current"/>
</svg>
